<svg width="102" height="102" viewBox="0 0 102 102" fill="none" xmlns="http://www.w3.org/2000/svg">
<path d="M96.075 0H5.59167C4.10866 0 2.6864 0.589121 1.63776 1.63776C0.589121 2.6864 0 4.10866 0 5.59167V96.075C0 97.558 0.589121 98.9803 1.63776 100.029C2.6864 101.078 4.10866 101.667 5.59167 101.667H54.29V62.2708H41.0733V47.0208H54.29V35.5833C54.0162 32.8981 54.3332 30.1855 55.2188 27.6357C56.1044 25.086 57.5371 22.7609 59.4164 20.8234C61.2957 18.886 63.5761 17.3832 66.0977 16.4204C68.6193 15.4576 71.321 15.0581 74.0133 15.25C77.9699 15.2227 81.9247 15.4264 85.8575 15.86V29.585H77.775C71.37 29.585 70.15 32.635 70.15 37.0575V46.8683H85.4L83.4175 62.1183H70.15V101.667H96.075C96.8093 101.667 97.5364 101.522 98.2148 101.241C98.8932 100.96 99.5097 100.548 100.029 100.029C100.548 99.5097 100.96 98.8932 101.241 98.2148C101.522 97.5364 101.667 96.8093 101.667 96.075V5.59167C101.667 4.85736 101.522 4.13024 101.241 3.45183C100.96 2.77342 100.548 2.157 100.029 1.63776C99.5097 1.11853 98.8932 0.706648 98.2148 0.425641C97.5364 0.144633 96.8093 0 96.075 0Z" fill="#E6E6E6"/>
</svg>
