<?xml version="1.0" encoding="UTF-8"?><svg id="Layer_2" xmlns="http://www.w3.org/2000/svg" width="852.82" height="1077.01" viewBox="0 0 852.82 1077.01"><defs><style>.cls-1{fill:none;stroke:#ff1054;stroke-miterlimit:10;stroke-width:7px;}</style></defs><path class="cls-1" d="M271.54,680.97c-3.52,10.9.04,25.67,7.17,55.22,4.48,18.59,10.96,38.15,37.27,92.13,37.68,77.29,48.49,86.6,54.85,91.42,25.98,19.69,54.57,25.77,70.33,23.91,105.9-12.51,197.76-77.39,319.28-194.1,24.09-23.14,62.02-61.49,52.04-80.87-3.34-6.5-10.98-8.77-14.77-9.85-88.07-24.94-183.09-32.91-183.09-32.91-33.09-1.87-47.94-5.84-129.16-7.88-21.7-.55-192.85-2.32-213.93,62.92Z"/><path class="cls-1" d="M513.2,618.91c6.02-17.97,12.43-41.49,12.44-69.26.01-78.12-17.11-134.96-31.47-140.61-31.68-12.47-144.37,39.32-184.8,64.14-93.74,57.56-135.68,113.48-135.68,113.48,0,0-44.87-15.3-51.81-9.05-4.9,4.42,15.62,32.89,15.62,32.89,0,0-7.68,13.62-15.61,14.45-27.66,2.9-57.16-20.15-75.67-7.03-19.79,14.03-19.09,78.72-13.16,85.5,11.1,12.68,46.32,20.33,92.92,51.81,14.35,9.69,68.28,46.12,78.12,101.14,10.28,57.46-13.85,103.37,2.4,142.47.33.79,8.07,8.56,18.16,6.77,39.87-7.09,85.72-38.18,124.55-113.95"/><path class="cls-1" d="M389.63,931.15c-5.25,4.86-13.54,11.93-24.67,18.97-32.92,20.8-51.62,16.6-76,35.47-19.41,15.02-31.19,35.97-27.87,39.69,5.68,6.35,47.22-12.48,65.02-27.02,5.94-4.85-18.78,28.55-11.82,40.53,6.57,11.31,36.92,6.36,53.2,1.69,53.02-15.22,85.02-64.33,101.32-96.5"/><ellipse class="cls-1" cx="690.97" cy="709.69" rx="25.22" ry="22.23"/><path class="cls-1" d="M586.21,678.6c9.87,2.48,16.59,18.35,29.62,49.99,17.44,42.32,25.98,63.65,17.59,72.21-10.53,10.74-39.32-2.13-49.07-6.48-16.62-7.43-52.42-23.42-54.62-54.62-2.35-33.27,34.72-66.57,56.47-61.1Z"/><path class="cls-1" d="M724.33,482.87c-2.16-8.83,9.21-19.45,19.87-23,1.93-.64,16.19-5.14,27.18,4.18,7.09,6.01,12.35,17.37,8.36,25.09-6.11,11.83-29.75,7.03-33.46,6.27-6.26-1.27-19.88-4.04-21.96-12.55Z"/><path class="cls-1" d="M579,372.05c-2.83,5.71,2.35,13.62,8.36,16.73,4.65,2.4,12.15,3.14,15.68-1.05,4.14-4.91,1.25-14.77-5.23-18.82-6.22-3.89-15.99-2.58-18.82,3.14Z"/><path class="cls-1" d="M585.27,309.31c-4.34,3.22,2.13,18.53,3.14,20.91,2.6,6.16,4.7,11.11,9.41,12.55,6.45,1.96,15.46-3.38,16.73-9.41,2.45-11.65-23.48-28.35-29.28-24.05Z"/><path class="cls-1" d="M629.18,230.9c6.09-8.41,21.61-7.38,26.14,0,3.02,4.93.6,11.81-2.09,15.68-3.84,5.53-12,10.35-18.82,7.32-7.9-3.52-10.33-15.95-5.23-23Z"/><path class="cls-1" d="M512.08,104.38c1.1-15.57-15.93-25.09-27.18-27.18-1.54-.29-19.09-3.3-26.14,7.32-7.42,11.18,3.67,27.11,5.23,29.28,2.4,3.33,9.34,12.98,20.91,13.59,12.67.67,26.25-9.75,27.18-23Z"/><path class="cls-1" d="M491.17,251.81c1.58-5.73,9.35-10.86,16.73-9.41,7.94,1.56,10.96,9.88,11.5,11.5,2.55,7.67.11,17.69-5.23,19.87-8.32,3.38-25.93-11.37-23-21.96Z"/><path class="cls-1" d="M527.76,166.07c.62-5.26,7.97-10.91,14.64-9.41,7.06,1.59,9.11,10.24,9.41,11.5.78,3.31,1.4,10.3-2.09,12.55-5.84,3.77-22.99-5.93-21.96-14.64Z"/><path class="cls-1" d="M640.35,579.08c3.98-7.65,19.33-8.24,25.2-.84,2.65,3.34,3.48,8.43,1.68,12.6-2.87,6.67-12.07,10.09-19.32,6.72-7.43-3.45-10.46-12.92-7.56-18.48Z"/></svg>