<svg width="144" height="144" viewBox="0 0 144 144" fill="none" xmlns="http://www.w3.org/2000/svg">
<path d="M41.5667 0H101.767C124.7 0 143.333 18.6333 143.333 41.5667V101.767C143.333 112.791 138.954 123.363 131.159 131.159C123.363 138.954 112.791 143.333 101.767 143.333H41.5667C18.6333 143.333 0 124.7 0 101.767V41.5667C0 30.5425 4.37933 19.9699 12.1746 12.1746C19.9699 4.37933 30.5425 0 41.5667 0ZM40.1333 14.3333C33.2907 14.3333 26.7284 17.0515 21.89 21.89C17.0515 26.7284 14.3333 33.2907 14.3333 40.1333V103.2C14.3333 117.462 25.8717 129 40.1333 129H103.2C110.043 129 116.605 126.282 121.443 121.443C126.282 116.605 129 110.043 129 103.2V40.1333C129 25.8717 117.462 14.3333 103.2 14.3333H40.1333ZM109.292 25.0833C111.668 25.0833 113.946 26.0272 115.626 27.7072C117.306 29.3872 118.25 31.6658 118.25 34.0417C118.25 36.4176 117.306 38.6962 115.626 40.3762C113.946 42.0562 111.668 43 109.292 43C106.916 43 104.637 42.0562 102.957 40.3762C101.277 38.6962 100.333 36.4176 100.333 34.0417C100.333 31.6658 101.277 29.3872 102.957 27.7072C104.637 26.0272 106.916 25.0833 109.292 25.0833ZM71.6667 35.8333C81.1703 35.8333 90.2846 39.6086 97.0047 46.3287C103.725 53.0487 107.5 62.1631 107.5 71.6667C107.5 81.1703 103.725 90.2846 97.0047 97.0047C90.2846 103.725 81.1703 107.5 71.6667 107.5C62.1631 107.5 53.0487 103.725 46.3287 97.0047C39.6086 90.2846 35.8333 81.1703 35.8333 71.6667C35.8333 62.1631 39.6086 53.0487 46.3287 46.3287C53.0487 39.6086 62.1631 35.8333 71.6667 35.8333ZM71.6667 50.1667C65.9645 50.1667 60.4959 52.4318 56.4639 56.4639C52.4318 60.4959 50.1667 65.9645 50.1667 71.6667C50.1667 77.3688 52.4318 82.8374 56.4639 86.8695C60.4959 90.9015 65.9645 93.1667 71.6667 93.1667C77.3688 93.1667 82.8374 90.9015 86.8695 86.8695C90.9015 82.8374 93.1667 77.3688 93.1667 71.6667C93.1667 65.9645 90.9015 60.4959 86.8695 56.4639C82.8374 52.4318 77.3688 50.1667 71.6667 50.1667Z" fill="#E6E6E6"/>
</svg>
