<svg width="314" height="43" viewBox="0 0 314 43" fill="none" xmlns="http://www.w3.org/2000/svg">
<path d="M309.345 5.65594C309.345 5.65594 306.5 20.6559 287.389 29.6808C268.278 38.7057 243 35.1559 243 35.1559" stroke="#FF1054"/>
<path d="M313.5 12.1559L309.5 5.15594L303 11.1559" stroke="#FF1054"/>
<path d="M6.56 36.824C5.64267 36.2267 5.024 35.704 4.704 35.256C4.384 34.8293 4.512 34.4347 5.088 34.072C5.216 33.9867 5.41867 34.0613 5.696 34.296C5.99467 34.5093 6.24 34.712 6.432 34.904C6.85867 35.288 7.38133 35.5227 8 35.608C8.64 35.7147 9.35467 35.6613 10.144 35.448C11.04 35.1707 11.8187 34.7867 12.48 34.296C13.1627 33.784 13.8027 33.1653 14.4 32.44C14.848 31.864 15.1573 31.2453 15.328 30.584C15.4987 29.9013 15.5627 29.272 15.52 28.696C15.4987 28.12 15.3813 27.7147 15.168 27.48C14.6347 26.7333 13.888 26.2213 12.928 25.944C11.9893 25.6453 10.88 25.6667 9.6 26.008C9.45067 26.0293 9.22667 26.072 8.928 26.136C8.62933 26.2 8.36267 26.264 8.128 26.328C7.89333 26.3707 7.76533 26.392 7.744 26.392C7.59467 26.4347 7.47733 26.488 7.392 26.552C7.30667 26.5947 7.2 26.7547 7.072 27.032C6.96533 27.288 6.79467 27.7573 6.56 28.44C6.32533 29.1013 5.97333 30.0827 5.504 31.384C5.056 32.6853 4.69333 33.6133 4.416 34.168C4.16 34.7013 3.92533 34.9467 3.712 34.904C3.52 34.84 3.27467 34.6053 2.976 34.2C2.80533 33.9013 2.69867 33.6133 2.656 33.336C2.61333 33.0373 2.69867 32.696 2.912 32.312C3.01867 32.12 3.104 31.9493 3.168 31.8C3.232 31.6293 3.31733 31.3413 3.424 30.936C3.53067 30.616 3.73333 30.0613 4.032 29.272C4.352 28.4613 4.72533 27.5227 5.152 26.456C5.57867 25.368 6.02667 24.248 6.496 23.096C6.96533 21.944 7.41333 20.856 7.84 19.832C8.288 18.808 8.66133 17.944 8.96 17.24C9.25867 16.5787 9.44 16.0987 9.504 15.8C9.568 15.5013 9.54667 15.3413 9.44 15.32C9.44 15.2133 9.408 15.1173 9.344 15.032C9.28 14.9253 9.25867 14.8293 9.28 14.744C9.28 14.6587 9.41867 14.5413 9.696 14.392C9.99467 14.2427 10.3147 14.104 10.656 13.976C11.0187 13.848 11.296 13.8053 11.488 13.848C11.5947 13.848 11.7227 13.848 11.872 13.848C12.0213 13.8267 12.096 13.7733 12.096 13.688C12.16 13.688 12.3627 13.6667 12.704 13.624C13.0453 13.5813 13.4187 13.5813 13.824 13.624C15.2533 13.752 16.3627 14.168 17.152 14.872C17.9413 15.5547 18.3253 16.4933 18.304 17.688C18.2827 18.0507 18.0907 18.5413 17.728 19.16C17.3867 19.7787 16.96 20.3973 16.448 21.016C15.9573 21.6347 15.4773 22.1573 15.008 22.584C14.7307 22.8187 14.432 23.064 14.112 23.32C13.8133 23.5547 13.5467 23.7573 13.312 23.928C13.0987 24.0773 12.992 24.152 12.992 24.152C12.992 24.152 13.0773 24.184 13.248 24.248C13.4187 24.312 13.6 24.376 13.792 24.44C14.7733 24.8027 15.584 25.2613 16.224 25.816C16.864 26.3707 17.3013 27.1387 17.536 28.12C17.6213 28.44 17.6213 28.8347 17.536 29.304C17.472 29.7733 17.376 30.2427 17.248 30.712C17.12 31.16 16.9813 31.544 16.832 31.864C16.6827 32.0133 16.5653 32.1733 16.48 32.344C16.3947 32.4933 16.352 32.568 16.352 32.568C16.352 32.6107 16.2667 32.7813 16.096 33.08C15.9253 33.3573 15.7227 33.6667 15.488 34.008C15.2533 34.3493 15.0293 34.648 14.816 34.904C14.6027 35.0747 14.3467 35.2773 14.048 35.512C13.7707 35.7467 13.4507 35.9707 13.088 36.184C12.7467 36.3973 12.3733 36.5787 11.968 36.728C11.3707 36.984 10.72 37.1547 10.016 37.24C9.33333 37.3467 8.68267 37.3573 8.064 37.272C7.44533 37.208 6.944 37.0587 6.56 36.824ZM8.128 24.504C8.128 24.504 8.32 24.472 8.704 24.408C9.10933 24.3227 9.54667 24.2373 10.016 24.152C10.4853 24.0453 10.8267 23.9493 11.04 23.864C11.1467 23.8 11.296 23.7147 11.488 23.608C11.7013 23.5013 11.9147 23.3413 12.128 23.128C12.4267 22.8507 12.8 22.456 13.248 21.944C13.7173 21.4107 14.176 20.856 14.624 20.28C15.072 19.6827 15.4133 19.1493 15.648 18.68C16.1387 17.912 16.4053 17.3467 16.448 16.984C16.4907 16.6 16.3733 16.2693 16.096 15.992C15.904 15.7573 15.5733 15.608 15.104 15.544C14.656 15.4587 14.176 15.4373 13.664 15.48C13.152 15.5013 12.7147 15.5653 12.352 15.672C12.0747 15.7573 11.8613 15.864 11.712 15.992C11.5627 16.0987 11.488 16.2693 11.488 16.504C11.488 16.696 11.424 16.888 11.296 17.08C11.1893 17.2507 11.0827 17.3893 10.976 17.496C10.9547 17.6453 10.9013 17.784 10.816 17.912C10.7307 18.0187 10.688 18.072 10.688 18.072C10.688 18.1573 10.5387 18.5093 10.24 19.128C9.94133 19.7467 9.64267 20.4613 9.344 21.272C8.96 22.1893 8.66133 22.936 8.448 23.512C8.23467 24.0667 8.128 24.3973 8.128 24.504ZM21.0975 35C20.6922 35.1067 20.3615 35.0213 20.1055 34.744C19.8708 34.4667 19.7322 34.04 19.6895 33.464C19.6468 32.888 19.7108 32.2053 19.8815 31.416C19.9882 31.16 20.0735 30.9147 20.1375 30.68C20.2015 30.424 20.2335 30.2213 20.2335 30.072C20.2762 29.8587 20.3615 29.5493 20.4895 29.144C20.6175 28.7173 20.7562 28.28 20.9055 27.832C21.0548 27.384 21.1935 26.9893 21.3215 26.648C21.4708 26.2853 21.5668 26.0613 21.6095 25.976C21.6948 25.976 21.7695 25.9013 21.8335 25.752C21.8975 25.6027 21.9295 25.4533 21.9295 25.304C21.9295 25.1333 21.9615 24.9413 22.0255 24.728C22.1108 24.5147 22.1962 24.3653 22.2815 24.28C22.2815 24.1733 22.3028 24.056 22.3455 23.928C22.4095 23.7787 22.4415 23.6613 22.4415 23.576C22.4415 23.4907 22.4628 23.4053 22.5055 23.32C22.5695 23.2347 22.6015 23.1493 22.6015 23.064C22.7508 22.7867 22.9428 22.3493 23.1775 21.752C23.4335 21.1333 23.7002 20.4507 23.9775 19.704C24.2762 18.9573 24.5535 18.2213 24.8095 17.496C25.0655 16.7707 25.2682 16.1627 25.4175 15.672C25.5882 15.16 25.6735 14.8507 25.6735 14.744C25.6735 14.5733 25.7162 14.4453 25.8015 14.36C25.8868 14.2747 26.0148 14.232 26.1855 14.232C26.2495 14.168 26.3242 14.1253 26.4095 14.104C26.5162 14.0827 26.6122 14.072 26.6975 14.072C26.6975 14.072 26.7402 14.1147 26.8255 14.2C26.9108 14.2853 27.0388 14.4133 27.2095 14.584C27.3802 14.7333 27.4762 14.904 27.4975 15.096C27.5402 15.288 27.5615 15.512 27.5615 15.768C27.5615 16.0453 27.5295 16.2907 27.4655 16.504C27.4015 16.7173 27.2735 17.0267 27.0815 17.432C26.8895 17.8373 26.5908 18.4667 26.1855 19.32C26.0148 19.7467 25.8335 20.152 25.6415 20.536C25.4495 20.8987 25.3535 21.1227 25.3535 21.208C25.3535 21.2933 25.3108 21.4213 25.2255 21.592C25.1615 21.7627 25.0868 21.976 25.0015 22.232C24.9162 22.4027 24.7988 22.6587 24.6495 23C24.5002 23.32 24.3402 23.672 24.1695 24.056C24.0202 24.4187 23.8922 24.7387 23.7855 25.016C23.6788 25.272 23.6255 25.4213 23.6255 25.464C23.6255 25.5493 23.6148 25.6347 23.5935 25.72C23.5935 25.8053 23.5508 25.8907 23.4655 25.976C23.3802 25.976 23.3268 26.04 23.3055 26.168C23.3055 26.2747 23.3055 26.328 23.3055 26.328C23.3055 26.5413 23.1348 27.1067 22.7935 28.024C22.4522 29.1973 22.1322 30.2747 21.8335 31.256C21.5562 32.2373 21.4175 33.0267 21.4175 33.624C21.4175 34.136 21.4068 34.4773 21.3855 34.648C21.3642 34.7973 21.2682 34.9147 21.0975 35ZM25.8958 33.976C25.7251 33.8053 25.5971 33.592 25.5118 33.336C25.4478 33.08 25.4264 32.824 25.4478 32.568C25.4691 32.312 25.5224 32.0987 25.6078 31.928C25.6078 31.7573 25.6291 31.6293 25.6718 31.544C25.7358 31.4373 25.7571 31.3413 25.7358 31.256C25.7144 31.1707 25.7358 31.0213 25.7998 30.808C25.8638 30.5947 25.9278 30.392 25.9918 30.2C26.1411 29.8587 26.3011 29.4533 26.4718 28.984C26.6424 28.4933 26.8024 28.0133 26.9518 27.544C27.1011 27.0747 27.2291 26.6693 27.3358 26.328C27.4424 25.9867 27.5064 25.7733 27.5278 25.688C27.5278 25.432 27.6984 25.2933 28.0398 25.272C28.2958 25.1867 28.4878 25.1867 28.6158 25.272C28.7438 25.336 28.9144 25.5387 29.1278 25.88C29.2984 26.0507 29.3624 26.3067 29.3198 26.648C29.2771 26.9893 29.1384 27.416 28.9038 27.928C28.8184 28.0987 28.7118 28.344 28.5838 28.664C28.4771 28.984 28.4024 29.272 28.3598 29.528C28.2744 29.6987 28.1678 29.944 28.0398 30.264C27.9331 30.5627 27.8371 30.8507 27.7518 31.128C27.7091 31.2347 27.6664 31.3947 27.6238 31.608C27.5811 31.8 27.5278 32.0133 27.4638 32.248C27.3998 32.4613 27.3144 32.6533 27.2078 32.824C27.0158 33.6987 26.8344 34.2107 26.6638 34.36C26.5144 34.5093 26.2584 34.3813 25.8958 33.976ZM28.9998 20.984C28.8931 20.8773 28.7971 20.728 28.7118 20.536C28.6264 20.3227 28.5731 20.1307 28.5518 19.96C28.5304 19.768 28.5518 19.672 28.6158 19.672C28.7864 19.6507 28.9891 19.4693 29.2238 19.128C29.4584 18.7867 29.5544 18.488 29.5118 18.232C29.5118 18.1467 29.5438 18.072 29.6078 18.008C29.6718 17.9227 29.7464 17.8693 29.8318 17.848C30.0878 17.6773 30.3331 17.656 30.5677 17.784C30.8238 17.8907 31.0584 18.1147 31.2718 18.456C31.4638 18.8613 31.5171 19.2027 31.4318 19.48C31.3464 19.736 31.1118 20.0987 30.7278 20.568C30.4078 20.9947 30.1091 21.2293 29.8318 21.272C29.5758 21.3147 29.2984 21.2187 28.9998 20.984ZM34.7765 33.976C34.5632 34.1253 34.4138 34.2 34.3285 34.2C34.2432 34.1787 34.0832 34.0507 33.8485 33.816C33.4432 33.432 33.1552 32.7067 32.9845 31.64C32.8352 30.552 32.7605 29.0267 32.7605 27.064C32.8458 26.1893 32.8885 25.4427 32.8885 24.824C32.9098 24.2053 32.9205 23.8533 32.9205 23.768C32.9845 23.6827 33.1125 23.64 33.3045 23.64C33.5178 23.64 33.6992 23.6827 33.8485 23.768C34.0618 23.8747 34.2005 24.0347 34.2645 24.248C34.3498 24.4613 34.4032 24.8453 34.4245 25.4C34.4458 25.9333 34.4565 26.7547 34.4565 27.864C34.3925 28.7173 34.3605 29.464 34.3605 30.104C34.3605 30.7227 34.3925 31.0747 34.4565 31.16C34.5418 31.3093 34.6378 31.352 34.7445 31.288C34.8725 31.2027 35.0965 31 35.4165 30.68C35.5872 30.4453 35.8005 30.136 36.0565 29.752C36.3125 29.3467 36.5152 29.0267 36.6645 28.792C36.8992 28.4933 37.1125 28.2053 37.3045 27.928C37.5178 27.6507 37.6672 27.4693 37.7525 27.384C37.8378 27.2133 37.9445 27.0533 38.0725 26.904C38.2005 26.7547 38.3072 26.6053 38.3925 26.456C38.6272 26.0507 38.8725 25.72 39.1285 25.464C39.3845 25.1867 39.5552 25.048 39.6405 25.048C39.7258 25.112 39.8005 25.1333 39.8645 25.112C39.9498 25.0693 40.0352 25.048 40.1205 25.048C40.2698 24.8987 40.4725 24.8987 40.7285 25.048C40.8138 25.112 40.8885 25.1867 40.9525 25.272C41.0165 25.336 41.0485 25.4107 41.0485 25.496C41.0485 25.6027 40.9632 25.8267 40.7925 26.168C40.6432 26.5093 40.4618 26.84 40.2485 27.16C40.0565 27.4587 39.9072 27.64 39.8005 27.704C39.8005 27.704 39.7685 27.736 39.7045 27.8C39.6405 27.864 39.5658 27.9387 39.4805 28.024C39.4378 28.1733 39.2992 28.44 39.0645 28.824C38.8298 29.1867 38.5418 29.6027 38.2005 30.072C37.8592 30.5413 37.5072 31.0107 37.1445 31.48C36.7818 31.9493 36.4618 32.3653 36.1845 32.728C35.9712 33.0267 35.7258 33.2933 35.4485 33.528C35.1712 33.7413 34.9472 33.8907 34.7765 33.976ZM52.9283 35.096C51.9896 35.096 51.2216 34.744 50.6243 34.04C50.0269 33.3147 49.7389 32.4187 49.7603 31.352C49.8029 30.584 49.9523 29.7627 50.2083 28.888C50.4856 27.992 50.8483 27.1387 51.2963 26.328C51.7443 25.496 52.2349 24.7707 52.7683 24.152C53.3016 23.5333 53.8563 23.096 54.4323 22.84C54.6456 22.7333 54.8696 22.648 55.1042 22.584C55.3603 22.52 55.6163 22.488 55.8723 22.488C56.1069 22.488 56.3523 22.5307 56.6083 22.616C56.8643 22.68 57.0776 22.7547 57.2483 22.84C57.6109 22.9893 57.8883 23.1707 58.0803 23.384C58.2723 23.5973 58.4429 23.928 58.5923 24.376C58.6563 24.7813 58.6883 25.0693 58.6883 25.24C58.6883 25.4107 58.6349 25.6667 58.5283 26.008C58.2723 26.776 57.9416 27.4373 57.5363 27.992C57.1309 28.5467 56.5869 29.016 55.9043 29.4C55.7336 29.5067 55.5309 29.592 55.2963 29.656C55.0829 29.6987 54.8589 29.72 54.6243 29.72C54.1976 29.72 53.7816 29.6453 53.3763 29.496C52.9923 29.3253 52.6829 29.08 52.4483 28.76L52.2243 28.504L52.1283 28.76C51.9149 29.336 51.7443 29.8693 51.6163 30.36C51.5096 30.8507 51.4563 31.2987 51.4563 31.704C51.4563 31.96 51.4776 32.2053 51.5203 32.44C51.5843 32.6747 51.6696 32.8773 51.7763 33.048C51.8616 33.176 52.0003 33.272 52.1923 33.336C52.4056 33.3787 52.6296 33.4 52.8643 33.4C53.0136 33.4 53.1629 33.4 53.3123 33.4C53.4829 33.3787 53.6429 33.336 53.7923 33.272C54.1549 33.144 54.4429 33.0053 54.6562 32.856C54.8909 32.7067 55.1256 32.5467 55.3603 32.376L55.4883 32.312H55.4563C55.7123 32.184 55.9363 32.056 56.1283 31.928C56.3416 31.8 56.4483 31.736 56.4483 31.736C56.5336 31.736 56.6189 31.6827 56.7043 31.576C56.8749 31.4907 57.0883 31.5227 57.3443 31.672C57.6216 31.8213 57.7603 32.0133 57.7603 32.248C57.7389 32.3547 57.6429 32.5253 57.4723 32.76C57.3016 32.9733 57.1096 33.176 56.8963 33.368C56.7043 33.56 56.5443 33.6667 56.4163 33.688C56.3949 33.7093 56.3203 33.752 56.1923 33.816C56.0643 33.8587 55.9789 33.9013 55.9363 33.944H55.9683C55.7763 34.2 55.5843 34.328 55.3923 34.328H55.1363C55.0509 34.4773 54.7736 34.648 54.3043 34.84C53.8349 35.0107 53.3763 35.096 52.9283 35.096ZM54.3683 28.056C54.7523 28.056 55.0829 27.9493 55.3603 27.736C55.6589 27.5013 55.9149 27.2453 56.1283 26.968C56.5549 26.392 56.8003 25.8373 56.8643 25.304C56.9496 24.7493 56.8856 24.3653 56.6723 24.152C56.5443 24.088 56.4269 24.056 56.3203 24.056C56.2349 24.0347 56.0536 24.0667 55.7763 24.152C55.5843 24.1947 55.3176 24.3547 54.9763 24.632C54.6349 24.9093 54.2936 25.2187 53.9523 25.56C53.6323 25.9013 53.3869 26.1893 53.2163 26.424L52.8003 27.096C52.9709 27.032 53.1309 27 53.2803 27C53.4509 26.9787 53.5469 26.9893 53.5683 27.032C53.5683 27.224 53.6003 27.4053 53.6643 27.576C53.7496 27.7253 53.8456 27.8427 53.9523 27.928C54.0803 28.0133 54.2189 28.056 54.3683 28.056ZM61.7985 33.592C61.7132 33.592 61.5852 33.5387 61.4145 33.432C61.2652 33.304 61.1478 33.1973 61.0625 33.112C60.9132 32.9413 60.8172 32.7707 60.7745 32.6C60.7532 32.4293 60.7425 32.0453 60.7425 31.448C60.7425 30.7653 60.8812 30.0293 61.1585 29.24C61.4358 28.4293 61.9052 27.2987 62.5665 25.848L63.6225 23.608C63.7078 23.4373 63.7825 23.3093 63.8465 23.224C63.9318 23.1387 64.0065 23.0533 64.0705 22.968C64.1558 22.968 64.2305 22.968 64.2945 22.968C64.3585 22.968 64.3905 22.968 64.3905 22.968C64.5612 22.968 64.7318 23.0747 64.9025 23.288C65.0732 23.48 65.2012 23.6933 65.2865 23.928C65.2865 24.2053 65.2438 24.4933 65.1585 24.792C65.0945 25.0907 64.8385 25.5387 64.3905 26.136C64.2412 26.3707 64.0385 26.7653 63.7825 27.32C63.5478 27.8747 63.3878 28.3547 63.3025 28.76C63.2812 28.7813 63.2385 28.8773 63.1745 29.048C63.1105 29.1973 63.0358 29.368 62.9505 29.56C62.8865 29.752 62.8118 29.9333 62.7265 30.104L62.5665 30.808L64.7105 28.6C65.7132 27.5973 66.5238 26.8827 67.1425 26.456C67.7612 26.0293 68.2518 25.848 68.6145 25.912C68.9772 25.976 69.2865 26.264 69.5425 26.776C69.6918 27.0107 69.7985 27.224 69.8625 27.416C69.9478 27.5867 70.0012 27.8213 70.0225 28.12C70.0438 28.4187 70.0225 28.8667 69.9585 29.464V31.448C70.2785 31.3627 70.5345 31.288 70.7265 31.224C70.9185 31.1387 71.1212 31.0533 71.3345 30.968C71.5265 30.8827 71.7505 30.808 72.0065 30.744C72.2625 30.6587 72.5825 30.6053 72.9665 30.584C72.9452 30.8613 72.8492 31.16 72.6785 31.48C72.5078 31.7787 72.2945 32.0667 72.0385 32.344C71.7825 32.6213 71.4945 32.8453 71.1745 33.016C70.8758 33.1867 70.5772 33.272 70.2785 33.272C70.0012 33.272 69.6918 33.1333 69.3505 32.856C69.0092 32.5787 68.7638 32.2693 68.6145 31.928C68.5292 31.6933 68.4758 31.4373 68.4545 31.16C68.4545 30.8827 68.4545 30.3707 68.4545 29.624V28.44C68.4545 28.0987 68.3478 28.0027 68.1345 28.152C67.9425 28.28 67.7825 28.3973 67.6545 28.504C67.3345 28.7813 66.9932 29.1013 66.6305 29.464C66.2892 29.8267 65.9372 30.2 65.5745 30.584C64.5932 31.608 63.7718 32.3653 63.1105 32.856C62.4705 33.3467 62.0332 33.592 61.7985 33.592ZM90.8028 35.608C90.5254 35.672 90.2908 35.6293 90.0988 35.48C89.9281 35.352 89.8001 35.16 89.7148 34.904C89.5441 34.4133 89.4161 33.88 89.3308 33.304C89.2668 32.7067 89.2561 32.184 89.2988 31.736L89.3628 31.064L88.1148 32.056C87.3894 32.696 86.6854 33.1547 86.0028 33.432C85.3414 33.7093 84.7548 33.848 84.2428 33.848C84.0081 33.8053 83.7734 33.72 83.5388 33.592C83.3041 33.464 83.0908 33.304 82.8988 33.112C82.7281 32.92 82.5894 32.7173 82.4828 32.504C82.3548 32.2053 82.3121 31.8 82.3548 31.288C82.4188 30.776 82.5468 30.2213 82.7388 29.624C82.9521 29.0053 83.2081 28.408 83.5068 27.832C83.8268 27.2347 84.1894 26.712 84.5948 26.264C85.2988 25.1973 86.0561 24.5467 86.8668 24.312C87.6774 24.0773 88.4774 24.1947 89.2668 24.664C89.8214 24.8987 90.1628 25.0053 90.2908 24.984C90.4401 24.9627 90.5681 24.7173 90.6748 24.248C90.7601 23.9067 90.8454 23.5653 90.9308 23.224C91.0161 22.8613 91.1548 22.3813 91.3468 21.784C91.8801 20.1627 92.3388 18.8933 92.7228 17.976C93.1281 17.0587 93.4908 16.2587 93.8108 15.576C94.0454 15.0853 94.2374 14.7867 94.3868 14.68C94.5574 14.552 94.7281 14.4987 94.8988 14.52C95.1334 14.52 95.3468 14.6053 95.5388 14.776C95.7308 14.9467 95.8801 15.1813 95.9868 15.48C96.0721 15.672 96.1041 15.8427 96.0828 15.992C96.0828 16.12 96.0188 16.3013 95.8908 16.536C95.6134 17.048 95.2828 17.7307 94.8988 18.584C94.5361 19.416 94.1628 20.3333 93.7788 21.336C93.4161 22.3387 93.0748 23.3307 92.7548 24.312C92.4348 25.2933 92.1681 26.1573 91.9548 26.904C91.8268 27.3733 91.7094 27.9707 91.6028 28.696C91.5174 29.4213 91.4428 30.168 91.3788 30.936C91.3148 31.6827 91.2721 32.3547 91.2508 32.952C91.2508 33.528 91.2721 33.9013 91.3148 34.072C91.4428 34.4987 91.4961 34.8187 91.4748 35.032C91.4748 35.2453 91.4214 35.384 91.3148 35.448C91.2081 35.5333 91.0374 35.5867 90.8028 35.608ZM85.3948 32.056C85.6934 31.992 85.9814 31.8747 86.2588 31.704C86.5574 31.5333 86.8668 31.3307 87.1868 31.096C87.8268 30.6053 88.3814 30.1573 88.8508 29.752C89.3201 29.3467 89.6294 28.728 89.7788 27.896C89.8214 27.4907 89.7788 27.1707 89.6508 26.936C89.5441 26.68 89.3628 26.4453 89.1068 26.232C88.8508 26.0613 88.4988 25.9973 88.0508 26.04C87.6241 26.0613 87.1761 26.2853 86.7068 26.712C86.1948 27.1813 85.6934 27.8107 85.2028 28.6C84.7334 29.3893 84.3814 30.36 84.1468 31.512C84.1041 31.7253 84.1681 31.896 84.3388 32.024C84.5094 32.152 84.8614 32.1627 85.3948 32.056ZM97.2213 34.232C96.3893 33.8907 95.8453 33.4213 95.5893 32.824C95.3546 32.2053 95.3119 31.256 95.4613 29.976C95.5039 29.3147 95.5253 28.8773 95.5253 28.664C95.5253 28.4507 95.4079 28.2373 95.1733 28.024C95.1093 27.9387 94.9919 27.8213 94.8213 27.672C94.6719 27.5227 94.6079 27.3947 94.6293 27.288C94.6079 27.1387 94.6186 26.9787 94.6613 26.808C94.7039 26.616 94.7679 26.52 94.8533 26.52C94.9386 26.52 95.0239 26.4987 95.1093 26.456C95.2159 26.4133 95.3119 26.4133 95.3973 26.456C95.4826 26.456 95.5786 26.4667 95.6853 26.488C95.7919 26.5093 95.8453 26.5627 95.8453 26.648C95.9306 26.7973 96.0693 26.8187 96.2613 26.712C96.4533 26.584 96.6559 26.3067 96.8693 25.88C97.0826 25.5387 97.3599 25.1973 97.7013 24.856C98.0639 24.5147 98.4159 24.2053 98.7573 23.928C99.1199 23.6293 99.4186 23.416 99.6533 23.288C99.7599 23.2453 99.9199 23.192 100.133 23.128C100.347 23.064 100.571 23.0107 100.805 22.968C101.061 22.9253 101.275 22.9147 101.445 22.936C101.829 22.9573 102.149 23.064 102.405 23.256C102.683 23.448 102.939 23.672 103.173 23.928C103.451 24.12 103.621 24.376 103.685 24.696C103.771 25.016 103.792 25.3573 103.749 25.72C103.707 26.0827 103.611 26.4133 103.461 26.712C103.397 26.9253 103.216 27.1813 102.917 27.48C102.619 27.7787 102.277 28.0667 101.893 28.344C101.509 28.6213 101.157 28.824 100.837 28.952C100.56 29.016 100.197 29.0693 99.7493 29.112C99.3226 29.1547 98.9173 29.176 98.5333 29.176C98.1706 29.1547 97.9253 29.112 97.7973 29.048C97.6479 28.9627 97.5306 29.08 97.4453 29.4C97.3599 29.72 97.2959 30.1787 97.2533 30.776C97.2106 31.2453 97.2106 31.5867 97.2533 31.8C97.2959 32.0133 97.3386 32.1627 97.3813 32.248C97.5306 32.3973 97.7333 32.5893 97.9893 32.824C98.2666 33.0373 98.6506 33.0693 99.1413 32.92C99.5466 32.8133 99.9413 32.536 100.325 32.088C100.731 31.64 101.104 31.2773 101.445 31C101.531 30.8507 101.669 30.7653 101.861 30.744C102.075 30.7013 102.299 30.712 102.533 30.776C102.768 30.9253 102.864 31.1067 102.821 31.32C102.8 31.512 102.693 31.8107 102.501 32.216C102.437 32.3653 102.288 32.5573 102.053 32.792C101.84 33.0053 101.595 33.2293 101.317 33.464C101.061 33.6773 100.827 33.848 100.613 33.976C99.9733 34.3173 99.3759 34.4987 98.8213 34.52C98.2666 34.52 97.7333 34.424 97.2213 34.232ZM99.1093 27.736C99.5786 27.6293 99.9519 27.5547 100.229 27.512C100.507 27.4693 100.773 27.352 101.029 27.16C101.285 26.9467 101.605 26.552 101.989 25.976C102.075 25.7413 102.096 25.5067 102.053 25.272C102.032 25.0373 101.979 24.8773 101.893 24.792C101.701 24.5787 101.467 24.5147 101.189 24.6C100.933 24.664 100.688 24.7813 100.453 24.952C100.304 25.016 100.08 25.176 99.7812 25.432C99.5039 25.6667 99.2266 25.944 98.9493 26.264C98.6719 26.5627 98.4479 26.84 98.2773 27.096C98.1066 27.352 98.0639 27.5013 98.1493 27.544C98.1066 27.6293 98.2239 27.6827 98.5013 27.704C98.7999 27.7253 99.0026 27.736 99.1093 27.736ZM105.9 33.496C105.686 33.368 105.526 33.24 105.42 33.112C105.313 32.984 105.26 32.8027 105.26 32.568C105.26 32.248 105.302 31.9173 105.388 31.576C105.473 31.2133 105.558 30.8613 105.644 30.52C105.686 30.136 105.74 29.752 105.804 29.368C105.889 28.9627 106.038 28.5893 106.252 28.248C106.486 27.4373 106.732 26.6373 106.988 25.848C107.244 25.0373 107.468 24.2053 107.66 23.352C107.937 22.5627 108.182 21.8693 108.396 21.272C108.63 20.6533 108.918 19.8747 109.26 18.936C109.452 18.4027 109.612 17.8373 109.74 17.24C109.889 16.6213 110.113 16.0667 110.411 15.576C110.54 15.384 110.636 15.224 110.7 15.096C110.785 14.9467 110.87 14.808 110.956 14.68C110.977 14.5947 111.041 14.5413 111.148 14.52C111.276 14.4987 111.414 14.5093 111.564 14.552C111.713 14.5947 111.83 14.6693 111.916 14.776C111.98 14.7547 112.054 14.8187 112.14 14.968C112.246 15.096 112.342 15.2453 112.428 15.416C112.513 15.5867 112.545 15.736 112.524 15.864C112.524 15.9493 112.502 16.0667 112.46 16.216C112.438 16.3653 112.385 16.504 112.3 16.632C112.214 16.7173 112.129 16.8453 112.044 17.016C111.98 17.1653 111.873 17.3787 111.724 17.656C111.638 17.9333 111.564 18.2213 111.5 18.52C111.436 18.7973 111.35 19.0533 111.244 19.288C111.158 19.544 111.052 19.7893 110.924 20.024C110.817 20.2587 110.742 20.4507 110.7 20.6C110.55 21.0907 110.369 21.5707 110.156 22.04C109.964 22.5093 109.793 23.0107 109.644 23.544C109.494 24.056 109.345 24.5893 109.196 25.144C109.046 25.6773 108.833 26.1893 108.556 26.68C108.406 26.9147 108.3 27.2133 108.236 27.576C108.172 27.9387 108.108 28.3013 108.044 28.664C107.916 29.048 107.798 29.4107 107.692 29.752C107.606 30.072 107.564 30.2747 107.564 30.36C107.436 30.8293 107.34 31.2987 107.276 31.768C107.233 32.216 107.126 32.6107 106.956 32.952C106.934 33.1653 106.892 33.336 106.828 33.464C106.764 33.592 106.657 33.6667 106.508 33.688C106.358 33.688 106.156 33.624 105.9 33.496ZM118.768 33.848C118.682 33.6773 118.576 33.5493 118.448 33.464C118.32 33.3573 118.256 33.2613 118.256 33.176C118.256 33.0907 118.245 33.0053 118.224 32.92C118.224 32.8133 118.181 32.7173 118.096 32.632C117.989 32.504 118 32.216 118.128 31.768C118.256 31.2987 118.469 30.7333 118.768 30.072C119.066 29.3893 119.418 28.6747 119.824 27.928C119.994 27.7573 120.165 27.5333 120.336 27.256C120.506 26.9787 120.634 26.7973 120.72 26.712C120.72 26.6267 120.752 26.552 120.816 26.488C120.88 26.4027 120.954 26.36 121.04 26.36V26.168C121.04 26.0613 121.136 25.88 121.328 25.624C121.541 25.368 121.797 25.0907 122.096 24.792C122.394 24.472 122.704 24.1733 123.024 23.896C123.344 23.5973 123.61 23.384 123.824 23.256C124.272 22.9573 124.73 22.776 125.2 22.712C125.69 22.648 126.106 22.7547 126.448 23.032C126.512 23.096 126.618 23.2027 126.768 23.352C126.917 23.5013 127.088 23.672 127.28 23.864C127.493 24.0347 127.706 24.216 127.92 24.408L129.104 25.464L128.528 27.064C128.25 27.9173 128.176 28.664 128.304 29.304C128.453 29.944 128.666 30.4987 128.944 30.968C129.05 31.2027 129.264 31.4267 129.584 31.64C129.925 31.8533 130.245 31.9813 130.544 32.024C130.714 32.0453 130.874 32.1093 131.024 32.216C131.173 32.3227 131.248 32.4933 131.248 32.728C131.248 32.9413 131.205 33.112 131.12 33.24C131.034 33.368 130.885 33.4533 130.672 33.496C129.968 33.5813 129.306 33.4107 128.688 32.984C128.09 32.5573 127.536 31.8533 127.024 30.872C126.938 30.744 126.821 30.5093 126.672 30.168C126.544 29.8053 126.469 29.5707 126.448 29.464C126.362 29.5707 126.202 29.7733 125.968 30.072C125.733 30.3493 125.552 30.552 125.424 30.68C123.909 32.216 122.597 33.2507 121.488 33.784C120.4 34.296 119.493 34.3173 118.768 33.848ZM119.92 32.056C119.92 32.2053 120.144 32.2053 120.592 32.056C121.061 31.8853 121.562 31.5867 122.096 31.16C122.821 30.5413 123.546 29.8587 124.272 29.112C125.018 28.3653 125.616 27.672 126.064 27.032L126.768 25.88C126.554 25.3893 126.32 25.0587 126.064 24.888C125.829 24.696 125.626 24.6 125.456 24.6C125.178 24.6 124.762 24.856 124.208 25.368C123.674 25.88 123.098 26.5627 122.48 27.416C121.861 28.2693 121.274 29.208 120.72 30.232C120.506 30.6587 120.314 31.0747 120.144 31.48C119.994 31.864 119.92 32.056 119.92 32.056ZM134.337 38.2C134.187 38.1573 134.027 38.072 133.857 37.944C133.686 37.8373 133.601 37.7413 133.601 37.656C133.622 37.5067 133.654 37.368 133.697 37.24C133.739 37.1333 133.771 37.0267 133.793 36.92C133.835 36.7067 133.857 36.4507 133.857 36.152C133.857 35.8747 133.889 35.3413 133.953 34.552C134.017 33.6987 134.07 32.984 134.113 32.408C134.177 31.832 134.241 31.32 134.305 30.872C134.369 30.4027 134.443 29.9333 134.529 29.464C134.635 28.9947 134.763 28.44 134.913 27.8C135.019 27.0747 135.019 26.6267 134.913 26.456C134.827 26.2853 134.667 26.1893 134.433 26.168C134.027 26.1253 133.665 26.0613 133.345 25.976C133.046 25.8693 132.854 25.688 132.769 25.432C132.555 25.2187 132.502 25.048 132.609 24.92C132.715 24.792 132.929 24.696 133.249 24.632C133.59 24.5467 133.953 24.5147 134.337 24.536C134.699 24.5147 134.977 24.4933 135.169 24.472C135.382 24.4293 135.553 24.3227 135.681 24.152C135.809 23.96 135.937 23.64 136.065 23.192C136.107 23 136.182 22.7333 136.289 22.392C136.417 22.0507 136.523 21.7413 136.609 21.464C136.715 21.1867 136.769 21.048 136.769 21.048C136.961 20.8987 137.057 20.7067 137.057 20.472C137.078 20.1733 137.217 19.7787 137.473 19.288C137.75 18.776 138.187 18.0613 138.785 17.144C139.51 16.2053 140.161 15.4693 140.737 14.936C141.334 14.4027 142.027 14.072 142.817 13.944C142.902 13.9013 143.094 13.88 143.393 13.88C143.691 13.88 143.894 13.88 144.001 13.88C144.449 13.9013 144.758 13.9867 144.929 14.136C145.099 14.2853 145.281 14.5413 145.472 14.904C145.643 15.1813 145.665 15.5653 145.537 16.056C145.43 16.5253 145.291 16.888 145.121 17.144C145.014 17.3147 144.854 17.5067 144.641 17.72C144.449 17.9333 144.257 18.1253 144.065 18.296C143.894 18.4453 143.766 18.52 143.681 18.52C143.574 18.52 143.467 18.488 143.361 18.424C143.275 18.3387 143.19 18.2853 143.105 18.264C142.913 18.1787 142.881 18.0293 143.009 17.816C143.137 17.5813 143.275 17.3573 143.425 17.144C143.638 16.824 143.777 16.568 143.841 16.376C143.905 16.184 143.926 16.0133 143.905 15.864C143.883 15.7147 143.841 15.5333 143.777 15.32L144.065 15.608C143.915 15.5227 143.745 15.4907 143.553 15.512C143.361 15.5333 143.147 15.5867 142.913 15.672C142.507 15.8853 142.177 16.12 141.921 16.376C141.665 16.6107 141.451 16.8133 141.281 16.984C140.769 17.432 140.353 17.976 140.033 18.616C139.713 19.256 139.414 19.8533 139.137 20.408C139.051 20.5787 138.902 20.8987 138.689 21.368C138.497 21.816 138.315 22.2427 138.145 22.648C137.995 23.032 137.846 23.3733 137.697 23.672C137.547 23.9493 137.473 24.12 137.473 24.184C137.409 24.3333 137.441 24.408 137.569 24.408C137.718 24.408 138.006 24.3973 138.433 24.376C139.478 24.248 140.257 24.216 140.769 24.28C141.302 24.3227 141.611 24.5147 141.697 24.856C142.059 25.368 142.006 25.688 141.537 25.816C141.089 25.9227 140.257 26.0613 139.041 26.232C138.699 26.2533 138.358 26.2747 138.017 26.296C137.675 26.296 137.451 26.3067 137.345 26.328C137.259 26.3493 137.174 26.3813 137.089 26.424C137.003 26.4667 136.907 26.68 136.801 27.064C136.779 27.2987 136.737 27.5867 136.673 27.928C136.63 28.248 136.598 28.5573 136.577 28.856C136.491 29.112 136.427 29.3787 136.385 29.656C136.363 29.9333 136.299 30.1787 136.193 30.392C136.065 31.5653 135.979 32.6533 135.937 33.656C135.894 34.6373 135.83 35.48 135.745 36.184C135.681 36.888 135.51 37.432 135.233 37.816C135.083 37.9867 134.923 38.1147 134.753 38.2C134.603 38.3067 134.465 38.3067 134.337 38.2ZM152.935 41.112C152.338 41.3467 151.708 41.304 151.047 40.984C150.407 40.6853 149.852 40.2053 149.383 39.544C149.298 39.416 149.191 39.2133 149.063 38.936C148.956 38.68 148.85 38.4133 148.743 38.136C148.658 37.8587 148.604 37.6133 148.583 37.4C148.562 37.1867 148.583 37.0587 148.647 37.016C148.711 36.952 148.818 36.9307 148.967 36.952C149.116 36.9733 149.255 37.0267 149.383 37.112C149.532 37.1973 149.628 37.304 149.671 37.432C149.735 37.5813 149.831 37.7733 149.959 38.008C150.108 38.2427 150.268 38.456 150.439 38.648C150.61 38.84 150.738 38.9467 150.823 38.968C151.228 39.16 151.527 39.2453 151.719 39.224C151.911 39.2027 152.082 39.1387 152.231 39.032C152.594 38.7547 152.892 38.392 153.127 37.944C153.362 37.496 153.628 36.8027 153.927 35.864C154.162 35.0747 154.396 34.2427 154.631 33.368C154.887 32.472 155.111 31.7787 155.303 31.288C155.367 31.032 155.442 30.8187 155.527 30.648C155.634 30.456 155.73 30.3173 155.815 30.232H156.007C155.538 30.5307 155.122 30.872 154.759 31.256C154.396 31.64 153.938 31.9493 153.383 32.184C153.255 32.3333 152.935 32.4293 152.423 32.472C151.932 32.4933 151.452 32.4293 150.983 32.28C150.684 32.1093 150.46 31.9813 150.311 31.896C150.183 31.8107 150.076 31.6933 149.991 31.544C149.927 31.3947 149.831 31.16 149.703 30.84C149.554 30.52 149.532 29.9973 149.639 29.272C149.746 28.5467 149.938 27.8213 150.215 27.096C150.471 26.5627 150.844 25.9867 151.335 25.368C151.826 24.7493 152.348 24.1947 152.903 23.704C153.458 23.192 153.959 22.872 154.407 22.744C154.578 22.6587 154.759 22.6053 154.951 22.584C155.164 22.5413 155.463 22.5733 155.847 22.68C156.21 22.7227 156.487 22.808 156.679 22.936C156.871 23.0427 157.18 23.2773 157.607 23.64C157.884 23.9173 158.108 24.1947 158.279 24.472C158.471 24.7493 158.62 25.0373 158.727 25.336C158.876 25.656 158.93 25.9547 158.887 26.232C158.866 26.488 158.748 26.7547 158.535 27.032C158.343 27.3093 158.14 27.5867 157.927 27.864C157.714 28.1413 157.554 28.5253 157.447 29.016C157.34 29.656 157.17 30.3813 156.935 31.192C156.7 31.9813 156.498 32.7173 156.327 33.4L155.815 35.384C155.282 37.1973 154.77 38.5413 154.279 39.416C153.81 40.312 153.362 40.8773 152.935 41.112ZM151.783 30.872C152.21 30.8507 152.615 30.7653 152.999 30.616C153.383 30.4667 153.756 30.2213 154.119 29.88C154.482 29.5173 154.844 29.0587 155.207 28.504C155.57 27.992 155.826 27.4587 155.975 26.904C156.124 26.328 156.178 25.7733 156.135 25.24C156.114 24.8987 156.06 24.6747 155.975 24.568C155.89 24.4613 155.708 24.4293 155.431 24.472C155.026 24.536 154.578 24.76 154.087 25.144C153.596 25.5067 153.138 25.9653 152.711 26.52C152.391 26.9467 152.124 27.4587 151.911 28.056C151.698 28.696 151.57 29.304 151.527 29.88C151.484 30.456 151.57 30.7867 151.783 30.872ZM162.902 34.008C162.838 34.0293 162.731 34.0187 162.582 33.976C162.433 33.9333 162.283 33.88 162.134 33.816C161.985 33.752 161.889 33.6987 161.846 33.656C161.761 33.5707 161.675 33.4427 161.59 33.272C161.526 33.1013 161.526 32.856 161.59 32.536C161.654 32.1947 161.867 31.7573 162.23 31.224C162.337 31.0107 162.465 30.6907 162.614 30.264C162.763 29.8373 162.913 29.3893 163.062 28.92C163.233 28.4293 163.382 27.992 163.51 27.608C163.659 27.224 163.766 26.9573 163.83 26.808C163.873 26.4453 163.851 26.1893 163.766 26.04C163.702 25.8693 163.521 25.7733 163.222 25.752C163.009 25.752 162.838 25.7307 162.71 25.688C162.603 25.6453 162.55 25.432 162.55 25.048C162.593 24.7493 162.667 24.5467 162.774 24.44C162.902 24.312 163.073 24.1733 163.286 24.024C163.499 23.9173 163.713 23.8427 163.926 23.8C164.161 23.7573 164.385 23.7467 164.598 23.768C164.811 23.7893 164.982 23.864 165.11 23.992C165.259 24.0773 165.355 24.2693 165.398 24.568C165.441 24.8453 165.462 25.1333 165.462 25.432C165.483 25.7307 165.505 25.9547 165.526 26.104C165.739 25.9333 166.027 25.6987 166.39 25.4C166.774 25.08 167.105 24.7813 167.382 24.504C167.723 24.2693 168.129 24.0347 168.598 23.8C169.067 23.544 169.409 23.416 169.622 23.416C169.857 23.416 170.091 23.48 170.326 23.608C170.561 23.7147 170.721 23.8533 170.806 24.024C171.019 24.3867 171.115 24.7067 171.094 24.984C171.094 25.2613 170.977 25.5493 170.742 25.848C170.529 26.1253 170.262 26.3173 169.942 26.424C169.643 26.5307 169.451 26.584 169.366 26.584C169.238 26.584 169.078 26.488 168.886 26.296C168.694 26.104 168.587 25.944 168.566 25.816C168.566 25.752 168.427 25.816 168.15 26.008C167.894 26.1787 167.606 26.4027 167.286 26.68C166.966 26.936 166.699 27.1707 166.486 27.384C166.123 27.832 165.739 28.44 165.334 29.208C164.929 29.976 164.449 30.904 163.894 31.992C163.638 32.5253 163.457 32.984 163.35 33.368C163.243 33.7307 163.094 33.944 162.902 34.008ZM180.001 34.936C179.852 35.0213 179.649 34.9893 179.393 34.84C179.159 34.6907 178.924 34.4667 178.689 34.168C178.54 33.912 178.433 33.6347 178.369 33.336C178.327 33.0373 178.305 32.6213 178.305 32.088C178.327 31.6613 178.305 31.384 178.241 31.256C178.199 31.128 178.081 31.1493 177.889 31.32C177.697 31.4693 177.367 31.7787 176.897 32.248C176.364 32.7813 175.852 33.1973 175.361 33.496C174.892 33.7947 174.508 33.9333 174.209 33.912C174.06 33.912 173.889 33.8373 173.697 33.688C173.527 33.5173 173.367 33.3147 173.217 33.08C173.068 32.824 172.94 32.568 172.833 32.312C172.705 31.8427 172.684 31.2453 172.769 30.52C172.876 29.7733 173.047 28.9947 173.281 28.184C173.516 27.3733 173.783 26.6053 174.081 25.88C174.401 25.1547 174.721 24.568 175.041 24.12C175.383 23.672 175.681 23.448 175.937 23.448C176.108 23.448 176.257 23.5333 176.385 23.704C176.535 23.8747 176.684 24.1413 176.833 24.504C176.919 24.6533 176.951 24.7813 176.929 24.888C176.929 24.9947 176.844 25.1227 176.673 25.272C176.481 25.528 176.257 25.912 176.001 26.424C175.767 26.936 175.532 27.4907 175.297 28.088C175.084 28.6853 174.892 29.2613 174.721 29.816C174.551 30.3707 174.433 30.8293 174.369 31.192C174.305 31.5333 174.316 31.704 174.401 31.704C174.7 31.704 175.052 31.5867 175.457 31.352C175.884 31.096 176.289 30.7867 176.673 30.424C177.121 29.976 177.516 29.4853 177.857 28.952C178.22 28.4187 178.583 27.8533 178.945 27.256C179.223 26.8293 179.511 26.36 179.809 25.848C180.129 25.336 180.332 24.9733 180.417 24.76C180.716 24.2053 180.94 23.832 181.089 23.64C181.239 23.4267 181.42 23.288 181.633 23.224C181.74 23.224 181.836 23.224 181.921 23.224C182.028 23.224 182.081 23.224 182.081 23.224C182.209 23.2453 182.359 23.3413 182.529 23.512C182.7 23.5973 182.796 23.6827 182.817 23.768C182.839 23.832 182.849 23.9173 182.849 24.024C182.764 24.2373 182.625 24.5573 182.433 24.984C182.263 25.3893 182.135 25.688 182.049 25.88C181.644 26.7973 181.239 27.704 180.833 28.6C180.449 29.4747 180.172 30.3707 180.001 31.288C179.959 31.5867 179.948 31.9387 179.969 32.344C180.012 32.728 180.076 33.0053 180.161 33.176C180.225 33.304 180.3 33.4533 180.385 33.624C180.492 33.7733 180.609 33.9013 180.737 34.008C180.929 34.136 180.961 34.2747 180.833 34.424C180.727 34.5733 180.577 34.7013 180.385 34.808C180.193 34.8933 180.065 34.936 180.001 34.936ZM182.917 42.136C182.768 42.072 182.608 41.9653 182.437 41.816C182.266 41.6667 182.128 41.496 182.021 41.304C181.914 41.1333 181.861 40.984 181.861 40.856C181.861 40.728 181.914 40.3867 182.021 39.832C182.128 39.2987 182.266 38.6373 182.437 37.848C182.629 37.08 182.832 36.2907 183.045 35.48C183.28 34.6907 183.514 33.9867 183.749 33.368C183.792 33.2613 183.93 32.9093 184.165 32.312C184.421 31.6933 184.666 30.9467 184.901 30.072C185.072 29.5173 185.296 28.888 185.573 28.184C185.85 27.48 186.138 26.776 186.437 26.072C186.736 25.3467 186.981 24.7067 187.173 24.152C187.365 23.5973 187.525 23.1493 187.653 22.808C187.802 22.4453 187.888 22.2213 187.909 22.136C187.952 22.008 188.016 21.9013 188.101 21.816C188.208 21.7093 188.314 21.624 188.421 21.56C188.528 21.4747 188.613 21.4213 188.677 21.4C189.061 21.2933 189.392 21.4533 189.669 21.88C189.776 22.072 189.797 22.296 189.733 22.552C189.669 22.808 189.552 23.128 189.381 23.512L189.157 24.152L190.309 23.896C190.501 23.896 190.736 23.9067 191.013 23.928C191.312 23.928 191.6 23.928 191.877 23.928C192.154 23.928 192.357 23.9493 192.485 23.992C192.997 24.0133 193.349 24.1093 193.541 24.28C193.754 24.4507 193.936 24.6747 194.085 24.952C194.192 25.0587 194.32 25.208 194.469 25.4C194.618 25.5707 194.704 25.7413 194.725 25.912C194.81 26.2747 194.81 26.6693 194.725 27.096C194.661 27.5013 194.533 27.9067 194.341 28.312C194.17 28.7173 193.936 29.0907 193.637 29.432C193.36 29.752 193.061 30.0187 192.741 30.232C192.528 30.3173 192.336 30.4133 192.165 30.52C191.994 30.6053 191.909 30.648 191.909 30.648C191.888 30.7547 191.653 30.9253 191.205 31.16C190.757 31.3733 190.245 31.576 189.669 31.768C189.093 31.96 188.592 32.088 188.165 32.152C188.016 32.1733 187.802 32.1947 187.525 32.216C187.248 32.2373 187.034 32.2053 186.885 32.12C186.65 32.0773 186.49 32.056 186.405 32.056C186.32 32.056 186.277 32.0987 186.277 32.184C186.256 32.2267 186.106 32.6747 185.829 33.528C185.552 34.3813 185.264 35.3733 184.965 36.504C184.56 37.7413 184.229 38.7227 183.973 39.448C183.717 40.1947 183.514 40.7493 183.365 41.112C183.237 41.4747 183.141 41.72 183.077 41.848C183.013 41.9973 182.96 42.0933 182.917 42.136ZM186.917 30.328C186.981 30.456 187.184 30.4987 187.525 30.456C187.888 30.392 188.314 30.264 188.805 30.072C189.317 29.8587 189.818 29.624 190.309 29.368C190.8 29.0907 191.205 28.8133 191.525 28.536C191.994 28.0027 192.378 27.512 192.677 27.064C192.976 26.5947 193.018 26.2853 192.805 26.136C192.57 25.7947 192.133 25.6347 191.493 25.656C190.853 25.6773 190.064 25.944 189.125 26.456C188.762 26.584 188.485 26.7547 188.293 26.968C188.122 27.16 187.973 27.4053 187.845 27.704C187.717 28.0027 187.557 28.3653 187.365 28.792C187.173 29.2613 187.045 29.6133 186.981 29.848C186.917 30.0827 186.896 30.2427 186.917 30.328ZM195.171 42.168C195.085 42.168 194.979 42.168 194.851 42.168C194.723 42.1893 194.605 42.104 194.499 41.912C194.413 41.8053 194.36 41.6453 194.339 41.432C194.339 41.2187 194.392 40.8347 194.499 40.28C194.605 39.9173 194.691 39.5547 194.755 39.192C194.819 38.8507 194.851 38.5947 194.851 38.424C194.851 38.3387 194.872 38.168 194.915 37.912C194.979 37.6773 195.011 37.5067 195.011 37.4C195.117 37.2293 195.203 36.9947 195.267 36.696C195.331 36.3973 195.363 36.1307 195.363 35.896C195.363 35.64 195.491 35.4053 195.747 35.192C195.747 35.0213 195.779 34.808 195.843 34.552C195.928 34.296 195.971 34.1253 195.971 34.04C196.035 33.7413 196.173 33.2187 196.387 32.472C196.621 31.704 196.899 30.84 197.219 29.88C197.56 28.92 197.891 27.9813 198.211 27.064C198.531 26.1467 198.819 25.368 199.075 24.728C199.331 24.1307 199.501 23.6187 199.587 23.192C199.693 22.744 199.747 22.4133 199.747 22.2C199.747 22.1147 199.768 22.0507 199.811 22.008C199.853 21.944 199.949 21.8267 200.099 21.656C200.312 21.4427 200.493 21.3787 200.643 21.464C200.813 21.5493 201.016 21.6773 201.251 21.848C201.421 22.1253 201.539 22.36 201.603 22.552C201.688 22.744 201.688 23.0747 201.603 23.544C201.603 23.864 201.549 24.1413 201.443 24.376C201.336 24.6107 201.24 24.792 201.155 24.92C201.069 25.0267 201.048 25.0693 201.091 25.048C201.965 24.6427 202.733 24.4293 203.395 24.408C204.077 24.3653 204.643 24.4827 205.091 24.76C205.56 25.016 205.912 25.3787 206.147 25.848C206.381 26.3173 206.499 26.8613 206.499 27.48C206.499 27.736 206.445 28.0453 206.339 28.408C206.232 28.7493 206.093 29.0693 205.923 29.368C205.773 29.6453 205.635 29.848 205.507 29.976C205.421 29.976 205.336 30.0507 205.251 30.2C205.165 30.328 205.08 30.4773 204.995 30.648C204.824 30.8613 204.547 31.1067 204.163 31.384C203.8 31.64 203.437 31.8533 203.075 32.024C202.712 32.1733 202.445 32.216 202.275 32.152C202.275 32.152 202.243 32.1627 202.179 32.184C202.136 32.184 202.115 32.2373 202.115 32.344C202.115 32.3867 201.944 32.4827 201.603 32.632C201.261 32.76 200.867 32.888 200.419 33.016C199.971 33.1227 199.576 33.176 199.235 33.176C198.787 33.176 198.467 33.0907 198.275 32.92C198.232 32.9627 198.179 33.0267 198.115 33.112C198.072 33.1973 198.051 33.272 198.051 33.336C198.051 33.464 197.997 33.7093 197.891 34.072C197.805 34.4133 197.699 34.744 197.571 35.064C197.443 35.384 197.325 35.544 197.219 35.544C197.219 35.544 197.197 35.576 197.155 35.64C197.112 35.704 197.133 35.7893 197.219 35.896C197.219 35.896 197.208 36.0133 197.187 36.248C197.187 36.504 197.133 36.7173 197.027 36.888C197.027 37.0587 196.995 37.3147 196.931 37.656C196.867 37.9973 196.792 38.2533 196.707 38.424C196.707 38.68 196.664 38.9253 196.579 39.16C196.515 39.416 196.44 39.544 196.355 39.544C196.269 39.5653 196.216 39.6933 196.195 39.928C196.173 40.184 196.163 40.3653 196.163 40.472C196.141 41.0053 196.035 41.4213 195.843 41.72C195.651 42.0187 195.427 42.168 195.171 42.168ZM199.043 31.48C199.213 31.48 199.565 31.4053 200.099 31.256C200.632 31.1067 201.176 30.9253 201.731 30.712C202.307 30.4773 202.733 30.2427 203.011 30.008C203.565 29.5173 203.992 28.9627 204.291 28.344C204.611 27.704 204.589 27.096 204.227 26.52C204.056 26.2213 203.747 26.104 203.299 26.168C202.851 26.2107 202.36 26.3813 201.827 26.68C201.293 26.9787 200.792 27.352 200.323 27.8C200.067 28.0773 199.832 28.4187 199.619 28.824C199.405 29.2293 199.224 29.6347 199.075 30.04C198.947 30.4453 198.872 30.7867 198.851 31.064C198.829 31.3413 198.893 31.48 199.043 31.48ZM210.753 34.232C209.921 33.8907 209.377 33.4213 209.121 32.824C208.886 32.2053 208.843 31.256 208.993 29.976C209.035 29.3147 209.057 28.8773 209.057 28.664C209.057 28.4507 208.939 28.2373 208.705 28.024C208.641 27.9387 208.523 27.8213 208.353 27.672C208.203 27.5227 208.139 27.3947 208.161 27.288C208.139 27.1387 208.15 26.9787 208.193 26.808C208.235 26.616 208.299 26.52 208.385 26.52C208.47 26.52 208.555 26.4987 208.641 26.456C208.747 26.4133 208.843 26.4133 208.929 26.456C209.014 26.456 209.11 26.4667 209.217 26.488C209.323 26.5093 209.377 26.5627 209.377 26.648C209.462 26.7973 209.601 26.8187 209.793 26.712C209.985 26.584 210.187 26.3067 210.401 25.88C210.614 25.5387 210.891 25.1973 211.233 24.856C211.595 24.5147 211.947 24.2053 212.289 23.928C212.651 23.6293 212.95 23.416 213.185 23.288C213.291 23.2453 213.451 23.192 213.665 23.128C213.878 23.064 214.102 23.0107 214.337 22.968C214.593 22.9253 214.806 22.9147 214.977 22.936C215.361 22.9573 215.681 23.064 215.937 23.256C216.214 23.448 216.47 23.672 216.705 23.928C216.982 24.12 217.153 24.376 217.217 24.696C217.302 25.016 217.323 25.3573 217.281 25.72C217.238 26.0827 217.142 26.4133 216.993 26.712C216.929 26.9253 216.747 27.1813 216.449 27.48C216.15 27.7787 215.809 28.0667 215.425 28.344C215.041 28.6213 214.689 28.824 214.369 28.952C214.091 29.016 213.729 29.0693 213.281 29.112C212.854 29.1547 212.449 29.176 212.065 29.176C211.702 29.1547 211.457 29.112 211.329 29.048C211.179 28.9627 211.062 29.08 210.977 29.4C210.891 29.72 210.827 30.1787 210.785 30.776C210.742 31.2453 210.742 31.5867 210.785 31.8C210.827 32.0133 210.87 32.1627 210.913 32.248C211.062 32.3973 211.265 32.5893 211.521 32.824C211.798 33.0373 212.182 33.0693 212.673 32.92C213.078 32.8133 213.473 32.536 213.857 32.088C214.262 31.64 214.635 31.2773 214.977 31C215.062 30.8507 215.201 30.7653 215.393 30.744C215.606 30.7013 215.83 30.712 216.065 30.776C216.299 30.9253 216.395 31.1067 216.353 31.32C216.331 31.512 216.225 31.8107 216.033 32.216C215.969 32.3653 215.819 32.5573 215.585 32.792C215.371 33.0053 215.126 33.2293 214.849 33.464C214.593 33.6773 214.358 33.848 214.145 33.976C213.505 34.3173 212.907 34.4987 212.353 34.52C211.798 34.52 211.265 34.424 210.753 34.232ZM212.641 27.736C213.11 27.6293 213.483 27.5547 213.76 27.512C214.038 27.4693 214.305 27.352 214.561 27.16C214.817 26.9467 215.137 26.552 215.521 25.976C215.606 25.7413 215.627 25.5067 215.585 25.272C215.563 25.0373 215.51 24.8773 215.425 24.792C215.233 24.5787 214.998 24.5147 214.72 24.6C214.465 24.664 214.219 24.7813 213.985 24.952C213.835 25.016 213.611 25.176 213.312 25.432C213.035 25.6667 212.758 25.944 212.481 26.264C212.203 26.5627 211.979 26.84 211.809 27.096C211.638 27.352 211.595 27.5013 211.681 27.544C211.638 27.6293 211.755 27.6827 212.033 27.704C212.331 27.7253 212.534 27.736 212.641 27.736ZM228.839 34.616C228.625 34.616 228.401 34.4987 228.167 34.264C227.953 34.0293 227.761 33.7413 227.591 33.4C227.441 33.0373 227.367 32.696 227.367 32.376C227.367 32.056 227.441 31.4587 227.591 30.584C227.761 29.7093 227.964 28.824 228.199 27.928C228.369 27.3733 228.423 27.0533 228.359 26.968C228.295 26.8827 228.007 27 227.495 27.32C227.196 27.4693 226.929 27.6293 226.695 27.8C226.46 27.9493 226.257 28.12 226.087 28.312C225.98 28.3973 225.82 28.536 225.607 28.728C225.393 28.92 225.169 29.1013 224.935 29.272C224.657 29.4853 224.305 29.784 223.879 30.168C223.452 30.552 223.025 30.936 222.599 31.32C222.193 31.704 221.884 32.0027 221.671 32.216C221.628 32.3013 221.564 32.376 221.479 32.44C221.393 32.504 221.297 32.5467 221.191 32.568C221.084 32.568 220.967 32.5467 220.839 32.504C220.604 32.44 220.38 32.3013 220.167 32.088C219.975 31.8747 219.879 31.6293 219.879 31.352C219.879 31.1387 219.964 30.776 220.135 30.264C220.305 29.7307 220.529 29.0907 220.807 28.344C221.105 27.5973 221.447 26.808 221.831 25.976C221.895 25.8693 221.948 25.7413 221.991 25.592C222.033 25.4213 222.065 25.24 222.087 25.048C222.129 24.856 222.151 24.6747 222.151 24.504C222.151 24.3973 222.161 24.2907 222.183 24.184C222.225 24.056 222.268 23.9387 222.311 23.832C222.375 23.704 222.428 23.6187 222.471 23.576C222.556 23.4053 222.705 23.3627 222.919 23.448C223.132 23.512 223.313 23.6613 223.463 23.896C223.783 24.1947 223.943 24.568 223.943 25.016C223.964 25.464 223.857 26.0187 223.623 26.68C223.537 26.8293 223.463 26.9787 223.399 27.128C223.356 27.256 223.313 27.3733 223.271 27.48C223.228 27.5653 223.196 27.64 223.175 27.704C223.153 27.7467 223.143 27.768 223.143 27.768C223.228 27.768 223.42 27.672 223.719 27.48C224.017 27.288 224.369 27.0747 224.775 26.84C225.095 26.6053 225.372 26.392 225.607 26.2C225.863 25.9867 226.076 25.8267 226.247 25.72C226.417 25.592 226.524 25.528 226.567 25.528C226.652 25.528 226.759 25.496 226.887 25.432C227.015 25.368 227.121 25.2933 227.207 25.208C227.292 25.1227 227.356 25.08 227.399 25.08C227.463 25.0587 227.495 25.048 227.495 25.048C227.495 25.048 227.537 25.048 227.623 25.048C227.708 25.0267 227.793 24.9733 227.879 24.888C228.049 24.76 228.273 24.728 228.551 24.792C228.828 24.8347 229.084 24.9413 229.319 25.112C229.553 25.2827 229.671 25.4747 229.671 25.688C229.671 25.7733 229.692 25.848 229.735 25.912C229.799 25.9547 229.831 25.976 229.831 25.976C230.001 25.976 230.108 26.2427 230.151 26.776C230.215 27.3093 230.161 27.8213 229.991 28.312C229.991 28.632 229.927 29.016 229.799 29.464C229.692 29.912 229.596 30.3387 229.511 30.744C229.34 31.2773 229.223 31.7467 229.159 32.152C229.095 32.5573 229.084 32.8987 229.127 33.176C229.169 33.4533 229.244 33.6773 229.351 33.848C229.436 33.9973 229.436 34.168 229.351 34.36C229.265 34.5307 229.095 34.616 228.839 34.616ZM236.429 29.56C235.832 29.6667 235.437 29.3787 235.245 28.696C235.053 28.0133 235.106 27.0747 235.405 25.88C235.533 25.624 235.64 25.3787 235.725 25.144C235.81 24.888 235.853 24.6853 235.853 24.536C235.938 24.2587 236.045 23.9387 236.173 23.576C236.322 23.192 236.472 22.84 236.621 22.52C236.77 22.1787 236.877 21.9547 236.941 21.848C237.026 21.848 237.112 21.7733 237.197 21.624C237.304 21.4747 237.357 21.3253 237.357 21.176C237.357 21.0053 237.389 20.8133 237.453 20.6C237.538 20.3867 237.624 20.2373 237.709 20.152C237.709 20.0453 237.752 19.928 237.837 19.8C237.922 19.672 237.965 19.5653 237.965 19.48C237.965 19.3947 237.986 19.32 238.029 19.256C238.093 19.192 238.125 19.1173 238.125 19.032C238.317 18.6907 238.562 18.1893 238.861 17.528C239.181 16.8453 239.49 16.1307 239.789 15.384C240.109 14.6373 240.376 13.976 240.589 13.4C240.802 12.824 240.909 12.472 240.909 12.344C240.952 12.1733 241.016 12.0453 241.101 11.96C241.186 11.8747 241.314 11.8533 241.485 11.896C241.57 11.832 241.656 11.8 241.741 11.8C241.826 11.7787 241.912 11.768 241.997 11.768C241.997 11.768 242.029 11.8107 242.093 11.896C242.178 11.9813 242.296 12.1093 242.445 12.28C242.616 12.4293 242.712 12.6 242.733 12.792C242.754 12.984 242.765 13.208 242.765 13.464C242.744 13.8693 242.594 14.328 242.317 14.84C242.04 15.352 241.73 15.9173 241.389 16.536C241.176 16.9413 240.962 17.3253 240.749 17.688C240.557 18.0507 240.461 18.2747 240.461 18.36C240.461 18.4453 240.418 18.5733 240.333 18.744C240.248 18.9147 240.152 19.128 240.045 19.384C239.917 19.5973 239.778 19.8533 239.629 20.152C239.48 20.4507 239.341 20.728 239.213 20.984C239.106 21.2187 239.053 21.368 239.053 21.432C239.032 21.5173 239 21.6027 238.957 21.688C238.936 21.7733 238.882 21.8587 238.797 21.944C238.712 21.944 238.658 22.008 238.637 22.136C238.637 22.2427 238.637 22.296 238.637 22.296C238.637 22.3813 238.584 22.584 238.477 22.904C238.392 23.2027 238.242 23.5653 238.029 23.992C237.624 25.1227 237.336 26.0293 237.165 26.712C236.994 27.3733 236.888 27.9387 236.845 28.408C236.802 28.92 236.76 29.2187 236.717 29.304C236.696 29.3893 236.6 29.4747 236.429 29.56ZM234.701 34.68C234.296 34.8293 233.954 34.904 233.677 34.904C233.421 34.8827 233.133 34.7547 232.813 34.52C232.408 34.136 232.269 33.752 232.397 33.368C232.546 32.9627 232.898 32.568 233.453 32.184C233.837 31.9493 234.114 31.8213 234.285 31.8C234.477 31.7787 234.765 31.8533 235.149 32.024C235.789 32.4293 236.066 32.8773 235.981 33.368C235.917 33.8587 235.49 34.296 234.701 34.68Z" fill="#FF1054"/>
</svg>
