<svg width="335" height="43" viewBox="0 0 335 43" fill="none" xmlns="http://www.w3.org/2000/svg">
<path d="M5.1553 5.65594C5.1553 5.65594 8 20.6559 27.1111 29.6808C46.2223 38.7057 71.5 35.1559 71.5 35.1559" stroke="#FF1054"/>
<path d="M1 12.1559L5 5.15594L11.5 11.1559" stroke="#FF1054"/>
<path d="M79.06 36.824C78.1427 36.2267 77.524 35.704 77.204 35.256C76.884 34.8293 77.012 34.4347 77.588 34.072C77.716 33.9867 77.9187 34.0613 78.196 34.296C78.4947 34.5093 78.74 34.712 78.932 34.904C79.3587 35.288 79.8813 35.5227 80.5 35.608C81.14 35.7147 81.8547 35.6613 82.644 35.448C83.54 35.1707 84.3187 34.7867 84.98 34.296C85.6627 33.784 86.3027 33.1653 86.9 32.44C87.348 31.864 87.6573 31.2453 87.828 30.584C87.9987 29.9013 88.0627 29.272 88.02 28.696C87.9987 28.12 87.8813 27.7147 87.668 27.48C87.1347 26.7333 86.388 26.2213 85.428 25.944C84.4893 25.6453 83.38 25.6667 82.1 26.008C81.9507 26.0293 81.7267 26.072 81.428 26.136C81.1293 26.2 80.8627 26.264 80.628 26.328C80.3933 26.3707 80.2653 26.392 80.244 26.392C80.0947 26.4347 79.9773 26.488 79.892 26.552C79.8067 26.5947 79.7 26.7547 79.572 27.032C79.4653 27.288 79.2947 27.7573 79.06 28.44C78.8253 29.1013 78.4733 30.0827 78.004 31.384C77.556 32.6853 77.1933 33.6133 76.916 34.168C76.66 34.7013 76.4253 34.9467 76.212 34.904C76.02 34.84 75.7747 34.6053 75.476 34.2C75.3053 33.9013 75.1987 33.6133 75.156 33.336C75.1133 33.0373 75.1987 32.696 75.412 32.312C75.5187 32.12 75.604 31.9493 75.668 31.8C75.732 31.6293 75.8173 31.3413 75.924 30.936C76.0307 30.616 76.2333 30.0613 76.532 29.272C76.852 28.4613 77.2253 27.5227 77.652 26.456C78.0787 25.368 78.5267 24.248 78.996 23.096C79.4653 21.944 79.9133 20.856 80.34 19.832C80.788 18.808 81.1613 17.944 81.46 17.24C81.7587 16.5787 81.94 16.0987 82.004 15.8C82.068 15.5013 82.0467 15.3413 81.94 15.32C81.94 15.2133 81.908 15.1173 81.844 15.032C81.78 14.9253 81.7587 14.8293 81.78 14.744C81.78 14.6587 81.9187 14.5413 82.196 14.392C82.4947 14.2427 82.8147 14.104 83.156 13.976C83.5187 13.848 83.796 13.8053 83.988 13.848C84.0947 13.848 84.2227 13.848 84.372 13.848C84.5213 13.8267 84.596 13.7733 84.596 13.688C84.66 13.688 84.8627 13.6667 85.204 13.624C85.5453 13.5813 85.9187 13.5813 86.324 13.624C87.7533 13.752 88.8627 14.168 89.652 14.872C90.4413 15.5547 90.8253 16.4933 90.804 17.688C90.7827 18.0507 90.5907 18.5413 90.228 19.16C89.8867 19.7787 89.46 20.3973 88.948 21.016C88.4573 21.6347 87.9773 22.1573 87.508 22.584C87.2307 22.8187 86.932 23.064 86.612 23.32C86.3133 23.5547 86.0467 23.7573 85.812 23.928C85.5987 24.0773 85.492 24.152 85.492 24.152C85.492 24.152 85.5773 24.184 85.748 24.248C85.9187 24.312 86.1 24.376 86.292 24.44C87.2733 24.8027 88.084 25.2613 88.724 25.816C89.364 26.3707 89.8013 27.1387 90.036 28.12C90.1213 28.44 90.1213 28.8347 90.036 29.304C89.972 29.7733 89.876 30.2427 89.748 30.712C89.62 31.16 89.4813 31.544 89.332 31.864C89.1827 32.0133 89.0653 32.1733 88.98 32.344C88.8947 32.4933 88.852 32.568 88.852 32.568C88.852 32.6107 88.7667 32.7813 88.596 33.08C88.4253 33.3573 88.2227 33.6667 87.988 34.008C87.7533 34.3493 87.5293 34.648 87.316 34.904C87.1027 35.0747 86.8467 35.2773 86.548 35.512C86.2707 35.7467 85.9507 35.9707 85.588 36.184C85.2467 36.3973 84.8733 36.5787 84.468 36.728C83.8707 36.984 83.22 37.1547 82.516 37.24C81.8333 37.3467 81.1827 37.3573 80.564 37.272C79.9453 37.208 79.444 37.0587 79.06 36.824ZM80.628 24.504C80.628 24.504 80.82 24.472 81.204 24.408C81.6093 24.3227 82.0467 24.2373 82.516 24.152C82.9853 24.0453 83.3267 23.9493 83.54 23.864C83.6467 23.8 83.796 23.7147 83.988 23.608C84.2013 23.5013 84.4147 23.3413 84.628 23.128C84.9267 22.8507 85.3 22.456 85.748 21.944C86.2173 21.4107 86.676 20.856 87.124 20.28C87.572 19.6827 87.9133 19.1493 88.148 18.68C88.6387 17.912 88.9053 17.3467 88.948 16.984C88.9907 16.6 88.8733 16.2693 88.596 15.992C88.404 15.7573 88.0733 15.608 87.604 15.544C87.156 15.4587 86.676 15.4373 86.164 15.48C85.652 15.5013 85.2147 15.5653 84.852 15.672C84.5747 15.7573 84.3613 15.864 84.212 15.992C84.0627 16.0987 83.988 16.2693 83.988 16.504C83.988 16.696 83.924 16.888 83.796 17.08C83.6893 17.2507 83.5827 17.3893 83.476 17.496C83.4547 17.6453 83.4013 17.784 83.316 17.912C83.2307 18.0187 83.188 18.072 83.188 18.072C83.188 18.1573 83.0387 18.5093 82.74 19.128C82.4413 19.7467 82.1427 20.4613 81.844 21.272C81.46 22.1893 81.1613 22.936 80.948 23.512C80.7347 24.0667 80.628 24.3973 80.628 24.504ZM93.5975 35C93.1922 35.1067 92.8615 35.0213 92.6055 34.744C92.3708 34.4667 92.2322 34.04 92.1895 33.464C92.1468 32.888 92.2108 32.2053 92.3815 31.416C92.4882 31.16 92.5735 30.9147 92.6375 30.68C92.7015 30.424 92.7335 30.2213 92.7335 30.072C92.7762 29.8587 92.8615 29.5493 92.9895 29.144C93.1175 28.7173 93.2562 28.28 93.4055 27.832C93.5548 27.384 93.6935 26.9893 93.8215 26.648C93.9708 26.2853 94.0668 26.0613 94.1095 25.976C94.1948 25.976 94.2695 25.9013 94.3335 25.752C94.3975 25.6027 94.4295 25.4533 94.4295 25.304C94.4295 25.1333 94.4615 24.9413 94.5255 24.728C94.6108 24.5147 94.6962 24.3653 94.7815 24.28C94.7815 24.1733 94.8028 24.056 94.8455 23.928C94.9095 23.7787 94.9415 23.6613 94.9415 23.576C94.9415 23.4907 94.9628 23.4053 95.0055 23.32C95.0695 23.2347 95.1015 23.1493 95.1015 23.064C95.2508 22.7867 95.4428 22.3493 95.6775 21.752C95.9335 21.1333 96.2002 20.4507 96.4775 19.704C96.7762 18.9573 97.0535 18.2213 97.3095 17.496C97.5655 16.7707 97.7682 16.1627 97.9175 15.672C98.0882 15.16 98.1735 14.8507 98.1735 14.744C98.1735 14.5733 98.2162 14.4453 98.3015 14.36C98.3868 14.2747 98.5148 14.232 98.6855 14.232C98.7495 14.168 98.8242 14.1253 98.9095 14.104C99.0162 14.0827 99.1122 14.072 99.1975 14.072C99.1975 14.072 99.2402 14.1147 99.3255 14.2C99.4108 14.2853 99.5388 14.4133 99.7095 14.584C99.8802 14.7333 99.9762 14.904 99.9975 15.096C100.04 15.288 100.062 15.512 100.062 15.768C100.062 16.0453 100.03 16.2907 99.9655 16.504C99.9015 16.7173 99.7735 17.0267 99.5815 17.432C99.3895 17.8373 99.0908 18.4667 98.6855 19.32C98.5148 19.7467 98.3335 20.152 98.1415 20.536C97.9495 20.8987 97.8535 21.1227 97.8535 21.208C97.8535 21.2933 97.8108 21.4213 97.7255 21.592C97.6615 21.7627 97.5868 21.976 97.5015 22.232C97.4162 22.4027 97.2988 22.6587 97.1495 23C97.0002 23.32 96.8402 23.672 96.6695 24.056C96.5202 24.4187 96.3922 24.7387 96.2855 25.016C96.1788 25.272 96.1255 25.4213 96.1255 25.464C96.1255 25.5493 96.1148 25.6347 96.0935 25.72C96.0935 25.8053 96.0508 25.8907 95.9655 25.976C95.8802 25.976 95.8268 26.04 95.8055 26.168C95.8055 26.2747 95.8055 26.328 95.8055 26.328C95.8055 26.5413 95.6348 27.1067 95.2935 28.024C94.9522 29.1973 94.6322 30.2747 94.3335 31.256C94.0562 32.2373 93.9175 33.0267 93.9175 33.624C93.9175 34.136 93.9068 34.4773 93.8855 34.648C93.8642 34.7973 93.7682 34.9147 93.5975 35ZM98.3958 33.976C98.2251 33.8053 98.0971 33.592 98.0118 33.336C97.9478 33.08 97.9264 32.824 97.9478 32.568C97.9691 32.312 98.0224 32.0987 98.1078 31.928C98.1078 31.7573 98.1291 31.6293 98.1718 31.544C98.2358 31.4373 98.2571 31.3413 98.2358 31.256C98.2144 31.1707 98.2358 31.0213 98.2998 30.808C98.3638 30.5947 98.4278 30.392 98.4918 30.2C98.6411 29.8587 98.8011 29.4533 98.9718 28.984C99.1424 28.4933 99.3024 28.0133 99.4518 27.544C99.6011 27.0747 99.7291 26.6693 99.8358 26.328C99.9424 25.9867 100.006 25.7733 100.028 25.688C100.028 25.432 100.198 25.2933 100.54 25.272C100.796 25.1867 100.988 25.1867 101.116 25.272C101.244 25.336 101.414 25.5387 101.628 25.88C101.798 26.0507 101.862 26.3067 101.82 26.648C101.777 26.9893 101.638 27.416 101.404 27.928C101.318 28.0987 101.212 28.344 101.084 28.664C100.977 28.984 100.902 29.272 100.86 29.528C100.774 29.6987 100.668 29.944 100.54 30.264C100.433 30.5627 100.337 30.8507 100.252 31.128C100.209 31.2347 100.166 31.3947 100.124 31.608C100.081 31.8 100.028 32.0133 99.9638 32.248C99.8998 32.4613 99.8144 32.6533 99.7078 32.824C99.5158 33.6987 99.3344 34.2107 99.1638 34.36C99.0144 34.5093 98.7584 34.3813 98.3958 33.976ZM101.5 20.984C101.393 20.8773 101.297 20.728 101.212 20.536C101.126 20.3227 101.073 20.1307 101.052 19.96C101.03 19.768 101.052 19.672 101.116 19.672C101.286 19.6507 101.489 19.4693 101.724 19.128C101.958 18.7867 102.054 18.488 102.012 18.232C102.012 18.1467 102.044 18.072 102.108 18.008C102.172 17.9227 102.246 17.8693 102.332 17.848C102.588 17.6773 102.833 17.656 103.068 17.784C103.324 17.8907 103.558 18.1147 103.772 18.456C103.964 18.8613 104.017 19.2027 103.932 19.48C103.846 19.736 103.612 20.0987 103.228 20.568C102.908 20.9947 102.609 21.2293 102.332 21.272C102.076 21.3147 101.798 21.2187 101.5 20.984ZM107.277 33.976C107.063 34.1253 106.914 34.2 106.829 34.2C106.743 34.1787 106.583 34.0507 106.349 33.816C105.943 33.432 105.655 32.7067 105.485 31.64C105.335 30.552 105.261 29.0267 105.261 27.064C105.346 26.1893 105.389 25.4427 105.389 24.824C105.41 24.2053 105.421 23.8533 105.421 23.768C105.485 23.6827 105.613 23.64 105.805 23.64C106.018 23.64 106.199 23.6827 106.349 23.768C106.562 23.8747 106.701 24.0347 106.765 24.248C106.85 24.4613 106.903 24.8453 106.925 25.4C106.946 25.9333 106.957 26.7547 106.957 27.864C106.893 28.7173 106.861 29.464 106.861 30.104C106.861 30.7227 106.893 31.0747 106.957 31.16C107.042 31.3093 107.138 31.352 107.245 31.288C107.373 31.2027 107.597 31 107.917 30.68C108.087 30.4453 108.301 30.136 108.557 29.752C108.813 29.3467 109.015 29.0267 109.165 28.792C109.399 28.4933 109.613 28.2053 109.805 27.928C110.018 27.6507 110.167 27.4693 110.253 27.384C110.338 27.2133 110.445 27.0533 110.573 26.904C110.701 26.7547 110.807 26.6053 110.893 26.456C111.127 26.0507 111.373 25.72 111.629 25.464C111.885 25.1867 112.055 25.048 112.141 25.048C112.226 25.112 112.301 25.1333 112.365 25.112C112.45 25.0693 112.535 25.048 112.621 25.048C112.77 24.8987 112.973 24.8987 113.229 25.048C113.314 25.112 113.389 25.1867 113.453 25.272C113.517 25.336 113.549 25.4107 113.549 25.496C113.549 25.6027 113.463 25.8267 113.293 26.168C113.143 26.5093 112.962 26.84 112.749 27.16C112.557 27.4587 112.407 27.64 112.301 27.704C112.301 27.704 112.269 27.736 112.205 27.8C112.141 27.864 112.066 27.9387 111.981 28.024C111.938 28.1733 111.799 28.44 111.565 28.824C111.33 29.1867 111.042 29.6027 110.701 30.072C110.359 30.5413 110.007 31.0107 109.645 31.48C109.282 31.9493 108.962 32.3653 108.685 32.728C108.471 33.0267 108.226 33.2933 107.949 33.528C107.671 33.7413 107.447 33.8907 107.277 33.976ZM125.428 35.096C124.49 35.096 123.722 34.744 123.124 34.04C122.527 33.3147 122.239 32.4187 122.26 31.352C122.303 30.584 122.452 29.7627 122.708 28.888C122.986 27.992 123.348 27.1387 123.796 26.328C124.244 25.496 124.735 24.7707 125.268 24.152C125.802 23.5333 126.356 23.096 126.932 22.84C127.146 22.7333 127.37 22.648 127.604 22.584C127.86 22.52 128.116 22.488 128.372 22.488C128.607 22.488 128.852 22.5307 129.108 22.616C129.364 22.68 129.578 22.7547 129.748 22.84C130.111 22.9893 130.388 23.1707 130.58 23.384C130.772 23.5973 130.943 23.928 131.092 24.376C131.156 24.7813 131.188 25.0693 131.188 25.24C131.188 25.4107 131.135 25.6667 131.028 26.008C130.772 26.776 130.442 27.4373 130.036 27.992C129.631 28.5467 129.087 29.016 128.404 29.4C128.234 29.5067 128.031 29.592 127.796 29.656C127.583 29.6987 127.359 29.72 127.124 29.72C126.698 29.72 126.282 29.6453 125.876 29.496C125.492 29.3253 125.183 29.08 124.948 28.76L124.724 28.504L124.628 28.76C124.415 29.336 124.244 29.8693 124.116 30.36C124.01 30.8507 123.956 31.2987 123.956 31.704C123.956 31.96 123.978 32.2053 124.02 32.44C124.084 32.6747 124.17 32.8773 124.276 33.048C124.362 33.176 124.5 33.272 124.692 33.336C124.906 33.3787 125.13 33.4 125.364 33.4C125.514 33.4 125.663 33.4 125.812 33.4C125.983 33.3787 126.143 33.336 126.292 33.272C126.655 33.144 126.943 33.0053 127.156 32.856C127.391 32.7067 127.626 32.5467 127.86 32.376L127.988 32.312H127.956C128.212 32.184 128.436 32.056 128.628 31.928C128.842 31.8 128.948 31.736 128.948 31.736C129.034 31.736 129.119 31.6827 129.204 31.576C129.375 31.4907 129.588 31.5227 129.844 31.672C130.122 31.8213 130.26 32.0133 130.26 32.248C130.239 32.3547 130.143 32.5253 129.972 32.76C129.802 32.9733 129.61 33.176 129.396 33.368C129.204 33.56 129.044 33.6667 128.916 33.688C128.895 33.7093 128.82 33.752 128.692 33.816C128.564 33.8587 128.479 33.9013 128.436 33.944H128.468C128.276 34.2 128.084 34.328 127.892 34.328H127.636C127.551 34.4773 127.274 34.648 126.804 34.84C126.335 35.0107 125.876 35.096 125.428 35.096ZM126.868 28.056C127.252 28.056 127.583 27.9493 127.86 27.736C128.159 27.5013 128.415 27.2453 128.628 26.968C129.055 26.392 129.3 25.8373 129.364 25.304C129.45 24.7493 129.386 24.3653 129.172 24.152C129.044 24.088 128.927 24.056 128.82 24.056C128.735 24.0347 128.554 24.0667 128.276 24.152C128.084 24.1947 127.818 24.3547 127.476 24.632C127.135 24.9093 126.794 25.2187 126.452 25.56C126.132 25.9013 125.887 26.1893 125.716 26.424L125.3 27.096C125.471 27.032 125.631 27 125.78 27C125.951 26.9787 126.047 26.9893 126.068 27.032C126.068 27.224 126.1 27.4053 126.164 27.576C126.25 27.7253 126.346 27.8427 126.452 27.928C126.58 28.0133 126.719 28.056 126.868 28.056ZM134.299 33.592C134.213 33.592 134.085 33.5387 133.915 33.432C133.765 33.304 133.648 33.1973 133.562 33.112C133.413 32.9413 133.317 32.7707 133.275 32.6C133.253 32.4293 133.243 32.0453 133.243 31.448C133.243 30.7653 133.381 30.0293 133.659 29.24C133.936 28.4293 134.405 27.2987 135.067 25.848L136.123 23.608C136.208 23.4373 136.283 23.3093 136.347 23.224C136.432 23.1387 136.507 23.0533 136.571 22.968C136.656 22.968 136.731 22.968 136.795 22.968C136.859 22.968 136.891 22.968 136.891 22.968C137.061 22.968 137.232 23.0747 137.403 23.288C137.573 23.48 137.701 23.6933 137.786 23.928C137.786 24.2053 137.744 24.4933 137.659 24.792C137.595 25.0907 137.339 25.5387 136.891 26.136C136.741 26.3707 136.539 26.7653 136.283 27.32C136.048 27.8747 135.888 28.3547 135.803 28.76C135.781 28.7813 135.739 28.8773 135.675 29.048C135.611 29.1973 135.536 29.368 135.451 29.56C135.387 29.752 135.312 29.9333 135.227 30.104L135.067 30.808L137.211 28.6C138.213 27.5973 139.024 26.8827 139.643 26.456C140.261 26.0293 140.752 25.848 141.115 25.912C141.477 25.976 141.787 26.264 142.043 26.776C142.192 27.0107 142.299 27.224 142.363 27.416C142.448 27.5867 142.501 27.8213 142.523 28.12C142.544 28.4187 142.523 28.8667 142.459 29.464V31.448C142.779 31.3627 143.035 31.288 143.227 31.224C143.419 31.1387 143.621 31.0533 143.835 30.968C144.027 30.8827 144.251 30.808 144.507 30.744C144.763 30.6587 145.083 30.6053 145.467 30.584C145.445 30.8613 145.349 31.16 145.179 31.48C145.008 31.7787 144.795 32.0667 144.539 32.344C144.283 32.6213 143.995 32.8453 143.675 33.016C143.376 33.1867 143.077 33.272 142.779 33.272C142.501 33.272 142.192 33.1333 141.851 32.856C141.509 32.5787 141.264 32.2693 141.115 31.928C141.029 31.6933 140.976 31.4373 140.955 31.16C140.955 30.8827 140.955 30.3707 140.955 29.624V28.44C140.955 28.0987 140.848 28.0027 140.635 28.152C140.443 28.28 140.283 28.3973 140.155 28.504C139.835 28.7813 139.493 29.1013 139.131 29.464C138.789 29.8267 138.437 30.2 138.075 30.584C137.093 31.608 136.272 32.3653 135.611 32.856C134.971 33.3467 134.533 33.592 134.299 33.592ZM163.303 35.608C163.025 35.672 162.791 35.6293 162.599 35.48C162.428 35.352 162.3 35.16 162.215 34.904C162.044 34.4133 161.916 33.88 161.831 33.304C161.767 32.7067 161.756 32.184 161.799 31.736L161.863 31.064L160.615 32.056C159.889 32.696 159.185 33.1547 158.503 33.432C157.841 33.7093 157.255 33.848 156.743 33.848C156.508 33.8053 156.273 33.72 156.039 33.592C155.804 33.464 155.591 33.304 155.399 33.112C155.228 32.92 155.089 32.7173 154.983 32.504C154.855 32.2053 154.812 31.8 154.855 31.288C154.919 30.776 155.047 30.2213 155.239 29.624C155.452 29.0053 155.708 28.408 156.007 27.832C156.327 27.2347 156.689 26.712 157.095 26.264C157.799 25.1973 158.556 24.5467 159.367 24.312C160.177 24.0773 160.977 24.1947 161.767 24.664C162.321 24.8987 162.663 25.0053 162.791 24.984C162.94 24.9627 163.068 24.7173 163.175 24.248C163.26 23.9067 163.345 23.5653 163.431 23.224C163.516 22.8613 163.655 22.3813 163.847 21.784C164.38 20.1627 164.839 18.8933 165.223 17.976C165.628 17.0587 165.991 16.2587 166.311 15.576C166.545 15.0853 166.737 14.7867 166.887 14.68C167.057 14.552 167.228 14.4987 167.399 14.52C167.633 14.52 167.847 14.6053 168.039 14.776C168.231 14.9467 168.38 15.1813 168.487 15.48C168.572 15.672 168.604 15.8427 168.583 15.992C168.583 16.12 168.519 16.3013 168.391 16.536C168.113 17.048 167.783 17.7307 167.399 18.584C167.036 19.416 166.663 20.3333 166.279 21.336C165.916 22.3387 165.575 23.3307 165.255 24.312C164.935 25.2933 164.668 26.1573 164.455 26.904C164.327 27.3733 164.209 27.9707 164.103 28.696C164.017 29.4213 163.943 30.168 163.879 30.936C163.815 31.6827 163.772 32.3547 163.751 32.952C163.751 33.528 163.772 33.9013 163.815 34.072C163.943 34.4987 163.996 34.8187 163.975 35.032C163.975 35.2453 163.921 35.384 163.815 35.448C163.708 35.5333 163.537 35.5867 163.303 35.608ZM157.895 32.056C158.193 31.992 158.481 31.8747 158.759 31.704C159.057 31.5333 159.367 31.3307 159.687 31.096C160.327 30.6053 160.881 30.1573 161.351 29.752C161.82 29.3467 162.129 28.728 162.279 27.896C162.321 27.4907 162.279 27.1707 162.151 26.936C162.044 26.68 161.863 26.4453 161.607 26.232C161.351 26.0613 160.999 25.9973 160.551 26.04C160.124 26.0613 159.676 26.2853 159.207 26.712C158.695 27.1813 158.193 27.8107 157.703 28.6C157.233 29.3893 156.881 30.36 156.647 31.512C156.604 31.7253 156.668 31.896 156.839 32.024C157.009 32.152 157.361 32.1627 157.895 32.056ZM169.721 34.232C168.889 33.8907 168.345 33.4213 168.089 32.824C167.855 32.2053 167.812 31.256 167.961 29.976C168.004 29.3147 168.025 28.8773 168.025 28.664C168.025 28.4507 167.908 28.2373 167.673 28.024C167.609 27.9387 167.492 27.8213 167.321 27.672C167.172 27.5227 167.108 27.3947 167.129 27.288C167.108 27.1387 167.119 26.9787 167.161 26.808C167.204 26.616 167.268 26.52 167.353 26.52C167.439 26.52 167.524 26.4987 167.609 26.456C167.716 26.4133 167.812 26.4133 167.897 26.456C167.983 26.456 168.079 26.4667 168.185 26.488C168.292 26.5093 168.345 26.5627 168.345 26.648C168.431 26.7973 168.569 26.8187 168.761 26.712C168.953 26.584 169.156 26.3067 169.369 25.88C169.583 25.5387 169.86 25.1973 170.201 24.856C170.564 24.5147 170.916 24.2053 171.257 23.928C171.62 23.6293 171.919 23.416 172.153 23.288C172.26 23.2453 172.42 23.192 172.633 23.128C172.847 23.064 173.071 23.0107 173.305 22.968C173.561 22.9253 173.775 22.9147 173.945 22.936C174.329 22.9573 174.649 23.064 174.905 23.256C175.183 23.448 175.439 23.672 175.673 23.928C175.951 24.12 176.121 24.376 176.185 24.696C176.271 25.016 176.292 25.3573 176.249 25.72C176.207 26.0827 176.111 26.4133 175.961 26.712C175.897 26.9253 175.716 27.1813 175.417 27.48C175.119 27.7787 174.777 28.0667 174.393 28.344C174.009 28.6213 173.657 28.824 173.337 28.952C173.06 29.016 172.697 29.0693 172.249 29.112C171.823 29.1547 171.417 29.176 171.033 29.176C170.671 29.1547 170.425 29.112 170.297 29.048C170.148 28.9627 170.031 29.08 169.945 29.4C169.86 29.72 169.796 30.1787 169.753 30.776C169.711 31.2453 169.711 31.5867 169.753 31.8C169.796 32.0133 169.839 32.1627 169.881 32.248C170.031 32.3973 170.233 32.5893 170.489 32.824C170.767 33.0373 171.151 33.0693 171.641 32.92C172.047 32.8133 172.441 32.536 172.825 32.088C173.231 31.64 173.604 31.2773 173.945 31C174.031 30.8507 174.169 30.7653 174.361 30.744C174.575 30.7013 174.799 30.712 175.033 30.776C175.268 30.9253 175.364 31.1067 175.321 31.32C175.3 31.512 175.193 31.8107 175.001 32.216C174.937 32.3653 174.788 32.5573 174.553 32.792C174.34 33.0053 174.095 33.2293 173.817 33.464C173.561 33.6773 173.327 33.848 173.113 33.976C172.473 34.3173 171.876 34.4987 171.321 34.52C170.767 34.52 170.233 34.424 169.721 34.232ZM171.609 27.736C172.079 27.6293 172.452 27.5547 172.729 27.512C173.007 27.4693 173.273 27.352 173.529 27.16C173.785 26.9467 174.105 26.552 174.489 25.976C174.575 25.7413 174.596 25.5067 174.553 25.272C174.532 25.0373 174.479 24.8773 174.393 24.792C174.201 24.5787 173.967 24.5147 173.689 24.6C173.433 24.664 173.188 24.7813 172.953 24.952C172.804 25.016 172.58 25.176 172.281 25.432C172.004 25.6667 171.727 25.944 171.449 26.264C171.172 26.5627 170.948 26.84 170.777 27.096C170.607 27.352 170.564 27.5013 170.649 27.544C170.607 27.6293 170.724 27.6827 171.001 27.704C171.3 27.7253 171.503 27.736 171.609 27.736ZM178.4 33.496C178.186 33.368 178.026 33.24 177.92 33.112C177.813 32.984 177.76 32.8027 177.76 32.568C177.76 32.248 177.802 31.9173 177.888 31.576C177.973 31.2133 178.058 30.8613 178.144 30.52C178.186 30.136 178.24 29.752 178.304 29.368C178.389 28.9627 178.538 28.5893 178.752 28.248C178.986 27.4373 179.232 26.6373 179.488 25.848C179.744 25.0373 179.968 24.2053 180.16 23.352C180.437 22.5627 180.682 21.8693 180.896 21.272C181.13 20.6533 181.418 19.8747 181.76 18.936C181.952 18.4027 182.112 17.8373 182.24 17.24C182.389 16.6213 182.613 16.0667 182.911 15.576C183.04 15.384 183.136 15.224 183.2 15.096C183.285 14.9467 183.37 14.808 183.456 14.68C183.477 14.5947 183.541 14.5413 183.648 14.52C183.776 14.4987 183.914 14.5093 184.064 14.552C184.213 14.5947 184.33 14.6693 184.416 14.776C184.48 14.7547 184.554 14.8187 184.64 14.968C184.746 15.096 184.842 15.2453 184.928 15.416C185.013 15.5867 185.045 15.736 185.024 15.864C185.024 15.9493 185.002 16.0667 184.96 16.216C184.938 16.3653 184.885 16.504 184.8 16.632C184.714 16.7173 184.629 16.8453 184.544 17.016C184.48 17.1653 184.373 17.3787 184.224 17.656C184.138 17.9333 184.064 18.2213 184 18.52C183.936 18.7973 183.85 19.0533 183.744 19.288C183.658 19.544 183.552 19.7893 183.424 20.024C183.317 20.2587 183.242 20.4507 183.2 20.6C183.05 21.0907 182.869 21.5707 182.656 22.04C182.464 22.5093 182.293 23.0107 182.144 23.544C181.994 24.056 181.845 24.5893 181.696 25.144C181.546 25.6773 181.333 26.1893 181.056 26.68C180.906 26.9147 180.8 27.2133 180.736 27.576C180.672 27.9387 180.608 28.3013 180.544 28.664C180.416 29.048 180.298 29.4107 180.192 29.752C180.106 30.072 180.064 30.2747 180.064 30.36C179.936 30.8293 179.84 31.2987 179.776 31.768C179.733 32.216 179.626 32.6107 179.456 32.952C179.434 33.1653 179.392 33.336 179.328 33.464C179.264 33.592 179.157 33.6667 179.008 33.688C178.858 33.688 178.656 33.624 178.4 33.496ZM191.268 33.848C191.182 33.6773 191.076 33.5493 190.948 33.464C190.82 33.3573 190.756 33.2613 190.756 33.176C190.756 33.0907 190.745 33.0053 190.724 32.92C190.724 32.8133 190.681 32.7173 190.596 32.632C190.489 32.504 190.5 32.216 190.628 31.768C190.756 31.2987 190.969 30.7333 191.268 30.072C191.566 29.3893 191.918 28.6747 192.324 27.928C192.494 27.7573 192.665 27.5333 192.836 27.256C193.006 26.9787 193.134 26.7973 193.22 26.712C193.22 26.6267 193.252 26.552 193.316 26.488C193.38 26.4027 193.454 26.36 193.54 26.36V26.168C193.54 26.0613 193.636 25.88 193.828 25.624C194.041 25.368 194.297 25.0907 194.596 24.792C194.894 24.472 195.204 24.1733 195.524 23.896C195.844 23.5973 196.11 23.384 196.324 23.256C196.772 22.9573 197.23 22.776 197.7 22.712C198.19 22.648 198.606 22.7547 198.948 23.032C199.012 23.096 199.118 23.2027 199.268 23.352C199.417 23.5013 199.588 23.672 199.78 23.864C199.993 24.0347 200.206 24.216 200.42 24.408L201.604 25.464L201.028 27.064C200.75 27.9173 200.676 28.664 200.804 29.304C200.953 29.944 201.166 30.4987 201.444 30.968C201.55 31.2027 201.764 31.4267 202.084 31.64C202.425 31.8533 202.745 31.9813 203.044 32.024C203.214 32.0453 203.374 32.1093 203.524 32.216C203.673 32.3227 203.748 32.4933 203.748 32.728C203.748 32.9413 203.705 33.112 203.62 33.24C203.534 33.368 203.385 33.4533 203.172 33.496C202.468 33.5813 201.806 33.4107 201.188 32.984C200.59 32.5573 200.036 31.8533 199.524 30.872C199.438 30.744 199.321 30.5093 199.172 30.168C199.044 29.8053 198.969 29.5707 198.948 29.464C198.862 29.5707 198.702 29.7733 198.468 30.072C198.233 30.3493 198.052 30.552 197.924 30.68C196.409 32.216 195.097 33.2507 193.988 33.784C192.9 34.296 191.993 34.3173 191.268 33.848ZM192.42 32.056C192.42 32.2053 192.644 32.2053 193.092 32.056C193.561 31.8853 194.062 31.5867 194.596 31.16C195.321 30.5413 196.046 29.8587 196.772 29.112C197.518 28.3653 198.116 27.672 198.564 27.032L199.268 25.88C199.054 25.3893 198.82 25.0587 198.564 24.888C198.329 24.696 198.126 24.6 197.956 24.6C197.678 24.6 197.262 24.856 196.708 25.368C196.174 25.88 195.598 26.5627 194.98 27.416C194.361 28.2693 193.774 29.208 193.22 30.232C193.006 30.6587 192.814 31.0747 192.644 31.48C192.494 31.864 192.42 32.056 192.42 32.056ZM206.837 38.2C206.687 38.1573 206.527 38.072 206.357 37.944C206.186 37.8373 206.101 37.7413 206.101 37.656C206.122 37.5067 206.154 37.368 206.197 37.24C206.239 37.1333 206.271 37.0267 206.293 36.92C206.335 36.7067 206.357 36.4507 206.357 36.152C206.357 35.8747 206.389 35.3413 206.453 34.552C206.517 33.6987 206.57 32.984 206.613 32.408C206.677 31.832 206.741 31.32 206.805 30.872C206.869 30.4027 206.943 29.9333 207.029 29.464C207.135 28.9947 207.263 28.44 207.413 27.8C207.519 27.0747 207.519 26.6267 207.413 26.456C207.327 26.2853 207.167 26.1893 206.933 26.168C206.527 26.1253 206.165 26.0613 205.845 25.976C205.546 25.8693 205.354 25.688 205.269 25.432C205.055 25.2187 205.002 25.048 205.109 24.92C205.215 24.792 205.429 24.696 205.749 24.632C206.09 24.5467 206.453 24.5147 206.837 24.536C207.199 24.5147 207.477 24.4933 207.669 24.472C207.882 24.4293 208.053 24.3227 208.181 24.152C208.309 23.96 208.437 23.64 208.565 23.192C208.607 23 208.682 22.7333 208.789 22.392C208.917 22.0507 209.023 21.7413 209.109 21.464C209.215 21.1867 209.269 21.048 209.269 21.048C209.461 20.8987 209.557 20.7067 209.557 20.472C209.578 20.1733 209.717 19.7787 209.973 19.288C210.25 18.776 210.687 18.0613 211.285 17.144C212.01 16.2053 212.661 15.4693 213.237 14.936C213.834 14.4027 214.527 14.072 215.317 13.944C215.402 13.9013 215.594 13.88 215.893 13.88C216.191 13.88 216.394 13.88 216.501 13.88C216.949 13.9013 217.258 13.9867 217.429 14.136C217.599 14.2853 217.781 14.5413 217.972 14.904C218.143 15.1813 218.165 15.5653 218.037 16.056C217.93 16.5253 217.791 16.888 217.621 17.144C217.514 17.3147 217.354 17.5067 217.141 17.72C216.949 17.9333 216.757 18.1253 216.565 18.296C216.394 18.4453 216.266 18.52 216.181 18.52C216.074 18.52 215.967 18.488 215.861 18.424C215.775 18.3387 215.69 18.2853 215.605 18.264C215.413 18.1787 215.381 18.0293 215.509 17.816C215.637 17.5813 215.775 17.3573 215.925 17.144C216.138 16.824 216.277 16.568 216.341 16.376C216.405 16.184 216.426 16.0133 216.405 15.864C216.383 15.7147 216.341 15.5333 216.277 15.32L216.565 15.608C216.415 15.5227 216.245 15.4907 216.053 15.512C215.861 15.5333 215.647 15.5867 215.413 15.672C215.007 15.8853 214.677 16.12 214.421 16.376C214.165 16.6107 213.951 16.8133 213.781 16.984C213.269 17.432 212.853 17.976 212.533 18.616C212.213 19.256 211.914 19.8533 211.637 20.408C211.551 20.5787 211.402 20.8987 211.189 21.368C210.997 21.816 210.815 22.2427 210.645 22.648C210.495 23.032 210.346 23.3733 210.197 23.672C210.047 23.9493 209.973 24.12 209.973 24.184C209.909 24.3333 209.941 24.408 210.069 24.408C210.218 24.408 210.506 24.3973 210.933 24.376C211.978 24.248 212.757 24.216 213.269 24.28C213.802 24.3227 214.111 24.5147 214.197 24.856C214.559 25.368 214.506 25.688 214.037 25.816C213.589 25.9227 212.757 26.0613 211.541 26.232C211.199 26.2533 210.858 26.2747 210.517 26.296C210.175 26.296 209.951 26.3067 209.845 26.328C209.759 26.3493 209.674 26.3813 209.589 26.424C209.503 26.4667 209.407 26.68 209.301 27.064C209.279 27.2987 209.237 27.5867 209.173 27.928C209.13 28.248 209.098 28.5573 209.077 28.856C208.991 29.112 208.927 29.3787 208.885 29.656C208.863 29.9333 208.799 30.1787 208.693 30.392C208.565 31.5653 208.479 32.6533 208.437 33.656C208.394 34.6373 208.33 35.48 208.245 36.184C208.181 36.888 208.01 37.432 207.733 37.816C207.583 37.9867 207.423 38.1147 207.253 38.2C207.103 38.3067 206.965 38.3067 206.837 38.2ZM225.435 41.112C224.838 41.3467 224.208 41.304 223.547 40.984C222.907 40.6853 222.352 40.2053 221.883 39.544C221.798 39.416 221.691 39.2133 221.563 38.936C221.456 38.68 221.35 38.4133 221.243 38.136C221.158 37.8587 221.104 37.6133 221.083 37.4C221.062 37.1867 221.083 37.0587 221.147 37.016C221.211 36.952 221.318 36.9307 221.467 36.952C221.616 36.9733 221.755 37.0267 221.883 37.112C222.032 37.1973 222.128 37.304 222.171 37.432C222.235 37.5813 222.331 37.7733 222.459 38.008C222.608 38.2427 222.768 38.456 222.939 38.648C223.11 38.84 223.238 38.9467 223.323 38.968C223.728 39.16 224.027 39.2453 224.219 39.224C224.411 39.2027 224.582 39.1387 224.731 39.032C225.094 38.7547 225.392 38.392 225.627 37.944C225.862 37.496 226.128 36.8027 226.427 35.864C226.662 35.0747 226.896 34.2427 227.131 33.368C227.387 32.472 227.611 31.7787 227.803 31.288C227.867 31.032 227.942 30.8187 228.027 30.648C228.134 30.456 228.23 30.3173 228.315 30.232H228.507C228.038 30.5307 227.622 30.872 227.259 31.256C226.896 31.64 226.438 31.9493 225.883 32.184C225.755 32.3333 225.435 32.4293 224.923 32.472C224.432 32.4933 223.952 32.4293 223.483 32.28C223.184 32.1093 222.96 31.9813 222.811 31.896C222.683 31.8107 222.576 31.6933 222.491 31.544C222.427 31.3947 222.331 31.16 222.203 30.84C222.054 30.52 222.032 29.9973 222.139 29.272C222.246 28.5467 222.438 27.8213 222.715 27.096C222.971 26.5627 223.344 25.9867 223.835 25.368C224.326 24.7493 224.848 24.1947 225.403 23.704C225.958 23.192 226.459 22.872 226.907 22.744C227.078 22.6587 227.259 22.6053 227.451 22.584C227.664 22.5413 227.963 22.5733 228.347 22.68C228.71 22.7227 228.987 22.808 229.179 22.936C229.371 23.0427 229.68 23.2773 230.107 23.64C230.384 23.9173 230.608 24.1947 230.779 24.472C230.971 24.7493 231.12 25.0373 231.227 25.336C231.376 25.656 231.43 25.9547 231.387 26.232C231.366 26.488 231.248 26.7547 231.035 27.032C230.843 27.3093 230.64 27.5867 230.427 27.864C230.214 28.1413 230.054 28.5253 229.947 29.016C229.84 29.656 229.67 30.3813 229.435 31.192C229.2 31.9813 228.998 32.7173 228.827 33.4L228.315 35.384C227.782 37.1973 227.27 38.5413 226.779 39.416C226.31 40.312 225.862 40.8773 225.435 41.112ZM224.283 30.872C224.71 30.8507 225.115 30.7653 225.499 30.616C225.883 30.4667 226.256 30.2213 226.619 29.88C226.982 29.5173 227.344 29.0587 227.707 28.504C228.07 27.992 228.326 27.4587 228.475 26.904C228.624 26.328 228.678 25.7733 228.635 25.24C228.614 24.8987 228.56 24.6747 228.475 24.568C228.39 24.4613 228.208 24.4293 227.931 24.472C227.526 24.536 227.078 24.76 226.587 25.144C226.096 25.5067 225.638 25.9653 225.211 26.52C224.891 26.9467 224.624 27.4587 224.411 28.056C224.198 28.696 224.07 29.304 224.027 29.88C223.984 30.456 224.07 30.7867 224.283 30.872ZM235.402 34.008C235.338 34.0293 235.231 34.0187 235.082 33.976C234.933 33.9333 234.783 33.88 234.634 33.816C234.485 33.752 234.389 33.6987 234.346 33.656C234.261 33.5707 234.175 33.4427 234.09 33.272C234.026 33.1013 234.026 32.856 234.09 32.536C234.154 32.1947 234.367 31.7573 234.73 31.224C234.837 31.0107 234.965 30.6907 235.114 30.264C235.263 29.8373 235.413 29.3893 235.562 28.92C235.733 28.4293 235.882 27.992 236.01 27.608C236.159 27.224 236.266 26.9573 236.33 26.808C236.373 26.4453 236.351 26.1893 236.266 26.04C236.202 25.8693 236.021 25.7733 235.722 25.752C235.509 25.752 235.338 25.7307 235.21 25.688C235.103 25.6453 235.05 25.432 235.05 25.048C235.093 24.7493 235.167 24.5467 235.274 24.44C235.402 24.312 235.573 24.1733 235.786 24.024C235.999 23.9173 236.213 23.8427 236.426 23.8C236.661 23.7573 236.885 23.7467 237.098 23.768C237.311 23.7893 237.482 23.864 237.61 23.992C237.759 24.0773 237.855 24.2693 237.898 24.568C237.941 24.8453 237.962 25.1333 237.962 25.432C237.983 25.7307 238.005 25.9547 238.026 26.104C238.239 25.9333 238.527 25.6987 238.89 25.4C239.274 25.08 239.605 24.7813 239.882 24.504C240.223 24.2693 240.629 24.0347 241.098 23.8C241.567 23.544 241.909 23.416 242.122 23.416C242.357 23.416 242.591 23.48 242.826 23.608C243.061 23.7147 243.221 23.8533 243.306 24.024C243.519 24.3867 243.615 24.7067 243.594 24.984C243.594 25.2613 243.477 25.5493 243.242 25.848C243.029 26.1253 242.762 26.3173 242.442 26.424C242.143 26.5307 241.951 26.584 241.866 26.584C241.738 26.584 241.578 26.488 241.386 26.296C241.194 26.104 241.087 25.944 241.066 25.816C241.066 25.752 240.927 25.816 240.65 26.008C240.394 26.1787 240.106 26.4027 239.786 26.68C239.466 26.936 239.199 27.1707 238.986 27.384C238.623 27.832 238.239 28.44 237.834 29.208C237.429 29.976 236.949 30.904 236.394 31.992C236.138 32.5253 235.957 32.984 235.85 33.368C235.743 33.7307 235.594 33.944 235.402 34.008ZM252.501 34.936C252.352 35.0213 252.149 34.9893 251.893 34.84C251.659 34.6907 251.424 34.4667 251.189 34.168C251.04 33.912 250.933 33.6347 250.869 33.336C250.827 33.0373 250.805 32.6213 250.805 32.088C250.827 31.6613 250.805 31.384 250.741 31.256C250.699 31.128 250.581 31.1493 250.389 31.32C250.197 31.4693 249.867 31.7787 249.397 32.248C248.864 32.7813 248.352 33.1973 247.861 33.496C247.392 33.7947 247.008 33.9333 246.709 33.912C246.56 33.912 246.389 33.8373 246.197 33.688C246.027 33.5173 245.867 33.3147 245.717 33.08C245.568 32.824 245.44 32.568 245.333 32.312C245.205 31.8427 245.184 31.2453 245.269 30.52C245.376 29.7733 245.547 28.9947 245.781 28.184C246.016 27.3733 246.283 26.6053 246.581 25.88C246.901 25.1547 247.221 24.568 247.541 24.12C247.883 23.672 248.181 23.448 248.437 23.448C248.608 23.448 248.757 23.5333 248.885 23.704C249.035 23.8747 249.184 24.1413 249.333 24.504C249.419 24.6533 249.451 24.7813 249.429 24.888C249.429 24.9947 249.344 25.1227 249.173 25.272C248.981 25.528 248.757 25.912 248.501 26.424C248.267 26.936 248.032 27.4907 247.797 28.088C247.584 28.6853 247.392 29.2613 247.221 29.816C247.051 30.3707 246.933 30.8293 246.869 31.192C246.805 31.5333 246.816 31.704 246.901 31.704C247.2 31.704 247.552 31.5867 247.957 31.352C248.384 31.096 248.789 30.7867 249.173 30.424C249.621 29.976 250.016 29.4853 250.357 28.952C250.72 28.4187 251.083 27.8533 251.445 27.256C251.723 26.8293 252.011 26.36 252.309 25.848C252.629 25.336 252.832 24.9733 252.917 24.76C253.216 24.2053 253.44 23.832 253.589 23.64C253.739 23.4267 253.92 23.288 254.133 23.224C254.24 23.224 254.336 23.224 254.421 23.224C254.528 23.224 254.581 23.224 254.581 23.224C254.709 23.2453 254.859 23.3413 255.029 23.512C255.2 23.5973 255.296 23.6827 255.317 23.768C255.339 23.832 255.349 23.9173 255.349 24.024C255.264 24.2373 255.125 24.5573 254.933 24.984C254.763 25.3893 254.635 25.688 254.549 25.88C254.144 26.7973 253.739 27.704 253.333 28.6C252.949 29.4747 252.672 30.3707 252.501 31.288C252.459 31.5867 252.448 31.9387 252.469 32.344C252.512 32.728 252.576 33.0053 252.661 33.176C252.725 33.304 252.8 33.4533 252.885 33.624C252.992 33.7733 253.109 33.9013 253.237 34.008C253.429 34.136 253.461 34.2747 253.333 34.424C253.227 34.5733 253.077 34.7013 252.885 34.808C252.693 34.8933 252.565 34.936 252.501 34.936ZM255.417 42.136C255.268 42.072 255.108 41.9653 254.937 41.816C254.766 41.6667 254.628 41.496 254.521 41.304C254.414 41.1333 254.361 40.984 254.361 40.856C254.361 40.728 254.414 40.3867 254.521 39.832C254.628 39.2987 254.766 38.6373 254.937 37.848C255.129 37.08 255.332 36.2907 255.545 35.48C255.78 34.6907 256.014 33.9867 256.249 33.368C256.292 33.2613 256.43 32.9093 256.665 32.312C256.921 31.6933 257.166 30.9467 257.401 30.072C257.572 29.5173 257.796 28.888 258.073 28.184C258.35 27.48 258.638 26.776 258.937 26.072C259.236 25.3467 259.481 24.7067 259.673 24.152C259.865 23.5973 260.025 23.1493 260.153 22.808C260.302 22.4453 260.388 22.2213 260.409 22.136C260.452 22.008 260.516 21.9013 260.601 21.816C260.708 21.7093 260.814 21.624 260.921 21.56C261.028 21.4747 261.113 21.4213 261.177 21.4C261.561 21.2933 261.892 21.4533 262.169 21.88C262.276 22.072 262.297 22.296 262.233 22.552C262.169 22.808 262.052 23.128 261.881 23.512L261.657 24.152L262.809 23.896C263.001 23.896 263.236 23.9067 263.513 23.928C263.812 23.928 264.1 23.928 264.377 23.928C264.654 23.928 264.857 23.9493 264.985 23.992C265.497 24.0133 265.849 24.1093 266.041 24.28C266.254 24.4507 266.436 24.6747 266.585 24.952C266.692 25.0587 266.82 25.208 266.969 25.4C267.118 25.5707 267.204 25.7413 267.225 25.912C267.31 26.2747 267.31 26.6693 267.225 27.096C267.161 27.5013 267.033 27.9067 266.841 28.312C266.67 28.7173 266.436 29.0907 266.137 29.432C265.86 29.752 265.561 30.0187 265.241 30.232C265.028 30.3173 264.836 30.4133 264.665 30.52C264.494 30.6053 264.409 30.648 264.409 30.648C264.388 30.7547 264.153 30.9253 263.705 31.16C263.257 31.3733 262.745 31.576 262.169 31.768C261.593 31.96 261.092 32.088 260.665 32.152C260.516 32.1733 260.302 32.1947 260.025 32.216C259.748 32.2373 259.534 32.2053 259.385 32.12C259.15 32.0773 258.99 32.056 258.905 32.056C258.82 32.056 258.777 32.0987 258.777 32.184C258.756 32.2267 258.606 32.6747 258.329 33.528C258.052 34.3813 257.764 35.3733 257.465 36.504C257.06 37.7413 256.729 38.7227 256.473 39.448C256.217 40.1947 256.014 40.7493 255.865 41.112C255.737 41.4747 255.641 41.72 255.577 41.848C255.513 41.9973 255.46 42.0933 255.417 42.136ZM259.417 30.328C259.481 30.456 259.684 30.4987 260.025 30.456C260.388 30.392 260.814 30.264 261.305 30.072C261.817 29.8587 262.318 29.624 262.809 29.368C263.3 29.0907 263.705 28.8133 264.025 28.536C264.494 28.0027 264.878 27.512 265.177 27.064C265.476 26.5947 265.518 26.2853 265.305 26.136C265.07 25.7947 264.633 25.6347 263.993 25.656C263.353 25.6773 262.564 25.944 261.625 26.456C261.262 26.584 260.985 26.7547 260.793 26.968C260.622 27.16 260.473 27.4053 260.345 27.704C260.217 28.0027 260.057 28.3653 259.865 28.792C259.673 29.2613 259.545 29.6133 259.481 29.848C259.417 30.0827 259.396 30.2427 259.417 30.328ZM267.671 42.168C267.585 42.168 267.479 42.168 267.351 42.168C267.223 42.1893 267.105 42.104 266.999 41.912C266.913 41.8053 266.86 41.6453 266.839 41.432C266.839 41.2187 266.892 40.8347 266.999 40.28C267.105 39.9173 267.191 39.5547 267.255 39.192C267.319 38.8507 267.351 38.5947 267.351 38.424C267.351 38.3387 267.372 38.168 267.415 37.912C267.479 37.6773 267.511 37.5067 267.511 37.4C267.617 37.2293 267.703 36.9947 267.767 36.696C267.831 36.3973 267.863 36.1307 267.863 35.896C267.863 35.64 267.991 35.4053 268.247 35.192C268.247 35.0213 268.279 34.808 268.343 34.552C268.428 34.296 268.471 34.1253 268.471 34.04C268.535 33.7413 268.673 33.2187 268.887 32.472C269.121 31.704 269.399 30.84 269.719 29.88C270.06 28.92 270.391 27.9813 270.711 27.064C271.031 26.1467 271.319 25.368 271.575 24.728C271.831 24.1307 272.001 23.6187 272.087 23.192C272.193 22.744 272.247 22.4133 272.247 22.2C272.247 22.1147 272.268 22.0507 272.311 22.008C272.353 21.944 272.449 21.8267 272.599 21.656C272.812 21.4427 272.993 21.3787 273.143 21.464C273.313 21.5493 273.516 21.6773 273.751 21.848C273.921 22.1253 274.039 22.36 274.103 22.552C274.188 22.744 274.188 23.0747 274.103 23.544C274.103 23.864 274.049 24.1413 273.943 24.376C273.836 24.6107 273.74 24.792 273.655 24.92C273.569 25.0267 273.548 25.0693 273.591 25.048C274.465 24.6427 275.233 24.4293 275.895 24.408C276.577 24.3653 277.143 24.4827 277.591 24.76C278.06 25.016 278.412 25.3787 278.647 25.848C278.881 26.3173 278.999 26.8613 278.999 27.48C278.999 27.736 278.945 28.0453 278.839 28.408C278.732 28.7493 278.593 29.0693 278.423 29.368C278.273 29.6453 278.135 29.848 278.007 29.976C277.921 29.976 277.836 30.0507 277.751 30.2C277.665 30.328 277.58 30.4773 277.495 30.648C277.324 30.8613 277.047 31.1067 276.663 31.384C276.3 31.64 275.937 31.8533 275.575 32.024C275.212 32.1733 274.945 32.216 274.775 32.152C274.775 32.152 274.743 32.1627 274.679 32.184C274.636 32.184 274.615 32.2373 274.615 32.344C274.615 32.3867 274.444 32.4827 274.103 32.632C273.761 32.76 273.367 32.888 272.919 33.016C272.471 33.1227 272.076 33.176 271.735 33.176C271.287 33.176 270.967 33.0907 270.775 32.92C270.732 32.9627 270.679 33.0267 270.615 33.112C270.572 33.1973 270.551 33.272 270.551 33.336C270.551 33.464 270.497 33.7093 270.391 34.072C270.305 34.4133 270.199 34.744 270.071 35.064C269.943 35.384 269.825 35.544 269.719 35.544C269.719 35.544 269.697 35.576 269.655 35.64C269.612 35.704 269.633 35.7893 269.719 35.896C269.719 35.896 269.708 36.0133 269.687 36.248C269.687 36.504 269.633 36.7173 269.527 36.888C269.527 37.0587 269.495 37.3147 269.431 37.656C269.367 37.9973 269.292 38.2533 269.207 38.424C269.207 38.68 269.164 38.9253 269.079 39.16C269.015 39.416 268.94 39.544 268.855 39.544C268.769 39.5653 268.716 39.6933 268.695 39.928C268.673 40.184 268.663 40.3653 268.663 40.472C268.641 41.0053 268.535 41.4213 268.343 41.72C268.151 42.0187 267.927 42.168 267.671 42.168ZM271.543 31.48C271.713 31.48 272.065 31.4053 272.599 31.256C273.132 31.1067 273.676 30.9253 274.231 30.712C274.807 30.4773 275.233 30.2427 275.511 30.008C276.065 29.5173 276.492 28.9627 276.791 28.344C277.111 27.704 277.089 27.096 276.727 26.52C276.556 26.2213 276.247 26.104 275.799 26.168C275.351 26.2107 274.86 26.3813 274.327 26.68C273.793 26.9787 273.292 27.352 272.823 27.8C272.567 28.0773 272.332 28.4187 272.119 28.824C271.905 29.2293 271.724 29.6347 271.575 30.04C271.447 30.4453 271.372 30.7867 271.351 31.064C271.329 31.3413 271.393 31.48 271.543 31.48ZM283.253 34.232C282.421 33.8907 281.877 33.4213 281.621 32.824C281.386 32.2053 281.343 31.256 281.493 29.976C281.535 29.3147 281.557 28.8773 281.557 28.664C281.557 28.4507 281.439 28.2373 281.205 28.024C281.141 27.9387 281.023 27.8213 280.853 27.672C280.703 27.5227 280.639 27.3947 280.661 27.288C280.639 27.1387 280.65 26.9787 280.693 26.808C280.735 26.616 280.799 26.52 280.885 26.52C280.97 26.52 281.055 26.4987 281.141 26.456C281.247 26.4133 281.343 26.4133 281.429 26.456C281.514 26.456 281.61 26.4667 281.717 26.488C281.823 26.5093 281.877 26.5627 281.877 26.648C281.962 26.7973 282.101 26.8187 282.293 26.712C282.485 26.584 282.687 26.3067 282.901 25.88C283.114 25.5387 283.391 25.1973 283.733 24.856C284.095 24.5147 284.447 24.2053 284.789 23.928C285.151 23.6293 285.45 23.416 285.685 23.288C285.791 23.2453 285.951 23.192 286.165 23.128C286.378 23.064 286.602 23.0107 286.837 22.968C287.093 22.9253 287.306 22.9147 287.477 22.936C287.861 22.9573 288.181 23.064 288.437 23.256C288.714 23.448 288.97 23.672 289.205 23.928C289.482 24.12 289.653 24.376 289.717 24.696C289.802 25.016 289.823 25.3573 289.781 25.72C289.738 26.0827 289.642 26.4133 289.493 26.712C289.429 26.9253 289.247 27.1813 288.949 27.48C288.65 27.7787 288.309 28.0667 287.925 28.344C287.541 28.6213 287.189 28.824 286.869 28.952C286.591 29.016 286.229 29.0693 285.781 29.112C285.354 29.1547 284.949 29.176 284.565 29.176C284.202 29.1547 283.957 29.112 283.829 29.048C283.679 28.9627 283.562 29.08 283.477 29.4C283.391 29.72 283.327 30.1787 283.285 30.776C283.242 31.2453 283.242 31.5867 283.285 31.8C283.327 32.0133 283.37 32.1627 283.413 32.248C283.562 32.3973 283.765 32.5893 284.021 32.824C284.298 33.0373 284.682 33.0693 285.173 32.92C285.578 32.8133 285.973 32.536 286.357 32.088C286.762 31.64 287.135 31.2773 287.477 31C287.562 30.8507 287.701 30.7653 287.893 30.744C288.106 30.7013 288.33 30.712 288.565 30.776C288.799 30.9253 288.895 31.1067 288.853 31.32C288.831 31.512 288.725 31.8107 288.533 32.216C288.469 32.3653 288.319 32.5573 288.085 32.792C287.871 33.0053 287.626 33.2293 287.349 33.464C287.093 33.6773 286.858 33.848 286.645 33.976C286.005 34.3173 285.407 34.4987 284.853 34.52C284.298 34.52 283.765 34.424 283.253 34.232ZM285.141 27.736C285.61 27.6293 285.983 27.5547 286.26 27.512C286.538 27.4693 286.805 27.352 287.061 27.16C287.317 26.9467 287.637 26.552 288.021 25.976C288.106 25.7413 288.127 25.5067 288.085 25.272C288.063 25.0373 288.01 24.8773 287.925 24.792C287.733 24.5787 287.498 24.5147 287.22 24.6C286.965 24.664 286.719 24.7813 286.485 24.952C286.335 25.016 286.111 25.176 285.812 25.432C285.535 25.6667 285.258 25.944 284.981 26.264C284.703 26.5627 284.479 26.84 284.309 27.096C284.138 27.352 284.095 27.5013 284.181 27.544C284.138 27.6293 284.255 27.6827 284.533 27.704C284.831 27.7253 285.034 27.736 285.141 27.736ZM301.339 34.616C301.125 34.616 300.901 34.4987 300.667 34.264C300.453 34.0293 300.261 33.7413 300.091 33.4C299.941 33.0373 299.867 32.696 299.867 32.376C299.867 32.056 299.941 31.4587 300.091 30.584C300.261 29.7093 300.464 28.824 300.699 27.928C300.869 27.3733 300.923 27.0533 300.859 26.968C300.795 26.8827 300.507 27 299.995 27.32C299.696 27.4693 299.429 27.6293 299.195 27.8C298.96 27.9493 298.757 28.12 298.587 28.312C298.48 28.3973 298.32 28.536 298.107 28.728C297.893 28.92 297.669 29.1013 297.435 29.272C297.157 29.4853 296.805 29.784 296.379 30.168C295.952 30.552 295.525 30.936 295.099 31.32C294.693 31.704 294.384 32.0027 294.171 32.216C294.128 32.3013 294.064 32.376 293.979 32.44C293.893 32.504 293.797 32.5467 293.691 32.568C293.584 32.568 293.467 32.5467 293.339 32.504C293.104 32.44 292.88 32.3013 292.667 32.088C292.475 31.8747 292.379 31.6293 292.379 31.352C292.379 31.1387 292.464 30.776 292.635 30.264C292.805 29.7307 293.029 29.0907 293.307 28.344C293.605 27.5973 293.947 26.808 294.331 25.976C294.395 25.8693 294.448 25.7413 294.491 25.592C294.533 25.4213 294.565 25.24 294.587 25.048C294.629 24.856 294.651 24.6747 294.651 24.504C294.651 24.3973 294.661 24.2907 294.683 24.184C294.725 24.056 294.768 23.9387 294.811 23.832C294.875 23.704 294.928 23.6187 294.971 23.576C295.056 23.4053 295.205 23.3627 295.419 23.448C295.632 23.512 295.813 23.6613 295.963 23.896C296.283 24.1947 296.443 24.568 296.443 25.016C296.464 25.464 296.357 26.0187 296.123 26.68C296.037 26.8293 295.963 26.9787 295.899 27.128C295.856 27.256 295.813 27.3733 295.771 27.48C295.728 27.5653 295.696 27.64 295.675 27.704C295.653 27.7467 295.643 27.768 295.643 27.768C295.728 27.768 295.92 27.672 296.219 27.48C296.517 27.288 296.869 27.0747 297.275 26.84C297.595 26.6053 297.872 26.392 298.107 26.2C298.363 25.9867 298.576 25.8267 298.747 25.72C298.917 25.592 299.024 25.528 299.067 25.528C299.152 25.528 299.259 25.496 299.387 25.432C299.515 25.368 299.621 25.2933 299.707 25.208C299.792 25.1227 299.856 25.08 299.899 25.08C299.963 25.0587 299.995 25.048 299.995 25.048C299.995 25.048 300.037 25.048 300.123 25.048C300.208 25.0267 300.293 24.9733 300.379 24.888C300.549 24.76 300.773 24.728 301.051 24.792C301.328 24.8347 301.584 24.9413 301.819 25.112C302.053 25.2827 302.171 25.4747 302.171 25.688C302.171 25.7733 302.192 25.848 302.235 25.912C302.299 25.9547 302.331 25.976 302.331 25.976C302.501 25.976 302.608 26.2427 302.651 26.776C302.715 27.3093 302.661 27.8213 302.491 28.312C302.491 28.632 302.427 29.016 302.299 29.464C302.192 29.912 302.096 30.3387 302.011 30.744C301.84 31.2773 301.723 31.7467 301.659 32.152C301.595 32.5573 301.584 32.8987 301.627 33.176C301.669 33.4533 301.744 33.6773 301.851 33.848C301.936 33.9973 301.936 34.168 301.851 34.36C301.765 34.5307 301.595 34.616 301.339 34.616ZM308.929 29.56C308.332 29.6667 307.937 29.3787 307.745 28.696C307.553 28.0133 307.606 27.0747 307.905 25.88C308.033 25.624 308.14 25.3787 308.225 25.144C308.31 24.888 308.353 24.6853 308.353 24.536C308.438 24.2587 308.545 23.9387 308.673 23.576C308.822 23.192 308.972 22.84 309.121 22.52C309.27 22.1787 309.377 21.9547 309.441 21.848C309.526 21.848 309.612 21.7733 309.697 21.624C309.804 21.4747 309.857 21.3253 309.857 21.176C309.857 21.0053 309.889 20.8133 309.953 20.6C310.038 20.3867 310.124 20.2373 310.209 20.152C310.209 20.0453 310.252 19.928 310.337 19.8C310.422 19.672 310.465 19.5653 310.465 19.48C310.465 19.3947 310.486 19.32 310.529 19.256C310.593 19.192 310.625 19.1173 310.625 19.032C310.817 18.6907 311.062 18.1893 311.361 17.528C311.681 16.8453 311.99 16.1307 312.289 15.384C312.609 14.6373 312.876 13.976 313.089 13.4C313.302 12.824 313.409 12.472 313.409 12.344C313.452 12.1733 313.516 12.0453 313.601 11.96C313.686 11.8747 313.814 11.8533 313.985 11.896C314.07 11.832 314.156 11.8 314.241 11.8C314.326 11.7787 314.412 11.768 314.497 11.768C314.497 11.768 314.529 11.8107 314.593 11.896C314.678 11.9813 314.796 12.1093 314.945 12.28C315.116 12.4293 315.212 12.6 315.233 12.792C315.254 12.984 315.265 13.208 315.265 13.464C315.244 13.8693 315.094 14.328 314.817 14.84C314.54 15.352 314.23 15.9173 313.889 16.536C313.676 16.9413 313.462 17.3253 313.249 17.688C313.057 18.0507 312.961 18.2747 312.961 18.36C312.961 18.4453 312.918 18.5733 312.833 18.744C312.748 18.9147 312.652 19.128 312.545 19.384C312.417 19.5973 312.278 19.8533 312.129 20.152C311.98 20.4507 311.841 20.728 311.713 20.984C311.606 21.2187 311.553 21.368 311.553 21.432C311.532 21.5173 311.5 21.6027 311.457 21.688C311.436 21.7733 311.382 21.8587 311.297 21.944C311.212 21.944 311.158 22.008 311.137 22.136C311.137 22.2427 311.137 22.296 311.137 22.296C311.137 22.3813 311.084 22.584 310.977 22.904C310.892 23.2027 310.742 23.5653 310.529 23.992C310.124 25.1227 309.836 26.0293 309.665 26.712C309.494 27.3733 309.388 27.9387 309.345 28.408C309.302 28.92 309.26 29.2187 309.217 29.304C309.196 29.3893 309.1 29.4747 308.929 29.56ZM307.201 34.68C306.796 34.8293 306.454 34.904 306.177 34.904C305.921 34.8827 305.633 34.7547 305.313 34.52C304.908 34.136 304.769 33.752 304.897 33.368C305.046 32.9627 305.398 32.568 305.953 32.184C306.337 31.9493 306.614 31.8213 306.785 31.8C306.977 31.7787 307.265 31.8533 307.649 32.024C308.289 32.4293 308.566 32.8773 308.481 33.368C308.417 33.8587 307.99 34.296 307.201 34.68Z" fill="#FF1054"/>
</svg>
