<svg width="241" height="32" viewBox="0 0 241 32" fill="none" xmlns="http://www.w3.org/2000/svg">
<path d="M4.56 25.824C3.64267 25.2267 3.024 24.704 2.704 24.256C2.384 23.8293 2.512 23.4347 3.088 23.072C3.216 22.9867 3.41867 23.0613 3.696 23.296C3.99467 23.5093 4.24 23.712 4.432 23.904C4.85867 24.288 5.38133 24.5227 6 24.608C6.64 24.7147 7.35467 24.6613 8.144 24.448C9.04 24.1707 9.81867 23.7867 10.48 23.296C11.1627 22.784 11.8027 22.1653 12.4 21.44C12.848 20.864 13.1573 20.2453 13.328 19.584C13.4987 18.9013 13.5627 18.272 13.52 17.696C13.4987 17.12 13.3813 16.7147 13.168 16.48C12.6347 15.7333 11.888 15.2213 10.928 14.944C9.98933 14.6453 8.88 14.6667 7.6 15.008C7.45067 15.0293 7.22667 15.072 6.928 15.136C6.62933 15.2 6.36267 15.264 6.128 15.328C5.89333 15.3707 5.76533 15.392 5.744 15.392C5.59467 15.4347 5.47733 15.488 5.392 15.552C5.30667 15.5947 5.2 15.7547 5.072 16.032C4.96533 16.288 4.79467 16.7573 4.56 17.44C4.32533 18.1013 3.97333 19.0827 3.504 20.384C3.056 21.6853 2.69333 22.6133 2.416 23.168C2.16 23.7013 1.92533 23.9467 1.712 23.904C1.52 23.84 1.27467 23.6053 0.976 23.2C0.805333 22.9013 0.698667 22.6133 0.656 22.336C0.613333 22.0373 0.698667 21.696 0.912 21.312C1.01867 21.12 1.104 20.9493 1.168 20.8C1.232 20.6293 1.31733 20.3413 1.424 19.936C1.53067 19.616 1.73333 19.0613 2.032 18.272C2.352 17.4613 2.72533 16.5227 3.152 15.456C3.57867 14.368 4.02667 13.248 4.496 12.096C4.96533 10.944 5.41333 9.856 5.84 8.832C6.288 7.808 6.66133 6.944 6.96 6.24C7.25867 5.57867 7.44 5.09867 7.504 4.8C7.568 4.50133 7.54667 4.34133 7.44 4.32C7.44 4.21333 7.408 4.11733 7.344 4.032C7.28 3.92533 7.25867 3.82933 7.28 3.744C7.28 3.65867 7.41867 3.54133 7.696 3.392C7.99467 3.24267 8.31467 3.104 8.656 2.976C9.01867 2.848 9.296 2.80533 9.488 2.848C9.59467 2.848 9.72267 2.848 9.872 2.848C10.0213 2.82667 10.096 2.77333 10.096 2.688C10.16 2.688 10.3627 2.66667 10.704 2.624C11.0453 2.58133 11.4187 2.58133 11.824 2.624C13.2533 2.752 14.3627 3.168 15.152 3.872C15.9413 4.55467 16.3253 5.49333 16.304 6.688C16.2827 7.05067 16.0907 7.54133 15.728 8.16C15.3867 8.77867 14.96 9.39733 14.448 10.016C13.9573 10.6347 13.4773 11.1573 13.008 11.584C12.7307 11.8187 12.432 12.064 12.112 12.32C11.8133 12.5547 11.5467 12.7573 11.312 12.928C11.0987 13.0773 10.992 13.152 10.992 13.152C10.992 13.152 11.0773 13.184 11.248 13.248C11.4187 13.312 11.6 13.376 11.792 13.44C12.7733 13.8027 13.584 14.2613 14.224 14.816C14.864 15.3707 15.3013 16.1387 15.536 17.12C15.6213 17.44 15.6213 17.8347 15.536 18.304C15.472 18.7733 15.376 19.2427 15.248 19.712C15.12 20.16 14.9813 20.544 14.832 20.864C14.6827 21.0133 14.5653 21.1733 14.48 21.344C14.3947 21.4933 14.352 21.568 14.352 21.568C14.352 21.6107 14.2667 21.7813 14.096 22.08C13.9253 22.3573 13.7227 22.6667 13.488 23.008C13.2533 23.3493 13.0293 23.648 12.816 23.904C12.6027 24.0747 12.3467 24.2773 12.048 24.512C11.7707 24.7467 11.4507 24.9707 11.088 25.184C10.7467 25.3973 10.3733 25.5787 9.968 25.728C9.37067 25.984 8.72 26.1547 8.016 26.24C7.33333 26.3467 6.68267 26.3573 6.064 26.272C5.44533 26.208 4.944 26.0587 4.56 25.824ZM6.128 13.504C6.128 13.504 6.32 13.472 6.704 13.408C7.10933 13.3227 7.54667 13.2373 8.016 13.152C8.48533 13.0453 8.82667 12.9493 9.04 12.864C9.14667 12.8 9.296 12.7147 9.488 12.608C9.70133 12.5013 9.91467 12.3413 10.128 12.128C10.4267 11.8507 10.8 11.456 11.248 10.944C11.7173 10.4107 12.176 9.856 12.624 9.28C13.072 8.68267 13.4133 8.14933 13.648 7.68C14.1387 6.912 14.4053 6.34667 14.448 5.984C14.4907 5.6 14.3733 5.26933 14.096 4.992C13.904 4.75733 13.5733 4.608 13.104 4.544C12.656 4.45867 12.176 4.43733 11.664 4.48C11.152 4.50133 10.7147 4.56533 10.352 4.672C10.0747 4.75733 9.86133 4.864 9.712 4.992C9.56267 5.09867 9.488 5.26933 9.488 5.504C9.488 5.696 9.424 5.888 9.296 6.08C9.18933 6.25067 9.08267 6.38933 8.976 6.496C8.95467 6.64533 8.90133 6.784 8.816 6.912C8.73067 7.01867 8.688 7.072 8.688 7.072C8.688 7.15733 8.53867 7.50933 8.24 8.128C7.94133 8.74667 7.64267 9.46133 7.344 10.272C6.96 11.1893 6.66133 11.936 6.448 12.512C6.23467 13.0667 6.128 13.3973 6.128 13.504ZM19.0975 24C18.6922 24.1067 18.3615 24.0213 18.1055 23.744C17.8708 23.4667 17.7322 23.04 17.6895 22.464C17.6468 21.888 17.7108 21.2053 17.8815 20.416C17.9882 20.16 18.0735 19.9147 18.1375 19.68C18.2015 19.424 18.2335 19.2213 18.2335 19.072C18.2762 18.8587 18.3615 18.5493 18.4895 18.144C18.6175 17.7173 18.7562 17.28 18.9055 16.832C19.0548 16.384 19.1935 15.9893 19.3215 15.648C19.4708 15.2853 19.5668 15.0613 19.6095 14.976C19.6948 14.976 19.7695 14.9013 19.8335 14.752C19.8975 14.6027 19.9295 14.4533 19.9295 14.304C19.9295 14.1333 19.9615 13.9413 20.0255 13.728C20.1108 13.5147 20.1962 13.3653 20.2815 13.28C20.2815 13.1733 20.3028 13.056 20.3455 12.928C20.4095 12.7787 20.4415 12.6613 20.4415 12.576C20.4415 12.4907 20.4628 12.4053 20.5055 12.32C20.5695 12.2347 20.6015 12.1493 20.6015 12.064C20.7508 11.7867 20.9428 11.3493 21.1775 10.752C21.4335 10.1333 21.7002 9.45067 21.9775 8.704C22.2762 7.95733 22.5535 7.22133 22.8095 6.496C23.0655 5.77067 23.2682 5.16267 23.4175 4.672C23.5882 4.16 23.6735 3.85067 23.6735 3.744C23.6735 3.57333 23.7162 3.44533 23.8015 3.36C23.8868 3.27467 24.0148 3.232 24.1855 3.232C24.2495 3.168 24.3242 3.12533 24.4095 3.104C24.5162 3.08267 24.6122 3.072 24.6975 3.072C24.6975 3.072 24.7402 3.11467 24.8255 3.2C24.9108 3.28533 25.0388 3.41333 25.2095 3.584C25.3802 3.73333 25.4762 3.904 25.4975 4.096C25.5402 4.288 25.5615 4.512 25.5615 4.768C25.5615 5.04533 25.5295 5.29067 25.4655 5.504C25.4015 5.71733 25.2735 6.02667 25.0815 6.432C24.8895 6.83733 24.5908 7.46667 24.1855 8.32C24.0148 8.74667 23.8335 9.152 23.6415 9.536C23.4495 9.89867 23.3535 10.1227 23.3535 10.208C23.3535 10.2933 23.3108 10.4213 23.2255 10.592C23.1615 10.7627 23.0868 10.976 23.0015 11.232C22.9162 11.4027 22.7988 11.6587 22.6495 12C22.5002 12.32 22.3402 12.672 22.1695 13.056C22.0202 13.4187 21.8922 13.7387 21.7855 14.016C21.6788 14.272 21.6255 14.4213 21.6255 14.464C21.6255 14.5493 21.6148 14.6347 21.5935 14.72C21.5935 14.8053 21.5508 14.8907 21.4655 14.976C21.3802 14.976 21.3268 15.04 21.3055 15.168C21.3055 15.2747 21.3055 15.328 21.3055 15.328C21.3055 15.5413 21.1348 16.1067 20.7935 17.024C20.4522 18.1973 20.1322 19.2747 19.8335 20.256C19.5562 21.2373 19.4175 22.0267 19.4175 22.624C19.4175 23.136 19.4068 23.4773 19.3855 23.648C19.3642 23.7973 19.2682 23.9147 19.0975 24ZM23.8958 22.976C23.7251 22.8053 23.5971 22.592 23.5118 22.336C23.4478 22.08 23.4264 21.824 23.4478 21.568C23.4691 21.312 23.5224 21.0987 23.6078 20.928C23.6078 20.7573 23.6291 20.6293 23.6718 20.544C23.7358 20.4373 23.7571 20.3413 23.7358 20.256C23.7144 20.1707 23.7358 20.0213 23.7998 19.808C23.8638 19.5947 23.9278 19.392 23.9918 19.2C24.1411 18.8587 24.3011 18.4533 24.4718 17.984C24.6424 17.4933 24.8024 17.0133 24.9518 16.544C25.1011 16.0747 25.2291 15.6693 25.3358 15.328C25.4424 14.9867 25.5064 14.7733 25.5278 14.688C25.5278 14.432 25.6984 14.2933 26.0398 14.272C26.2958 14.1867 26.4878 14.1867 26.6158 14.272C26.7438 14.336 26.9144 14.5387 27.1278 14.88C27.2984 15.0507 27.3624 15.3067 27.3198 15.648C27.2771 15.9893 27.1384 16.416 26.9038 16.928C26.8184 17.0987 26.7118 17.344 26.5838 17.664C26.4771 17.984 26.4024 18.272 26.3598 18.528C26.2744 18.6987 26.1678 18.944 26.0398 19.264C25.9331 19.5627 25.8371 19.8507 25.7518 20.128C25.7091 20.2347 25.6664 20.3947 25.6238 20.608C25.5811 20.8 25.5278 21.0133 25.4638 21.248C25.3998 21.4613 25.3144 21.6533 25.2078 21.824C25.0158 22.6987 24.8344 23.2107 24.6638 23.36C24.5144 23.5093 24.2584 23.3813 23.8958 22.976ZM26.9998 9.984C26.8931 9.87733 26.7971 9.728 26.7118 9.536C26.6264 9.32267 26.5731 9.13067 26.5518 8.96C26.5304 8.768 26.5518 8.672 26.6158 8.672C26.7864 8.65067 26.9891 8.46933 27.2238 8.128C27.4584 7.78667 27.5544 7.488 27.5118 7.232C27.5118 7.14667 27.5438 7.072 27.6078 7.008C27.6718 6.92267 27.7464 6.86933 27.8318 6.848C28.0878 6.67733 28.3331 6.656 28.5677 6.784C28.8238 6.89067 29.0584 7.11467 29.2718 7.456C29.4638 7.86133 29.5171 8.20267 29.4318 8.48C29.3464 8.736 29.1118 9.09867 28.7278 9.568C28.4078 9.99467 28.1091 10.2293 27.8318 10.272C27.5758 10.3147 27.2984 10.2187 26.9998 9.984ZM32.7765 22.976C32.5632 23.1253 32.4138 23.2 32.3285 23.2C32.2432 23.1787 32.0832 23.0507 31.8485 22.816C31.4432 22.432 31.1552 21.7067 30.9845 20.64C30.8352 19.552 30.7605 18.0267 30.7605 16.064C30.8458 15.1893 30.8885 14.4427 30.8885 13.824C30.9098 13.2053 30.9205 12.8533 30.9205 12.768C30.9845 12.6827 31.1125 12.64 31.3045 12.64C31.5178 12.64 31.6992 12.6827 31.8485 12.768C32.0618 12.8747 32.2005 13.0347 32.2645 13.248C32.3498 13.4613 32.4032 13.8453 32.4245 14.4C32.4458 14.9333 32.4565 15.7547 32.4565 16.864C32.3925 17.7173 32.3605 18.464 32.3605 19.104C32.3605 19.7227 32.3925 20.0747 32.4565 20.16C32.5418 20.3093 32.6378 20.352 32.7445 20.288C32.8725 20.2027 33.0965 20 33.4165 19.68C33.5872 19.4453 33.8005 19.136 34.0565 18.752C34.3125 18.3467 34.5152 18.0267 34.6645 17.792C34.8992 17.4933 35.1125 17.2053 35.3045 16.928C35.5178 16.6507 35.6672 16.4693 35.7525 16.384C35.8378 16.2133 35.9445 16.0533 36.0725 15.904C36.2005 15.7547 36.3072 15.6053 36.3925 15.456C36.6272 15.0507 36.8725 14.72 37.1285 14.464C37.3845 14.1867 37.5552 14.048 37.6405 14.048C37.7258 14.112 37.8005 14.1333 37.8645 14.112C37.9498 14.0693 38.0352 14.048 38.1205 14.048C38.2698 13.8987 38.4725 13.8987 38.7285 14.048C38.8138 14.112 38.8885 14.1867 38.9525 14.272C39.0165 14.336 39.0485 14.4107 39.0485 14.496C39.0485 14.6027 38.9632 14.8267 38.7925 15.168C38.6432 15.5093 38.4618 15.84 38.2485 16.16C38.0565 16.4587 37.9072 16.64 37.8005 16.704C37.8005 16.704 37.7685 16.736 37.7045 16.8C37.6405 16.864 37.5658 16.9387 37.4805 17.024C37.4378 17.1733 37.2992 17.44 37.0645 17.824C36.8298 18.1867 36.5418 18.6027 36.2005 19.072C35.8592 19.5413 35.5072 20.0107 35.1445 20.48C34.7818 20.9493 34.4618 21.3653 34.1845 21.728C33.9712 22.0267 33.7258 22.2933 33.4485 22.528C33.1712 22.7413 32.9472 22.8907 32.7765 22.976ZM50.9283 24.096C49.9896 24.096 49.2216 23.744 48.6243 23.04C48.0269 22.3147 47.7389 21.4187 47.7603 20.352C47.8029 19.584 47.9523 18.7627 48.2083 17.888C48.4856 16.992 48.8483 16.1387 49.2963 15.328C49.7443 14.496 50.2349 13.7707 50.7683 13.152C51.3016 12.5333 51.8563 12.096 52.4323 11.84C52.6456 11.7333 52.8696 11.648 53.1042 11.584C53.3603 11.52 53.6163 11.488 53.8723 11.488C54.1069 11.488 54.3523 11.5307 54.6083 11.616C54.8643 11.68 55.0776 11.7547 55.2483 11.84C55.6109 11.9893 55.8883 12.1707 56.0803 12.384C56.2723 12.5973 56.4429 12.928 56.5923 13.376C56.6563 13.7813 56.6883 14.0693 56.6883 14.24C56.6883 14.4107 56.6349 14.6667 56.5283 15.008C56.2723 15.776 55.9416 16.4373 55.5363 16.992C55.1309 17.5467 54.5869 18.016 53.9043 18.4C53.7336 18.5067 53.5309 18.592 53.2963 18.656C53.0829 18.6987 52.8589 18.72 52.6243 18.72C52.1976 18.72 51.7816 18.6453 51.3763 18.496C50.9923 18.3253 50.6829 18.08 50.4483 17.76L50.2243 17.504L50.1283 17.76C49.9149 18.336 49.7443 18.8693 49.6163 19.36C49.5096 19.8507 49.4563 20.2987 49.4563 20.704C49.4563 20.96 49.4776 21.2053 49.5203 21.44C49.5843 21.6747 49.6696 21.8773 49.7763 22.048C49.8616 22.176 50.0003 22.272 50.1923 22.336C50.4056 22.3787 50.6296 22.4 50.8643 22.4C51.0136 22.4 51.1629 22.4 51.3123 22.4C51.4829 22.3787 51.6429 22.336 51.7923 22.272C52.1549 22.144 52.4429 22.0053 52.6562 21.856C52.8909 21.7067 53.1256 21.5467 53.3603 21.376L53.4883 21.312H53.4563C53.7123 21.184 53.9363 21.056 54.1283 20.928C54.3416 20.8 54.4483 20.736 54.4483 20.736C54.5336 20.736 54.6189 20.6827 54.7043 20.576C54.8749 20.4907 55.0883 20.5227 55.3443 20.672C55.6216 20.8213 55.7603 21.0133 55.7603 21.248C55.7389 21.3547 55.6429 21.5253 55.4723 21.76C55.3016 21.9733 55.1096 22.176 54.8963 22.368C54.7043 22.56 54.5443 22.6667 54.4163 22.688C54.3949 22.7093 54.3203 22.752 54.1923 22.816C54.0643 22.8587 53.9789 22.9013 53.9363 22.944H53.9683C53.7763 23.2 53.5843 23.328 53.3923 23.328H53.1363C53.0509 23.4773 52.7736 23.648 52.3043 23.84C51.8349 24.0107 51.3763 24.096 50.9283 24.096ZM52.3683 17.056C52.7523 17.056 53.0829 16.9493 53.3603 16.736C53.6589 16.5013 53.9149 16.2453 54.1283 15.968C54.5549 15.392 54.8003 14.8373 54.8643 14.304C54.9496 13.7493 54.8856 13.3653 54.6723 13.152C54.5443 13.088 54.4269 13.056 54.3203 13.056C54.2349 13.0347 54.0536 13.0667 53.7763 13.152C53.5843 13.1947 53.3176 13.3547 52.9763 13.632C52.6349 13.9093 52.2936 14.2187 51.9523 14.56C51.6323 14.9013 51.3869 15.1893 51.2163 15.424L50.8003 16.096C50.9709 16.032 51.1309 16 51.2803 16C51.4509 15.9787 51.5469 15.9893 51.5683 16.032C51.5683 16.224 51.6003 16.4053 51.6643 16.576C51.7496 16.7253 51.8456 16.8427 51.9523 16.928C52.0803 17.0133 52.2189 17.056 52.3683 17.056ZM59.7985 22.592C59.7132 22.592 59.5852 22.5387 59.4145 22.432C59.2652 22.304 59.1478 22.1973 59.0625 22.112C58.9132 21.9413 58.8172 21.7707 58.7745 21.6C58.7532 21.4293 58.7425 21.0453 58.7425 20.448C58.7425 19.7653 58.8812 19.0293 59.1585 18.24C59.4358 17.4293 59.9052 16.2987 60.5665 14.848L61.6225 12.608C61.7078 12.4373 61.7825 12.3093 61.8465 12.224C61.9318 12.1387 62.0065 12.0533 62.0705 11.968C62.1558 11.968 62.2305 11.968 62.2945 11.968C62.3585 11.968 62.3905 11.968 62.3905 11.968C62.5612 11.968 62.7318 12.0747 62.9025 12.288C63.0732 12.48 63.2012 12.6933 63.2865 12.928C63.2865 13.2053 63.2438 13.4933 63.1585 13.792C63.0945 14.0907 62.8385 14.5387 62.3905 15.136C62.2412 15.3707 62.0385 15.7653 61.7825 16.32C61.5478 16.8747 61.3878 17.3547 61.3025 17.76C61.2812 17.7813 61.2385 17.8773 61.1745 18.048C61.1105 18.1973 61.0358 18.368 60.9505 18.56C60.8865 18.752 60.8118 18.9333 60.7265 19.104L60.5665 19.808L62.7105 17.6C63.7132 16.5973 64.5238 15.8827 65.1425 15.456C65.7612 15.0293 66.2518 14.848 66.6145 14.912C66.9772 14.976 67.2865 15.264 67.5425 15.776C67.6918 16.0107 67.7985 16.224 67.8625 16.416C67.9478 16.5867 68.0012 16.8213 68.0225 17.12C68.0438 17.4187 68.0225 17.8667 67.9585 18.464V20.448C68.2785 20.3627 68.5345 20.288 68.7265 20.224C68.9185 20.1387 69.1212 20.0533 69.3345 19.968C69.5265 19.8827 69.7505 19.808 70.0065 19.744C70.2625 19.6587 70.5825 19.6053 70.9665 19.584C70.9452 19.8613 70.8492 20.16 70.6785 20.48C70.5078 20.7787 70.2945 21.0667 70.0385 21.344C69.7825 21.6213 69.4945 21.8453 69.1745 22.016C68.8758 22.1867 68.5772 22.272 68.2785 22.272C68.0012 22.272 67.6918 22.1333 67.3505 21.856C67.0092 21.5787 66.7638 21.2693 66.6145 20.928C66.5292 20.6933 66.4758 20.4373 66.4545 20.16C66.4545 19.8827 66.4545 19.3707 66.4545 18.624V17.44C66.4545 17.0987 66.3478 17.0027 66.1345 17.152C65.9425 17.28 65.7825 17.3973 65.6545 17.504C65.3345 17.7813 64.9932 18.1013 64.6305 18.464C64.2892 18.8267 63.9372 19.2 63.5745 19.584C62.5932 20.608 61.7718 21.3653 61.1105 21.856C60.4705 22.3467 60.0332 22.592 59.7985 22.592ZM88.8028 24.608C88.5254 24.672 88.2908 24.6293 88.0988 24.48C87.9281 24.352 87.8001 24.16 87.7148 23.904C87.5441 23.4133 87.4161 22.88 87.3308 22.304C87.2668 21.7067 87.2561 21.184 87.2988 20.736L87.3628 20.064L86.1148 21.056C85.3894 21.696 84.6854 22.1547 84.0028 22.432C83.3414 22.7093 82.7548 22.848 82.2428 22.848C82.0081 22.8053 81.7734 22.72 81.5388 22.592C81.3041 22.464 81.0908 22.304 80.8988 22.112C80.7281 21.92 80.5894 21.7173 80.4828 21.504C80.3548 21.2053 80.3121 20.8 80.3548 20.288C80.4188 19.776 80.5468 19.2213 80.7388 18.624C80.9521 18.0053 81.2081 17.408 81.5068 16.832C81.8268 16.2347 82.1894 15.712 82.5948 15.264C83.2988 14.1973 84.0561 13.5467 84.8668 13.312C85.6774 13.0773 86.4774 13.1947 87.2668 13.664C87.8214 13.8987 88.1628 14.0053 88.2908 13.984C88.4401 13.9627 88.5681 13.7173 88.6748 13.248C88.7601 12.9067 88.8454 12.5653 88.9308 12.224C89.0161 11.8613 89.1548 11.3813 89.3468 10.784C89.8801 9.16267 90.3388 7.89333 90.7228 6.976C91.1281 6.05867 91.4908 5.25867 91.8108 4.576C92.0454 4.08533 92.2374 3.78666 92.3868 3.68C92.5574 3.552 92.7281 3.49867 92.8988 3.52C93.1334 3.52 93.3468 3.60533 93.5388 3.776C93.7308 3.94667 93.8801 4.18133 93.9868 4.48C94.0721 4.672 94.1041 4.84267 94.0828 4.992C94.0828 5.12 94.0188 5.30133 93.8908 5.536C93.6134 6.048 93.2828 6.73067 92.8988 7.584C92.5361 8.416 92.1628 9.33333 91.7788 10.336C91.4161 11.3387 91.0748 12.3307 90.7548 13.312C90.4348 14.2933 90.1681 15.1573 89.9548 15.904C89.8268 16.3733 89.7094 16.9707 89.6028 17.696C89.5174 18.4213 89.4428 19.168 89.3788 19.936C89.3148 20.6827 89.2721 21.3547 89.2508 21.952C89.2508 22.528 89.2721 22.9013 89.3148 23.072C89.4428 23.4987 89.4961 23.8187 89.4748 24.032C89.4748 24.2453 89.4214 24.384 89.3148 24.448C89.2081 24.5333 89.0374 24.5867 88.8028 24.608ZM83.3948 21.056C83.6934 20.992 83.9814 20.8747 84.2588 20.704C84.5574 20.5333 84.8668 20.3307 85.1868 20.096C85.8268 19.6053 86.3814 19.1573 86.8508 18.752C87.3201 18.3467 87.6294 17.728 87.7788 16.896C87.8214 16.4907 87.7788 16.1707 87.6508 15.936C87.5441 15.68 87.3628 15.4453 87.1068 15.232C86.8508 15.0613 86.4988 14.9973 86.0508 15.04C85.6241 15.0613 85.1761 15.2853 84.7068 15.712C84.1948 16.1813 83.6934 16.8107 83.2028 17.6C82.7334 18.3893 82.3814 19.36 82.1468 20.512C82.1041 20.7253 82.1681 20.896 82.3388 21.024C82.5094 21.152 82.8614 21.1627 83.3948 21.056ZM95.2213 23.232C94.3893 22.8907 93.8453 22.4213 93.5893 21.824C93.3546 21.2053 93.3119 20.256 93.4613 18.976C93.5039 18.3147 93.5253 17.8773 93.5253 17.664C93.5253 17.4507 93.4079 17.2373 93.1733 17.024C93.1093 16.9387 92.9919 16.8213 92.8213 16.672C92.6719 16.5227 92.6079 16.3947 92.6293 16.288C92.6079 16.1387 92.6186 15.9787 92.6613 15.808C92.7039 15.616 92.7679 15.52 92.8533 15.52C92.9386 15.52 93.0239 15.4987 93.1093 15.456C93.2159 15.4133 93.3119 15.4133 93.3973 15.456C93.4826 15.456 93.5786 15.4667 93.6853 15.488C93.7919 15.5093 93.8453 15.5627 93.8453 15.648C93.9306 15.7973 94.0693 15.8187 94.2613 15.712C94.4533 15.584 94.6559 15.3067 94.8693 14.88C95.0826 14.5387 95.3599 14.1973 95.7013 13.856C96.0639 13.5147 96.4159 13.2053 96.7573 12.928C97.1199 12.6293 97.4186 12.416 97.6533 12.288C97.7599 12.2453 97.9199 12.192 98.1333 12.128C98.3466 12.064 98.5706 12.0107 98.8053 11.968C99.0613 11.9253 99.2746 11.9147 99.4453 11.936C99.8293 11.9573 100.149 12.064 100.405 12.256C100.683 12.448 100.939 12.672 101.173 12.928C101.451 13.12 101.621 13.376 101.685 13.696C101.771 14.016 101.792 14.3573 101.749 14.72C101.707 15.0827 101.611 15.4133 101.461 15.712C101.397 15.9253 101.216 16.1813 100.917 16.48C100.619 16.7787 100.277 17.0667 99.8933 17.344C99.5093 17.6213 99.1573 17.824 98.8373 17.952C98.5599 18.016 98.1973 18.0693 97.7493 18.112C97.3226 18.1547 96.9173 18.176 96.5333 18.176C96.1706 18.1547 95.9253 18.112 95.7973 18.048C95.6479 17.9627 95.5306 18.08 95.4453 18.4C95.3599 18.72 95.2959 19.1787 95.2533 19.776C95.2106 20.2453 95.2106 20.5867 95.2533 20.8C95.2959 21.0133 95.3386 21.1627 95.3813 21.248C95.5306 21.3973 95.7333 21.5893 95.9893 21.824C96.2666 22.0373 96.6506 22.0693 97.1413 21.92C97.5466 21.8133 97.9413 21.536 98.3253 21.088C98.7306 20.64 99.1039 20.2773 99.4453 20C99.5306 19.8507 99.6693 19.7653 99.8613 19.744C100.075 19.7013 100.299 19.712 100.533 19.776C100.768 19.9253 100.864 20.1067 100.821 20.32C100.8 20.512 100.693 20.8107 100.501 21.216C100.437 21.3653 100.288 21.5573 100.053 21.792C99.8399 22.0053 99.5946 22.2293 99.3173 22.464C99.0613 22.6773 98.8266 22.848 98.6133 22.976C97.9733 23.3173 97.3759 23.4987 96.8213 23.52C96.2666 23.52 95.7333 23.424 95.2213 23.232ZM97.1093 16.736C97.5786 16.6293 97.9519 16.5547 98.2292 16.512C98.5066 16.4693 98.7733 16.352 99.0293 16.16C99.2853 15.9467 99.6053 15.552 99.9893 14.976C100.075 14.7413 100.096 14.5067 100.053 14.272C100.032 14.0373 99.9786 13.8773 99.8933 13.792C99.7013 13.5787 99.4666 13.5147 99.1892 13.6C98.9333 13.664 98.6879 13.7813 98.4533 13.952C98.3039 14.016 98.0799 14.176 97.7812 14.432C97.5039 14.6667 97.2266 14.944 96.9493 15.264C96.6719 15.5627 96.4479 15.84 96.2773 16.096C96.1066 16.352 96.0639 16.5013 96.1493 16.544C96.1066 16.6293 96.2239 16.6827 96.5013 16.704C96.7999 16.7253 97.0026 16.736 97.1093 16.736ZM103.9 22.496C103.686 22.368 103.526 22.24 103.42 22.112C103.313 21.984 103.26 21.8027 103.26 21.568C103.26 21.248 103.302 20.9173 103.388 20.576C103.473 20.2133 103.558 19.8613 103.644 19.52C103.686 19.136 103.74 18.752 103.804 18.368C103.889 17.9627 104.038 17.5893 104.252 17.248C104.486 16.4373 104.732 15.6373 104.988 14.848C105.244 14.0373 105.468 13.2053 105.66 12.352C105.937 11.5627 106.182 10.8693 106.396 10.272C106.63 9.65333 106.918 8.87467 107.26 7.936C107.452 7.40267 107.612 6.83733 107.74 6.24C107.889 5.62133 108.113 5.06667 108.411 4.576C108.54 4.384 108.636 4.224 108.7 4.096C108.785 3.94667 108.87 3.808 108.956 3.68C108.977 3.59466 109.041 3.54133 109.148 3.52C109.276 3.49867 109.414 3.50933 109.564 3.552C109.713 3.59467 109.83 3.66933 109.916 3.776C109.98 3.75467 110.054 3.81867 110.14 3.968C110.246 4.096 110.342 4.24533 110.428 4.416C110.513 4.58667 110.545 4.736 110.524 4.864C110.524 4.94933 110.502 5.06667 110.46 5.216C110.438 5.36533 110.385 5.504 110.3 5.632C110.214 5.71733 110.129 5.84533 110.044 6.016C109.98 6.16533 109.873 6.37867 109.724 6.656C109.638 6.93333 109.564 7.22133 109.5 7.52C109.436 7.79733 109.35 8.05333 109.244 8.288C109.158 8.544 109.052 8.78933 108.924 9.024C108.817 9.25867 108.742 9.45067 108.7 9.6C108.55 10.0907 108.369 10.5707 108.156 11.04C107.964 11.5093 107.793 12.0107 107.644 12.544C107.494 13.056 107.345 13.5893 107.196 14.144C107.046 14.6773 106.833 15.1893 106.556 15.68C106.406 15.9147 106.3 16.2133 106.236 16.576C106.172 16.9387 106.108 17.3013 106.044 17.664C105.916 18.048 105.798 18.4107 105.692 18.752C105.606 19.072 105.564 19.2747 105.564 19.36C105.436 19.8293 105.34 20.2987 105.276 20.768C105.233 21.216 105.126 21.6107 104.956 21.952C104.934 22.1653 104.892 22.336 104.828 22.464C104.764 22.592 104.657 22.6667 104.508 22.688C104.358 22.688 104.156 22.624 103.9 22.496ZM116.768 22.848C116.682 22.6773 116.576 22.5493 116.448 22.464C116.32 22.3573 116.256 22.2613 116.256 22.176C116.256 22.0907 116.245 22.0053 116.224 21.92C116.224 21.8133 116.181 21.7173 116.096 21.632C115.989 21.504 116 21.216 116.128 20.768C116.256 20.2987 116.469 19.7333 116.768 19.072C117.066 18.3893 117.418 17.6747 117.824 16.928C117.994 16.7573 118.165 16.5333 118.336 16.256C118.506 15.9787 118.634 15.7973 118.72 15.712C118.72 15.6267 118.752 15.552 118.816 15.488C118.88 15.4027 118.954 15.36 119.04 15.36V15.168C119.04 15.0613 119.136 14.88 119.328 14.624C119.541 14.368 119.797 14.0907 120.096 13.792C120.394 13.472 120.704 13.1733 121.024 12.896C121.344 12.5973 121.61 12.384 121.824 12.256C122.272 11.9573 122.73 11.776 123.2 11.712C123.69 11.648 124.106 11.7547 124.448 12.032C124.512 12.096 124.618 12.2027 124.768 12.352C124.917 12.5013 125.088 12.672 125.28 12.864C125.493 13.0347 125.706 13.216 125.92 13.408L127.104 14.464L126.528 16.064C126.25 16.9173 126.176 17.664 126.304 18.304C126.453 18.944 126.666 19.4987 126.944 19.968C127.05 20.2027 127.264 20.4267 127.584 20.64C127.925 20.8533 128.245 20.9813 128.544 21.024C128.714 21.0453 128.874 21.1093 129.024 21.216C129.173 21.3227 129.248 21.4933 129.248 21.728C129.248 21.9413 129.205 22.112 129.12 22.24C129.034 22.368 128.885 22.4533 128.672 22.496C127.968 22.5813 127.306 22.4107 126.688 21.984C126.09 21.5573 125.536 20.8533 125.024 19.872C124.938 19.744 124.821 19.5093 124.672 19.168C124.544 18.8053 124.469 18.5707 124.448 18.464C124.362 18.5707 124.202 18.7733 123.968 19.072C123.733 19.3493 123.552 19.552 123.424 19.68C121.909 21.216 120.597 22.2507 119.488 22.784C118.4 23.296 117.493 23.3173 116.768 22.848ZM117.92 21.056C117.92 21.2053 118.144 21.2053 118.592 21.056C119.061 20.8853 119.562 20.5867 120.096 20.16C120.821 19.5413 121.546 18.8587 122.272 18.112C123.018 17.3653 123.616 16.672 124.064 16.032L124.768 14.88C124.554 14.3893 124.32 14.0587 124.064 13.888C123.829 13.696 123.626 13.6 123.456 13.6C123.178 13.6 122.762 13.856 122.208 14.368C121.674 14.88 121.098 15.5627 120.48 16.416C119.861 17.2693 119.274 18.208 118.72 19.232C118.506 19.6587 118.314 20.0747 118.144 20.48C117.994 20.864 117.92 21.056 117.92 21.056ZM132.337 27.2C132.187 27.1573 132.027 27.072 131.857 26.944C131.686 26.8373 131.601 26.7413 131.601 26.656C131.622 26.5067 131.654 26.368 131.697 26.24C131.739 26.1333 131.771 26.0267 131.793 25.92C131.835 25.7067 131.857 25.4507 131.857 25.152C131.857 24.8747 131.889 24.3413 131.953 23.552C132.017 22.6987 132.07 21.984 132.113 21.408C132.177 20.832 132.241 20.32 132.305 19.872C132.369 19.4027 132.443 18.9333 132.529 18.464C132.635 17.9947 132.763 17.44 132.913 16.8C133.019 16.0747 133.019 15.6267 132.913 15.456C132.827 15.2853 132.667 15.1893 132.433 15.168C132.027 15.1253 131.665 15.0613 131.345 14.976C131.046 14.8693 130.854 14.688 130.769 14.432C130.555 14.2187 130.502 14.048 130.609 13.92C130.715 13.792 130.929 13.696 131.249 13.632C131.59 13.5467 131.953 13.5147 132.337 13.536C132.699 13.5147 132.977 13.4933 133.169 13.472C133.382 13.4293 133.553 13.3227 133.681 13.152C133.809 12.96 133.937 12.64 134.065 12.192C134.107 12 134.182 11.7333 134.289 11.392C134.417 11.0507 134.523 10.7413 134.609 10.464C134.715 10.1867 134.769 10.048 134.769 10.048C134.961 9.89867 135.057 9.70667 135.057 9.472C135.078 9.17333 135.217 8.77867 135.473 8.288C135.75 7.776 136.187 7.06133 136.785 6.144C137.51 5.20533 138.161 4.46933 138.737 3.936C139.334 3.40267 140.027 3.072 140.817 2.944C140.902 2.90133 141.094 2.88 141.393 2.88C141.691 2.88 141.894 2.88 142.001 2.88C142.449 2.90133 142.758 2.98667 142.929 3.136C143.099 3.28533 143.281 3.54133 143.472 3.904C143.643 4.18133 143.665 4.56533 143.537 5.056C143.43 5.52533 143.291 5.888 143.121 6.144C143.014 6.31467 142.854 6.50667 142.641 6.72C142.449 6.93333 142.257 7.12533 142.065 7.296C141.894 7.44533 141.766 7.52 141.681 7.52C141.574 7.52 141.467 7.488 141.361 7.424C141.275 7.33867 141.19 7.28533 141.105 7.264C140.913 7.17867 140.881 7.02933 141.009 6.816C141.137 6.58133 141.275 6.35733 141.425 6.144C141.638 5.824 141.777 5.568 141.841 5.376C141.905 5.184 141.926 5.01333 141.905 4.864C141.883 4.71467 141.841 4.53333 141.777 4.32L142.065 4.608C141.915 4.52267 141.745 4.49067 141.553 4.512C141.361 4.53333 141.147 4.58667 140.913 4.672C140.507 4.88533 140.177 5.12 139.921 5.376C139.665 5.61067 139.451 5.81333 139.281 5.984C138.769 6.432 138.353 6.976 138.033 7.616C137.713 8.256 137.414 8.85333 137.137 9.408C137.051 9.57867 136.902 9.89867 136.689 10.368C136.497 10.816 136.315 11.2427 136.145 11.648C135.995 12.032 135.846 12.3733 135.697 12.672C135.547 12.9493 135.473 13.12 135.473 13.184C135.409 13.3333 135.441 13.408 135.569 13.408C135.718 13.408 136.006 13.3973 136.433 13.376C137.478 13.248 138.257 13.216 138.769 13.28C139.302 13.3227 139.611 13.5147 139.697 13.856C140.059 14.368 140.006 14.688 139.537 14.816C139.089 14.9227 138.257 15.0613 137.041 15.232C136.699 15.2533 136.358 15.2747 136.017 15.296C135.675 15.296 135.451 15.3067 135.345 15.328C135.259 15.3493 135.174 15.3813 135.089 15.424C135.003 15.4667 134.907 15.68 134.801 16.064C134.779 16.2987 134.737 16.5867 134.673 16.928C134.63 17.248 134.598 17.5573 134.577 17.856C134.491 18.112 134.427 18.3787 134.385 18.656C134.363 18.9333 134.299 19.1787 134.193 19.392C134.065 20.5653 133.979 21.6533 133.937 22.656C133.894 23.6373 133.83 24.48 133.745 25.184C133.681 25.888 133.51 26.432 133.233 26.816C133.083 26.9867 132.923 27.1147 132.753 27.2C132.603 27.3067 132.465 27.3067 132.337 27.2ZM150.935 30.112C150.338 30.3467 149.708 30.304 149.047 29.984C148.407 29.6853 147.852 29.2053 147.383 28.544C147.298 28.416 147.191 28.2133 147.063 27.936C146.956 27.68 146.85 27.4133 146.743 27.136C146.658 26.8587 146.604 26.6133 146.583 26.4C146.562 26.1867 146.583 26.0587 146.647 26.016C146.711 25.952 146.818 25.9307 146.967 25.952C147.116 25.9733 147.255 26.0267 147.383 26.112C147.532 26.1973 147.628 26.304 147.671 26.432C147.735 26.5813 147.831 26.7733 147.959 27.008C148.108 27.2427 148.268 27.456 148.439 27.648C148.61 27.84 148.738 27.9467 148.823 27.968C149.228 28.16 149.527 28.2453 149.719 28.224C149.911 28.2027 150.082 28.1387 150.231 28.032C150.594 27.7547 150.892 27.392 151.127 26.944C151.362 26.496 151.628 25.8027 151.927 24.864C152.162 24.0747 152.396 23.2427 152.631 22.368C152.887 21.472 153.111 20.7787 153.303 20.288C153.367 20.032 153.442 19.8187 153.527 19.648C153.634 19.456 153.73 19.3173 153.815 19.232H154.007C153.538 19.5307 153.122 19.872 152.759 20.256C152.396 20.64 151.938 20.9493 151.383 21.184C151.255 21.3333 150.935 21.4293 150.423 21.472C149.932 21.4933 149.452 21.4293 148.983 21.28C148.684 21.1093 148.46 20.9813 148.311 20.896C148.183 20.8107 148.076 20.6933 147.991 20.544C147.927 20.3947 147.831 20.16 147.703 19.84C147.554 19.52 147.532 18.9973 147.639 18.272C147.746 17.5467 147.938 16.8213 148.215 16.096C148.471 15.5627 148.844 14.9867 149.335 14.368C149.826 13.7493 150.348 13.1947 150.903 12.704C151.458 12.192 151.959 11.872 152.407 11.744C152.578 11.6587 152.759 11.6053 152.951 11.584C153.164 11.5413 153.463 11.5733 153.847 11.68C154.21 11.7227 154.487 11.808 154.679 11.936C154.871 12.0427 155.18 12.2773 155.607 12.64C155.884 12.9173 156.108 13.1947 156.279 13.472C156.471 13.7493 156.62 14.0373 156.727 14.336C156.876 14.656 156.93 14.9547 156.887 15.232C156.866 15.488 156.748 15.7547 156.535 16.032C156.343 16.3093 156.14 16.5867 155.927 16.864C155.714 17.1413 155.554 17.5253 155.447 18.016C155.34 18.656 155.17 19.3813 154.935 20.192C154.7 20.9813 154.498 21.7173 154.327 22.4L153.815 24.384C153.282 26.1973 152.77 27.5413 152.279 28.416C151.81 29.312 151.362 29.8773 150.935 30.112ZM149.783 19.872C150.21 19.8507 150.615 19.7653 150.999 19.616C151.383 19.4667 151.756 19.2213 152.119 18.88C152.482 18.5173 152.844 18.0587 153.207 17.504C153.57 16.992 153.826 16.4587 153.975 15.904C154.124 15.328 154.178 14.7733 154.135 14.24C154.114 13.8987 154.06 13.6747 153.975 13.568C153.89 13.4613 153.708 13.4293 153.431 13.472C153.026 13.536 152.578 13.76 152.087 14.144C151.596 14.5067 151.138 14.9653 150.711 15.52C150.391 15.9467 150.124 16.4587 149.911 17.056C149.698 17.696 149.57 18.304 149.527 18.88C149.484 19.456 149.57 19.7867 149.783 19.872ZM160.902 23.008C160.838 23.0293 160.731 23.0187 160.582 22.976C160.433 22.9333 160.283 22.88 160.134 22.816C159.985 22.752 159.889 22.6987 159.846 22.656C159.761 22.5707 159.675 22.4427 159.59 22.272C159.526 22.1013 159.526 21.856 159.59 21.536C159.654 21.1947 159.867 20.7573 160.23 20.224C160.337 20.0107 160.465 19.6907 160.614 19.264C160.763 18.8373 160.913 18.3893 161.062 17.92C161.233 17.4293 161.382 16.992 161.51 16.608C161.659 16.224 161.766 15.9573 161.83 15.808C161.873 15.4453 161.851 15.1893 161.766 15.04C161.702 14.8693 161.521 14.7733 161.222 14.752C161.009 14.752 160.838 14.7307 160.71 14.688C160.603 14.6453 160.55 14.432 160.55 14.048C160.593 13.7493 160.667 13.5467 160.774 13.44C160.902 13.312 161.073 13.1733 161.286 13.024C161.499 12.9173 161.713 12.8427 161.926 12.8C162.161 12.7573 162.385 12.7467 162.598 12.768C162.811 12.7893 162.982 12.864 163.11 12.992C163.259 13.0773 163.355 13.2693 163.398 13.568C163.441 13.8453 163.462 14.1333 163.462 14.432C163.483 14.7307 163.505 14.9547 163.526 15.104C163.739 14.9333 164.027 14.6987 164.39 14.4C164.774 14.08 165.105 13.7813 165.382 13.504C165.723 13.2693 166.129 13.0347 166.598 12.8C167.067 12.544 167.409 12.416 167.622 12.416C167.857 12.416 168.091 12.48 168.326 12.608C168.561 12.7147 168.721 12.8533 168.806 13.024C169.019 13.3867 169.115 13.7067 169.094 13.984C169.094 14.2613 168.977 14.5493 168.742 14.848C168.529 15.1253 168.262 15.3173 167.942 15.424C167.643 15.5307 167.451 15.584 167.366 15.584C167.238 15.584 167.078 15.488 166.886 15.296C166.694 15.104 166.587 14.944 166.566 14.816C166.566 14.752 166.427 14.816 166.15 15.008C165.894 15.1787 165.606 15.4027 165.286 15.68C164.966 15.936 164.699 16.1707 164.486 16.384C164.123 16.832 163.739 17.44 163.334 18.208C162.929 18.976 162.449 19.904 161.894 20.992C161.638 21.5253 161.457 21.984 161.35 22.368C161.243 22.7307 161.094 22.944 160.902 23.008ZM178.001 23.936C177.852 24.0213 177.649 23.9893 177.393 23.84C177.159 23.6907 176.924 23.4667 176.689 23.168C176.54 22.912 176.433 22.6347 176.369 22.336C176.327 22.0373 176.305 21.6213 176.305 21.088C176.327 20.6613 176.305 20.384 176.241 20.256C176.199 20.128 176.081 20.1493 175.889 20.32C175.697 20.4693 175.367 20.7787 174.897 21.248C174.364 21.7813 173.852 22.1973 173.361 22.496C172.892 22.7947 172.508 22.9333 172.209 22.912C172.06 22.912 171.889 22.8373 171.697 22.688C171.527 22.5173 171.367 22.3147 171.217 22.08C171.068 21.824 170.94 21.568 170.833 21.312C170.705 20.8427 170.684 20.2453 170.769 19.52C170.876 18.7733 171.047 17.9947 171.281 17.184C171.516 16.3733 171.783 15.6053 172.081 14.88C172.401 14.1547 172.721 13.568 173.041 13.12C173.383 12.672 173.681 12.448 173.937 12.448C174.108 12.448 174.257 12.5333 174.385 12.704C174.535 12.8747 174.684 13.1413 174.833 13.504C174.919 13.6533 174.951 13.7813 174.929 13.888C174.929 13.9947 174.844 14.1227 174.673 14.272C174.481 14.528 174.257 14.912 174.001 15.424C173.767 15.936 173.532 16.4907 173.297 17.088C173.084 17.6853 172.892 18.2613 172.721 18.816C172.551 19.3707 172.433 19.8293 172.369 20.192C172.305 20.5333 172.316 20.704 172.401 20.704C172.7 20.704 173.052 20.5867 173.457 20.352C173.884 20.096 174.289 19.7867 174.673 19.424C175.121 18.976 175.516 18.4853 175.857 17.952C176.22 17.4187 176.583 16.8533 176.945 16.256C177.223 15.8293 177.511 15.36 177.809 14.848C178.129 14.336 178.332 13.9733 178.417 13.76C178.716 13.2053 178.94 12.832 179.089 12.64C179.239 12.4267 179.42 12.288 179.633 12.224C179.74 12.224 179.836 12.224 179.921 12.224C180.028 12.224 180.081 12.224 180.081 12.224C180.209 12.2453 180.359 12.3413 180.529 12.512C180.7 12.5973 180.796 12.6827 180.817 12.768C180.839 12.832 180.849 12.9173 180.849 13.024C180.764 13.2373 180.625 13.5573 180.433 13.984C180.263 14.3893 180.135 14.688 180.049 14.88C179.644 15.7973 179.239 16.704 178.833 17.6C178.449 18.4747 178.172 19.3707 178.001 20.288C177.959 20.5867 177.948 20.9387 177.969 21.344C178.012 21.728 178.076 22.0053 178.161 22.176C178.225 22.304 178.3 22.4533 178.385 22.624C178.492 22.7733 178.609 22.9013 178.737 23.008C178.929 23.136 178.961 23.2747 178.833 23.424C178.727 23.5733 178.577 23.7013 178.385 23.808C178.193 23.8933 178.065 23.936 178.001 23.936ZM180.917 31.136C180.768 31.072 180.608 30.9653 180.437 30.816C180.266 30.6667 180.128 30.496 180.021 30.304C179.914 30.1333 179.861 29.984 179.861 29.856C179.861 29.728 179.914 29.3867 180.021 28.832C180.128 28.2987 180.266 27.6373 180.437 26.848C180.629 26.08 180.832 25.2907 181.045 24.48C181.28 23.6907 181.514 22.9867 181.749 22.368C181.792 22.2613 181.93 21.9093 182.165 21.312C182.421 20.6933 182.666 19.9467 182.901 19.072C183.072 18.5173 183.296 17.888 183.573 17.184C183.85 16.48 184.138 15.776 184.437 15.072C184.736 14.3467 184.981 13.7067 185.173 13.152C185.365 12.5973 185.525 12.1493 185.653 11.808C185.802 11.4453 185.888 11.2213 185.909 11.136C185.952 11.008 186.016 10.9013 186.101 10.816C186.208 10.7093 186.314 10.624 186.421 10.56C186.528 10.4747 186.613 10.4213 186.677 10.4C187.061 10.2933 187.392 10.4533 187.669 10.88C187.776 11.072 187.797 11.296 187.733 11.552C187.669 11.808 187.552 12.128 187.381 12.512L187.157 13.152L188.309 12.896C188.501 12.896 188.736 12.9067 189.013 12.928C189.312 12.928 189.6 12.928 189.877 12.928C190.154 12.928 190.357 12.9493 190.485 12.992C190.997 13.0133 191.349 13.1093 191.541 13.28C191.754 13.4507 191.936 13.6747 192.085 13.952C192.192 14.0587 192.32 14.208 192.469 14.4C192.618 14.5707 192.704 14.7413 192.725 14.912C192.81 15.2747 192.81 15.6693 192.725 16.096C192.661 16.5013 192.533 16.9067 192.341 17.312C192.17 17.7173 191.936 18.0907 191.637 18.432C191.36 18.752 191.061 19.0187 190.741 19.232C190.528 19.3173 190.336 19.4133 190.165 19.52C189.994 19.6053 189.909 19.648 189.909 19.648C189.888 19.7547 189.653 19.9253 189.205 20.16C188.757 20.3733 188.245 20.576 187.669 20.768C187.093 20.96 186.592 21.088 186.165 21.152C186.016 21.1733 185.802 21.1947 185.525 21.216C185.248 21.2373 185.034 21.2053 184.885 21.12C184.65 21.0773 184.49 21.056 184.405 21.056C184.32 21.056 184.277 21.0987 184.277 21.184C184.256 21.2267 184.106 21.6747 183.829 22.528C183.552 23.3813 183.264 24.3733 182.965 25.504C182.56 26.7413 182.229 27.7227 181.973 28.448C181.717 29.1947 181.514 29.7493 181.365 30.112C181.237 30.4747 181.141 30.72 181.077 30.848C181.013 30.9973 180.96 31.0933 180.917 31.136ZM184.917 19.328C184.981 19.456 185.184 19.4987 185.525 19.456C185.888 19.392 186.314 19.264 186.805 19.072C187.317 18.8587 187.818 18.624 188.309 18.368C188.8 18.0907 189.205 17.8133 189.525 17.536C189.994 17.0027 190.378 16.512 190.677 16.064C190.976 15.5947 191.018 15.2853 190.805 15.136C190.57 14.7947 190.133 14.6347 189.493 14.656C188.853 14.6773 188.064 14.944 187.125 15.456C186.762 15.584 186.485 15.7547 186.293 15.968C186.122 16.16 185.973 16.4053 185.845 16.704C185.717 17.0027 185.557 17.3653 185.365 17.792C185.173 18.2613 185.045 18.6133 184.981 18.848C184.917 19.0827 184.896 19.2427 184.917 19.328ZM193.171 31.168C193.085 31.168 192.979 31.168 192.851 31.168C192.723 31.1893 192.605 31.104 192.499 30.912C192.413 30.8053 192.36 30.6453 192.339 30.432C192.339 30.2187 192.392 29.8347 192.499 29.28C192.605 28.9173 192.691 28.5547 192.755 28.192C192.819 27.8507 192.851 27.5947 192.851 27.424C192.851 27.3387 192.872 27.168 192.915 26.912C192.979 26.6773 193.011 26.5067 193.011 26.4C193.117 26.2293 193.203 25.9947 193.267 25.696C193.331 25.3973 193.363 25.1307 193.363 24.896C193.363 24.64 193.491 24.4053 193.747 24.192C193.747 24.0213 193.779 23.808 193.843 23.552C193.928 23.296 193.971 23.1253 193.971 23.04C194.035 22.7413 194.173 22.2187 194.387 21.472C194.621 20.704 194.899 19.84 195.219 18.88C195.56 17.92 195.891 16.9813 196.211 16.064C196.531 15.1467 196.819 14.368 197.075 13.728C197.331 13.1307 197.501 12.6187 197.587 12.192C197.693 11.744 197.747 11.4133 197.747 11.2C197.747 11.1147 197.768 11.0507 197.811 11.008C197.853 10.944 197.949 10.8267 198.099 10.656C198.312 10.4427 198.493 10.3787 198.643 10.464C198.813 10.5493 199.016 10.6773 199.251 10.848C199.421 11.1253 199.539 11.36 199.603 11.552C199.688 11.744 199.688 12.0747 199.603 12.544C199.603 12.864 199.549 13.1413 199.443 13.376C199.336 13.6107 199.24 13.792 199.155 13.92C199.069 14.0267 199.048 14.0693 199.091 14.048C199.965 13.6427 200.733 13.4293 201.395 13.408C202.077 13.3653 202.643 13.4827 203.091 13.76C203.56 14.016 203.912 14.3787 204.147 14.848C204.381 15.3173 204.499 15.8613 204.499 16.48C204.499 16.736 204.445 17.0453 204.339 17.408C204.232 17.7493 204.093 18.0693 203.923 18.368C203.773 18.6453 203.635 18.848 203.507 18.976C203.421 18.976 203.336 19.0507 203.251 19.2C203.165 19.328 203.08 19.4773 202.995 19.648C202.824 19.8613 202.547 20.1067 202.163 20.384C201.8 20.64 201.437 20.8533 201.075 21.024C200.712 21.1733 200.445 21.216 200.275 21.152C200.275 21.152 200.243 21.1627 200.179 21.184C200.136 21.184 200.115 21.2373 200.115 21.344C200.115 21.3867 199.944 21.4827 199.603 21.632C199.261 21.76 198.867 21.888 198.419 22.016C197.971 22.1227 197.576 22.176 197.235 22.176C196.787 22.176 196.467 22.0907 196.275 21.92C196.232 21.9627 196.179 22.0267 196.115 22.112C196.072 22.1973 196.051 22.272 196.051 22.336C196.051 22.464 195.997 22.7093 195.891 23.072C195.805 23.4133 195.699 23.744 195.571 24.064C195.443 24.384 195.325 24.544 195.219 24.544C195.219 24.544 195.197 24.576 195.155 24.64C195.112 24.704 195.133 24.7893 195.219 24.896C195.219 24.896 195.208 25.0133 195.187 25.248C195.187 25.504 195.133 25.7173 195.027 25.888C195.027 26.0587 194.995 26.3147 194.931 26.656C194.867 26.9973 194.792 27.2533 194.707 27.424C194.707 27.68 194.664 27.9253 194.579 28.16C194.515 28.416 194.44 28.544 194.355 28.544C194.269 28.5653 194.216 28.6933 194.195 28.928C194.173 29.184 194.163 29.3653 194.163 29.472C194.141 30.0053 194.035 30.4213 193.843 30.72C193.651 31.0187 193.427 31.168 193.171 31.168ZM197.043 20.48C197.213 20.48 197.565 20.4053 198.099 20.256C198.632 20.1067 199.176 19.9253 199.731 19.712C200.307 19.4773 200.733 19.2427 201.011 19.008C201.565 18.5173 201.992 17.9627 202.291 17.344C202.611 16.704 202.589 16.096 202.227 15.52C202.056 15.2213 201.747 15.104 201.299 15.168C200.851 15.2107 200.36 15.3813 199.827 15.68C199.293 15.9787 198.792 16.352 198.323 16.8C198.067 17.0773 197.832 17.4187 197.619 17.824C197.405 18.2293 197.224 18.6347 197.075 19.04C196.947 19.4453 196.872 19.7867 196.851 20.064C196.829 20.3413 196.893 20.48 197.043 20.48ZM208.753 23.232C207.921 22.8907 207.377 22.4213 207.121 21.824C206.886 21.2053 206.843 20.256 206.993 18.976C207.035 18.3147 207.057 17.8773 207.057 17.664C207.057 17.4507 206.939 17.2373 206.705 17.024C206.641 16.9387 206.523 16.8213 206.353 16.672C206.203 16.5227 206.139 16.3947 206.161 16.288C206.139 16.1387 206.15 15.9787 206.193 15.808C206.235 15.616 206.299 15.52 206.385 15.52C206.47 15.52 206.555 15.4987 206.641 15.456C206.747 15.4133 206.843 15.4133 206.929 15.456C207.014 15.456 207.11 15.4667 207.217 15.488C207.323 15.5093 207.377 15.5627 207.377 15.648C207.462 15.7973 207.601 15.8187 207.793 15.712C207.985 15.584 208.187 15.3067 208.401 14.88C208.614 14.5387 208.891 14.1973 209.233 13.856C209.595 13.5147 209.947 13.2053 210.289 12.928C210.651 12.6293 210.95 12.416 211.185 12.288C211.291 12.2453 211.451 12.192 211.665 12.128C211.878 12.064 212.102 12.0107 212.337 11.968C212.593 11.9253 212.806 11.9147 212.977 11.936C213.361 11.9573 213.681 12.064 213.937 12.256C214.214 12.448 214.47 12.672 214.705 12.928C214.982 13.12 215.153 13.376 215.217 13.696C215.302 14.016 215.323 14.3573 215.281 14.72C215.238 15.0827 215.142 15.4133 214.993 15.712C214.929 15.9253 214.747 16.1813 214.449 16.48C214.15 16.7787 213.809 17.0667 213.425 17.344C213.041 17.6213 212.689 17.824 212.369 17.952C212.091 18.016 211.729 18.0693 211.281 18.112C210.854 18.1547 210.449 18.176 210.065 18.176C209.702 18.1547 209.457 18.112 209.329 18.048C209.179 17.9627 209.062 18.08 208.977 18.4C208.891 18.72 208.827 19.1787 208.785 19.776C208.742 20.2453 208.742 20.5867 208.785 20.8C208.827 21.0133 208.87 21.1627 208.913 21.248C209.062 21.3973 209.265 21.5893 209.521 21.824C209.798 22.0373 210.182 22.0693 210.673 21.92C211.078 21.8133 211.473 21.536 211.857 21.088C212.262 20.64 212.635 20.2773 212.977 20C213.062 19.8507 213.201 19.7653 213.393 19.744C213.606 19.7013 213.83 19.712 214.065 19.776C214.299 19.9253 214.395 20.1067 214.353 20.32C214.331 20.512 214.225 20.8107 214.033 21.216C213.969 21.3653 213.819 21.5573 213.585 21.792C213.371 22.0053 213.126 22.2293 212.849 22.464C212.593 22.6773 212.358 22.848 212.145 22.976C211.505 23.3173 210.907 23.4987 210.353 23.52C209.798 23.52 209.265 23.424 208.753 23.232ZM210.641 16.736C211.11 16.6293 211.483 16.5547 211.76 16.512C212.038 16.4693 212.305 16.352 212.561 16.16C212.817 15.9467 213.137 15.552 213.521 14.976C213.606 14.7413 213.627 14.5067 213.585 14.272C213.563 14.0373 213.51 13.8773 213.425 13.792C213.233 13.5787 212.998 13.5147 212.72 13.6C212.465 13.664 212.219 13.7813 211.985 13.952C211.835 14.016 211.611 14.176 211.312 14.432C211.035 14.6667 210.758 14.944 210.481 15.264C210.203 15.5627 209.979 15.84 209.809 16.096C209.638 16.352 209.595 16.5013 209.681 16.544C209.638 16.6293 209.755 16.6827 210.033 16.704C210.331 16.7253 210.534 16.736 210.641 16.736ZM226.839 23.616C226.625 23.616 226.401 23.4987 226.167 23.264C225.953 23.0293 225.761 22.7413 225.591 22.4C225.441 22.0373 225.367 21.696 225.367 21.376C225.367 21.056 225.441 20.4587 225.591 19.584C225.761 18.7093 225.964 17.824 226.199 16.928C226.369 16.3733 226.423 16.0533 226.359 15.968C226.295 15.8827 226.007 16 225.495 16.32C225.196 16.4693 224.929 16.6293 224.695 16.8C224.46 16.9493 224.257 17.12 224.087 17.312C223.98 17.3973 223.82 17.536 223.607 17.728C223.393 17.92 223.169 18.1013 222.935 18.272C222.657 18.4853 222.305 18.784 221.879 19.168C221.452 19.552 221.025 19.936 220.599 20.32C220.193 20.704 219.884 21.0027 219.671 21.216C219.628 21.3013 219.564 21.376 219.479 21.44C219.393 21.504 219.297 21.5467 219.191 21.568C219.084 21.568 218.967 21.5467 218.839 21.504C218.604 21.44 218.38 21.3013 218.167 21.088C217.975 20.8747 217.879 20.6293 217.879 20.352C217.879 20.1387 217.964 19.776 218.135 19.264C218.305 18.7307 218.529 18.0907 218.807 17.344C219.105 16.5973 219.447 15.808 219.831 14.976C219.895 14.8693 219.948 14.7413 219.991 14.592C220.033 14.4213 220.065 14.24 220.087 14.048C220.129 13.856 220.151 13.6747 220.151 13.504C220.151 13.3973 220.161 13.2907 220.183 13.184C220.225 13.056 220.268 12.9387 220.311 12.832C220.375 12.704 220.428 12.6187 220.471 12.576C220.556 12.4053 220.705 12.3627 220.919 12.448C221.132 12.512 221.313 12.6613 221.463 12.896C221.783 13.1947 221.943 13.568 221.943 14.016C221.964 14.464 221.857 15.0187 221.623 15.68C221.537 15.8293 221.463 15.9787 221.399 16.128C221.356 16.256 221.313 16.3733 221.271 16.48C221.228 16.5653 221.196 16.64 221.175 16.704C221.153 16.7467 221.143 16.768 221.143 16.768C221.228 16.768 221.42 16.672 221.719 16.48C222.017 16.288 222.369 16.0747 222.775 15.84C223.095 15.6053 223.372 15.392 223.607 15.2C223.863 14.9867 224.076 14.8267 224.247 14.72C224.417 14.592 224.524 14.528 224.567 14.528C224.652 14.528 224.759 14.496 224.887 14.432C225.015 14.368 225.121 14.2933 225.207 14.208C225.292 14.1227 225.356 14.08 225.399 14.08C225.463 14.0587 225.495 14.048 225.495 14.048C225.495 14.048 225.537 14.048 225.623 14.048C225.708 14.0267 225.793 13.9733 225.879 13.888C226.049 13.76 226.273 13.728 226.551 13.792C226.828 13.8347 227.084 13.9413 227.319 14.112C227.553 14.2827 227.671 14.4747 227.671 14.688C227.671 14.7733 227.692 14.848 227.735 14.912C227.799 14.9547 227.831 14.976 227.831 14.976C228.001 14.976 228.108 15.2427 228.151 15.776C228.215 16.3093 228.161 16.8213 227.991 17.312C227.991 17.632 227.927 18.016 227.799 18.464C227.692 18.912 227.596 19.3387 227.511 19.744C227.34 20.2773 227.223 20.7467 227.159 21.152C227.095 21.5573 227.084 21.8987 227.127 22.176C227.169 22.4533 227.244 22.6773 227.351 22.848C227.436 22.9973 227.436 23.168 227.351 23.36C227.265 23.5307 227.095 23.616 226.839 23.616ZM234.429 18.56C233.832 18.6667 233.437 18.3787 233.245 17.696C233.053 17.0133 233.106 16.0747 233.405 14.88C233.533 14.624 233.64 14.3787 233.725 14.144C233.81 13.888 233.853 13.6853 233.853 13.536C233.938 13.2587 234.045 12.9387 234.173 12.576C234.322 12.192 234.472 11.84 234.621 11.52C234.77 11.1787 234.877 10.9547 234.941 10.848C235.026 10.848 235.112 10.7733 235.197 10.624C235.304 10.4747 235.357 10.3253 235.357 10.176C235.357 10.0053 235.389 9.81333 235.453 9.6C235.538 9.38667 235.624 9.23733 235.709 9.152C235.709 9.04533 235.752 8.928 235.837 8.8C235.922 8.672 235.965 8.56533 235.965 8.48C235.965 8.39467 235.986 8.32 236.029 8.256C236.093 8.192 236.125 8.11733 236.125 8.032C236.317 7.69067 236.562 7.18933 236.861 6.528C237.181 5.84533 237.49 5.13067 237.789 4.384C238.109 3.63733 238.376 2.976 238.589 2.4C238.802 1.824 238.909 1.472 238.909 1.344C238.952 1.17333 239.016 1.04533 239.101 0.959999C239.186 0.874666 239.314 0.853332 239.485 0.895998C239.57 0.831999 239.656 0.799999 239.741 0.799999C239.826 0.778666 239.912 0.768 239.997 0.768C239.997 0.768 240.029 0.810666 240.093 0.895998C240.178 0.981332 240.296 1.10933 240.445 1.28C240.616 1.42933 240.712 1.6 240.733 1.792C240.754 1.984 240.765 2.208 240.765 2.464C240.744 2.86933 240.594 3.328 240.317 3.84C240.04 4.352 239.73 4.91733 239.389 5.536C239.176 5.94133 238.962 6.32533 238.749 6.688C238.557 7.05067 238.461 7.27467 238.461 7.36C238.461 7.44533 238.418 7.57333 238.333 7.744C238.248 7.91467 238.152 8.128 238.045 8.384C237.917 8.59733 237.778 8.85333 237.629 9.152C237.48 9.45067 237.341 9.728 237.213 9.984C237.106 10.2187 237.053 10.368 237.053 10.432C237.032 10.5173 237 10.6027 236.957 10.688C236.936 10.7733 236.882 10.8587 236.797 10.944C236.712 10.944 236.658 11.008 236.637 11.136C236.637 11.2427 236.637 11.296 236.637 11.296C236.637 11.3813 236.584 11.584 236.477 11.904C236.392 12.2027 236.242 12.5653 236.029 12.992C235.624 14.1227 235.336 15.0293 235.165 15.712C234.994 16.3733 234.888 16.9387 234.845 17.408C234.802 17.92 234.76 18.2187 234.717 18.304C234.696 18.3893 234.6 18.4747 234.429 18.56ZM232.701 23.68C232.296 23.8293 231.954 23.904 231.677 23.904C231.421 23.8827 231.133 23.7547 230.813 23.52C230.408 23.136 230.269 22.752 230.397 22.368C230.546 21.9627 230.898 21.568 231.453 21.184C231.837 20.9493 232.114 20.8213 232.285 20.8C232.477 20.7787 232.765 20.8533 233.149 21.024C233.789 21.4293 234.066 21.8773 233.981 22.368C233.917 22.8587 233.49 23.296 232.701 23.68Z" fill="#FF1054"/>
</svg>
