<svg width="297" height="45" viewBox="0 0 297 45" fill="none" xmlns="http://www.w3.org/2000/svg">
<path d="M292.347 2.45624C292.347 2.45624 290.188 16.1423 275.685 24.3767C261.182 32.611 242 29.3722 242 29.3722" stroke="#FF1054" stroke-width="2"/>
<path d="M295.5 8.38684L292.464 2L287.532 7.47443" stroke="#FF1054" stroke-width="2"/>
<path d="M6.56024 38.824C5.64291 38.2267 5.02424 37.704 4.70424 37.256C4.38424 36.8293 4.51224 36.4347 5.08824 36.072C5.21624 35.9867 5.41891 36.0613 5.69624 36.296C5.99491 36.5093 6.24024 36.712 6.43224 36.904C6.85891 37.288 7.38158 37.5227 8.00024 37.608C8.64024 37.7147 9.35491 37.6613 10.1442 37.448C11.0402 37.1707 11.8189 36.7867 12.4802 36.296C13.1629 35.784 13.8029 35.1653 14.4002 34.44C14.8482 33.864 15.1576 33.2453 15.3282 32.584C15.4989 31.9013 15.5629 31.272 15.5202 30.696C15.4989 30.12 15.3816 29.7147 15.1682 29.48C14.6349 28.7333 13.8882 28.2213 12.9282 27.944C11.9896 27.6453 10.8802 27.6667 9.60024 28.008C9.45091 28.0293 9.22691 28.072 8.92824 28.136C8.62958 28.2 8.36291 28.264 8.12824 28.328C7.89358 28.3707 7.76558 28.392 7.74424 28.392C7.59491 28.4347 7.47758 28.488 7.39224 28.552C7.30691 28.5947 7.20024 28.7547 7.07224 29.032C6.96558 29.288 6.79491 29.7573 6.56024 30.44C6.32558 31.1013 5.97358 32.0827 5.50424 33.384C5.05624 34.6853 4.69358 35.6133 4.41624 36.168C4.16024 36.7013 3.92558 36.9467 3.71224 36.904C3.52024 36.84 3.27491 36.6053 2.97624 36.2C2.80558 35.9013 2.69891 35.6133 2.65624 35.336C2.61358 35.0373 2.69891 34.696 2.91224 34.312C3.01891 34.12 3.10424 33.9493 3.16824 33.8C3.23224 33.6293 3.31758 33.3413 3.42424 32.936C3.53091 32.616 3.73358 32.0613 4.03224 31.272C4.35224 30.4613 4.72558 29.5227 5.15224 28.456C5.57891 27.368 6.02691 26.248 6.49624 25.096C6.96558 23.944 7.41358 22.856 7.84024 21.832C8.28824 20.808 8.66158 19.944 8.96024 19.24C9.25891 18.5787 9.44024 18.0987 9.50424 17.8C9.56824 17.5013 9.54691 17.3413 9.44024 17.32C9.44024 17.2133 9.40824 17.1173 9.34424 17.032C9.28024 16.9253 9.25891 16.8293 9.28024 16.744C9.28024 16.6587 9.41891 16.5413 9.69624 16.392C9.99491 16.2427 10.3149 16.104 10.6562 15.976C11.0189 15.848 11.2962 15.8053 11.4882 15.848C11.5949 15.848 11.7229 15.848 11.8722 15.848C12.0216 15.8267 12.0962 15.7733 12.0962 15.688C12.1602 15.688 12.3629 15.6667 12.7042 15.624C13.0456 15.5813 13.4189 15.5813 13.8242 15.624C15.2536 15.752 16.3629 16.168 17.1522 16.872C17.9416 17.5547 18.3256 18.4933 18.3042 19.688C18.2829 20.0507 18.0909 20.5413 17.7282 21.16C17.3869 21.7787 16.9602 22.3973 16.4482 23.016C15.9576 23.6347 15.4776 24.1573 15.0082 24.584C14.7309 24.8187 14.4322 25.064 14.1122 25.32C13.8136 25.5547 13.5469 25.7573 13.3122 25.928C13.0989 26.0773 12.9922 26.152 12.9922 26.152C12.9922 26.152 13.0776 26.184 13.2482 26.248C13.4189 26.312 13.6002 26.376 13.7922 26.44C14.7736 26.8027 15.5842 27.2613 16.2242 27.816C16.8642 28.3707 17.3016 29.1387 17.5362 30.12C17.6216 30.44 17.6216 30.8347 17.5362 31.304C17.4722 31.7733 17.3762 32.2427 17.2482 32.712C17.1202 33.16 16.9816 33.544 16.8322 33.864C16.6829 34.0133 16.5656 34.1733 16.4802 34.344C16.3949 34.4933 16.3522 34.568 16.3522 34.568C16.3522 34.6107 16.2669 34.7813 16.0962 35.08C15.9256 35.3573 15.7229 35.6667 15.4882 36.008C15.2536 36.3493 15.0296 36.648 14.8162 36.904C14.6029 37.0747 14.3469 37.2773 14.0482 37.512C13.7709 37.7467 13.4509 37.9707 13.0882 38.184C12.7469 38.3973 12.3736 38.5787 11.9682 38.728C11.3709 38.984 10.7202 39.1547 10.0162 39.24C9.33358 39.3467 8.68291 39.3573 8.06424 39.272C7.44558 39.208 6.94424 39.0587 6.56024 38.824ZM8.12824 26.504C8.12824 26.504 8.32024 26.472 8.70424 26.408C9.10958 26.3227 9.54691 26.2373 10.0162 26.152C10.4856 26.0453 10.8269 25.9493 11.0402 25.864C11.1469 25.8 11.2962 25.7147 11.4882 25.608C11.7016 25.5013 11.9149 25.3413 12.1282 25.128C12.4269 24.8507 12.8002 24.456 13.2482 23.944C13.7176 23.4107 14.1762 22.856 14.6242 22.28C15.0722 21.6827 15.4136 21.1493 15.6482 20.68C16.1389 19.912 16.4056 19.3467 16.4482 18.984C16.4909 18.6 16.3736 18.2693 16.0962 17.992C15.9042 17.7573 15.5736 17.608 15.1042 17.544C14.6562 17.4587 14.1762 17.4373 13.6642 17.48C13.1522 17.5013 12.7149 17.5653 12.3522 17.672C12.0749 17.7573 11.8616 17.864 11.7122 17.992C11.5629 18.0987 11.4882 18.2693 11.4882 18.504C11.4882 18.696 11.4242 18.888 11.2962 19.08C11.1896 19.2507 11.0829 19.3893 10.9762 19.496C10.9549 19.6453 10.9016 19.784 10.8162 19.912C10.7309 20.0187 10.6882 20.072 10.6882 20.072C10.6882 20.1573 10.5389 20.5093 10.2402 21.128C9.94158 21.7467 9.64291 22.4613 9.34424 23.272C8.96024 24.1893 8.66158 24.936 8.44824 25.512C8.23491 26.0667 8.12824 26.3973 8.12824 26.504ZM21.0977 37C20.6924 37.1067 20.3617 37.0213 20.1057 36.744C19.8711 36.4667 19.7324 36.04 19.6897 35.464C19.6471 34.888 19.7111 34.2053 19.8817 33.416C19.9884 33.16 20.0737 32.9147 20.1377 32.68C20.2017 32.424 20.2337 32.2213 20.2337 32.072C20.2764 31.8587 20.3617 31.5493 20.4897 31.144C20.6177 30.7173 20.7564 30.28 20.9057 29.832C21.0551 29.384 21.1937 28.9893 21.3217 28.648C21.4711 28.2853 21.5671 28.0613 21.6097 27.976C21.6951 27.976 21.7697 27.9013 21.8337 27.752C21.8977 27.6027 21.9297 27.4533 21.9297 27.304C21.9297 27.1333 21.9617 26.9413 22.0257 26.728C22.1111 26.5147 22.1964 26.3653 22.2817 26.28C22.2817 26.1733 22.3031 26.056 22.3457 25.928C22.4097 25.7787 22.4417 25.6613 22.4417 25.576C22.4417 25.4907 22.4631 25.4053 22.5057 25.32C22.5697 25.2347 22.6017 25.1493 22.6017 25.064C22.7511 24.7867 22.9431 24.3493 23.1777 23.752C23.4337 23.1333 23.7004 22.4507 23.9777 21.704C24.2764 20.9573 24.5537 20.2213 24.8097 19.496C25.0657 18.7707 25.2684 18.1627 25.4177 17.672C25.5884 17.16 25.6737 16.8507 25.6737 16.744C25.6737 16.5733 25.7164 16.4453 25.8017 16.36C25.8871 16.2747 26.0151 16.232 26.1857 16.232C26.2497 16.168 26.3244 16.1253 26.4097 16.104C26.5164 16.0827 26.6124 16.072 26.6977 16.072C26.6977 16.072 26.7404 16.1147 26.8257 16.2C26.9111 16.2853 27.0391 16.4133 27.2097 16.584C27.3804 16.7333 27.4764 16.904 27.4977 17.096C27.5404 17.288 27.5617 17.512 27.5617 17.768C27.5617 18.0453 27.5297 18.2907 27.4657 18.504C27.4017 18.7173 27.2737 19.0267 27.0817 19.432C26.8897 19.8373 26.5911 20.4667 26.1857 21.32C26.0151 21.7467 25.8337 22.152 25.6417 22.536C25.4497 22.8987 25.3537 23.1227 25.3537 23.208C25.3537 23.2933 25.3111 23.4213 25.2257 23.592C25.1617 23.7627 25.0871 23.976 25.0017 24.232C24.9164 24.4027 24.7991 24.6587 24.6497 25C24.5004 25.32 24.3404 25.672 24.1697 26.056C24.0204 26.4187 23.8924 26.7387 23.7857 27.016C23.6791 27.272 23.6257 27.4213 23.6257 27.464C23.6257 27.5493 23.6151 27.6347 23.5937 27.72C23.5937 27.8053 23.5511 27.8907 23.4657 27.976C23.3804 27.976 23.3271 28.04 23.3057 28.168C23.3057 28.2747 23.3057 28.328 23.3057 28.328C23.3057 28.5413 23.1351 29.1067 22.7937 30.024C22.4524 31.1973 22.1324 32.2747 21.8337 33.256C21.5564 34.2373 21.4177 35.0267 21.4177 35.624C21.4177 36.136 21.4071 36.4773 21.3857 36.648C21.3644 36.7973 21.2684 36.9147 21.0977 37ZM25.896 35.976C25.7253 35.8053 25.5973 35.592 25.512 35.336C25.448 35.08 25.4267 34.824 25.448 34.568C25.4693 34.312 25.5227 34.0987 25.608 33.928C25.608 33.7573 25.6293 33.6293 25.672 33.544C25.736 33.4373 25.7573 33.3413 25.736 33.256C25.7147 33.1707 25.736 33.0213 25.8 32.808C25.864 32.5947 25.928 32.392 25.992 32.2C26.1413 31.8587 26.3013 31.4533 26.472 30.984C26.6427 30.4933 26.8027 30.0133 26.952 29.544C27.1013 29.0747 27.2293 28.6693 27.336 28.328C27.4427 27.9867 27.5067 27.7733 27.528 27.688C27.528 27.432 27.6987 27.2933 28.04 27.272C28.296 27.1867 28.488 27.1867 28.616 27.272C28.744 27.336 28.9147 27.5387 29.128 27.88C29.2987 28.0507 29.3627 28.3067 29.32 28.648C29.2773 28.9893 29.1387 29.416 28.904 29.928C28.8187 30.0987 28.712 30.344 28.584 30.664C28.4773 30.984 28.4027 31.272 28.36 31.528C28.2747 31.6987 28.168 31.944 28.04 32.264C27.9333 32.5627 27.8373 32.8507 27.752 33.128C27.7093 33.2347 27.6667 33.3947 27.624 33.608C27.5813 33.8 27.528 34.0133 27.464 34.248C27.4 34.4613 27.3147 34.6533 27.208 34.824C27.016 35.6987 26.8347 36.2107 26.664 36.36C26.5147 36.5093 26.2587 36.3813 25.896 35.976ZM29 22.984C28.8933 22.8773 28.7973 22.728 28.712 22.536C28.6267 22.3227 28.5733 22.1307 28.552 21.96C28.5307 21.768 28.552 21.672 28.616 21.672C28.7867 21.6507 28.9893 21.4693 29.224 21.128C29.4587 20.7867 29.5547 20.488 29.512 20.232C29.512 20.1467 29.544 20.072 29.608 20.008C29.672 19.9227 29.7467 19.8693 29.832 19.848C30.088 19.6773 30.3333 19.656 30.568 19.784C30.824 19.8907 31.0587 20.1147 31.272 20.456C31.464 20.8613 31.5173 21.2027 31.432 21.48C31.3467 21.736 31.112 22.0987 30.728 22.568C30.408 22.9947 30.1093 23.2293 29.832 23.272C29.576 23.3147 29.2987 23.2187 29 22.984ZM34.7767 35.976C34.5634 36.1253 34.4141 36.2 34.3287 36.2C34.2434 36.1787 34.0834 36.0507 33.8487 35.816C33.4434 35.432 33.1554 34.7067 32.9847 33.64C32.8354 32.552 32.7607 31.0267 32.7607 29.064C32.8461 28.1893 32.8887 27.4427 32.8887 26.824C32.9101 26.2053 32.9207 25.8533 32.9207 25.768C32.9847 25.6827 33.1127 25.64 33.3047 25.64C33.5181 25.64 33.6994 25.6827 33.8487 25.768C34.0621 25.8747 34.2007 26.0347 34.2647 26.248C34.3501 26.4613 34.4034 26.8453 34.4247 27.4C34.4461 27.9333 34.4567 28.7547 34.4567 29.864C34.3927 30.7173 34.3607 31.464 34.3607 32.104C34.3607 32.7227 34.3927 33.0747 34.4567 33.16C34.5421 33.3093 34.6381 33.352 34.7447 33.288C34.8727 33.2027 35.0967 33 35.4167 32.68C35.5874 32.4453 35.8007 32.136 36.0567 31.752C36.3127 31.3467 36.5154 31.0267 36.6647 30.792C36.8994 30.4933 37.1127 30.2053 37.3047 29.928C37.5181 29.6507 37.6674 29.4693 37.7527 29.384C37.8381 29.2133 37.9447 29.0533 38.0727 28.904C38.2007 28.7547 38.3074 28.6053 38.3927 28.456C38.6274 28.0507 38.8727 27.72 39.1287 27.464C39.3847 27.1867 39.5554 27.048 39.6407 27.048C39.7261 27.112 39.8007 27.1333 39.8647 27.112C39.9501 27.0693 40.0354 27.048 40.1207 27.048C40.2701 26.8987 40.4727 26.8987 40.7287 27.048C40.8141 27.112 40.8887 27.1867 40.9527 27.272C41.0167 27.336 41.0487 27.4107 41.0487 27.496C41.0487 27.6027 40.9634 27.8267 40.7927 28.168C40.6434 28.5093 40.4621 28.84 40.2487 29.16C40.0567 29.4587 39.9074 29.64 39.8007 29.704C39.8007 29.704 39.7687 29.736 39.7047 29.8C39.6407 29.864 39.5661 29.9387 39.4807 30.024C39.4381 30.1733 39.2994 30.44 39.0647 30.824C38.8301 31.1867 38.5421 31.6027 38.2007 32.072C37.8594 32.5413 37.5074 33.0107 37.1447 33.48C36.7821 33.9493 36.4621 34.3653 36.1847 34.728C35.9714 35.0267 35.7261 35.2933 35.4487 35.528C35.1714 35.7413 34.9474 35.8907 34.7767 35.976ZM52.9285 37.096C51.9898 37.096 51.2218 36.744 50.6245 36.04C50.0272 35.3147 49.7392 34.4187 49.7605 33.352C49.8032 32.584 49.9525 31.7627 50.2085 30.888C50.4858 29.992 50.8485 29.1387 51.2965 28.328C51.7445 27.496 52.2352 26.7707 52.7685 26.152C53.3018 25.5333 53.8565 25.096 54.4325 24.84C54.6458 24.7333 54.8698 24.648 55.1045 24.584C55.3605 24.52 55.6165 24.488 55.8725 24.488C56.1072 24.488 56.3525 24.5307 56.6085 24.616C56.8645 24.68 57.0778 24.7547 57.2485 24.84C57.6112 24.9893 57.8885 25.1707 58.0805 25.384C58.2725 25.5973 58.4432 25.928 58.5925 26.376C58.6565 26.7813 58.6885 27.0693 58.6885 27.24C58.6885 27.4107 58.6352 27.6667 58.5285 28.008C58.2725 28.776 57.9418 29.4373 57.5365 29.992C57.1312 30.5467 56.5872 31.016 55.9045 31.4C55.7338 31.5067 55.5312 31.592 55.2965 31.656C55.0832 31.6987 54.8592 31.72 54.6245 31.72C54.1978 31.72 53.7818 31.6453 53.3765 31.496C52.9925 31.3253 52.6832 31.08 52.4485 30.76L52.2245 30.504L52.1285 30.76C51.9152 31.336 51.7445 31.8693 51.6165 32.36C51.5098 32.8507 51.4565 33.2987 51.4565 33.704C51.4565 33.96 51.4778 34.2053 51.5205 34.44C51.5845 34.6747 51.6698 34.8773 51.7765 35.048C51.8618 35.176 52.0005 35.272 52.1925 35.336C52.4058 35.3787 52.6298 35.4 52.8645 35.4C53.0138 35.4 53.1632 35.4 53.3125 35.4C53.4832 35.3787 53.6432 35.336 53.7925 35.272C54.1552 35.144 54.4432 35.0053 54.6565 34.856C54.8912 34.7067 55.1258 34.5467 55.3605 34.376L55.4885 34.312H55.4565C55.7125 34.184 55.9365 34.056 56.1285 33.928C56.3418 33.8 56.4485 33.736 56.4485 33.736C56.5338 33.736 56.6192 33.6827 56.7045 33.576C56.8752 33.4907 57.0885 33.5227 57.3445 33.672C57.6218 33.8213 57.7605 34.0133 57.7605 34.248C57.7392 34.3547 57.6432 34.5253 57.4725 34.76C57.3018 34.9733 57.1098 35.176 56.8965 35.368C56.7045 35.56 56.5445 35.6667 56.4165 35.688C56.3952 35.7093 56.3205 35.752 56.1925 35.816C56.0645 35.8587 55.9792 35.9013 55.9365 35.944H55.9685C55.7765 36.2 55.5845 36.328 55.3925 36.328H55.1365C55.0512 36.4773 54.7738 36.648 54.3045 36.84C53.8352 37.0107 53.3765 37.096 52.9285 37.096ZM54.3685 30.056C54.7525 30.056 55.0832 29.9493 55.3605 29.736C55.6592 29.5013 55.9152 29.2453 56.1285 28.968C56.5552 28.392 56.8005 27.8373 56.8645 27.304C56.9498 26.7493 56.8858 26.3653 56.6725 26.152C56.5445 26.088 56.4272 26.056 56.3205 26.056C56.2352 26.0347 56.0538 26.0667 55.7765 26.152C55.5845 26.1947 55.3178 26.3547 54.9765 26.632C54.6352 26.9093 54.2938 27.2187 53.9525 27.56C53.6325 27.9013 53.3872 28.1893 53.2165 28.424L52.8005 29.096C52.9712 29.032 53.1312 29 53.2805 29C53.4512 28.9787 53.5472 28.9893 53.5685 29.032C53.5685 29.224 53.6005 29.4053 53.6645 29.576C53.7498 29.7253 53.8458 29.8427 53.9525 29.928C54.0805 30.0133 54.2192 30.056 54.3685 30.056ZM61.7987 35.592C61.7134 35.592 61.5854 35.5387 61.4147 35.432C61.2654 35.304 61.1481 35.1973 61.0627 35.112C60.9134 34.9413 60.8174 34.7707 60.7747 34.6C60.7534 34.4293 60.7427 34.0453 60.7427 33.448C60.7427 32.7653 60.8814 32.0293 61.1587 31.24C61.4361 30.4293 61.9054 29.2987 62.5667 27.848L63.6227 25.608C63.7081 25.4373 63.7827 25.3093 63.8467 25.224C63.9321 25.1387 64.0067 25.0533 64.0707 24.968C64.1561 24.968 64.2307 24.968 64.2947 24.968C64.3587 24.968 64.3907 24.968 64.3907 24.968C64.5614 24.968 64.7321 25.0747 64.9027 25.288C65.0734 25.48 65.2014 25.6933 65.2867 25.928C65.2867 26.2053 65.2441 26.4933 65.1587 26.792C65.0947 27.0907 64.8387 27.5387 64.3907 28.136C64.2414 28.3707 64.0387 28.7653 63.7827 29.32C63.5481 29.8747 63.3881 30.3547 63.3027 30.76C63.2814 30.7813 63.2387 30.8773 63.1747 31.048C63.1107 31.1973 63.0361 31.368 62.9507 31.56C62.8867 31.752 62.8121 31.9333 62.7267 32.104L62.5667 32.808L64.7107 30.6C65.7134 29.5973 66.5241 28.8827 67.1427 28.456C67.7614 28.0293 68.2521 27.848 68.6147 27.912C68.9774 27.976 69.2867 28.264 69.5427 28.776C69.6921 29.0107 69.7987 29.224 69.8627 29.416C69.9481 29.5867 70.0014 29.8213 70.0227 30.12C70.0441 30.4187 70.0227 30.8667 69.9587 31.464V33.448C70.2787 33.3627 70.5347 33.288 70.7267 33.224C70.9187 33.1387 71.1214 33.0533 71.3347 32.968C71.5267 32.8827 71.7507 32.808 72.0067 32.744C72.2627 32.6587 72.5827 32.6053 72.9667 32.584C72.9454 32.8613 72.8494 33.16 72.6787 33.48C72.5081 33.7787 72.2947 34.0667 72.0387 34.344C71.7827 34.6213 71.4947 34.8453 71.1747 35.016C70.8761 35.1867 70.5774 35.272 70.2787 35.272C70.0014 35.272 69.6921 35.1333 69.3507 34.856C69.0094 34.5787 68.7641 34.2693 68.6147 33.928C68.5294 33.6933 68.4761 33.4373 68.4547 33.16C68.4547 32.8827 68.4547 32.3707 68.4547 31.624V30.44C68.4547 30.0987 68.3481 30.0027 68.1347 30.152C67.9427 30.28 67.7827 30.3973 67.6547 30.504C67.3347 30.7813 66.9934 31.1013 66.6307 31.464C66.2894 31.8267 65.9374 32.2 65.5747 32.584C64.5934 33.608 63.7721 34.3653 63.1107 34.856C62.4707 35.3467 62.0334 35.592 61.7987 35.592ZM90.803 37.608C90.5257 37.672 90.291 37.6293 90.099 37.48C89.9283 37.352 89.8003 37.16 89.715 36.904C89.5443 36.4133 89.4163 35.88 89.331 35.304C89.267 34.7067 89.2563 34.184 89.299 33.736L89.363 33.064L88.115 34.056C87.3897 34.696 86.6857 35.1547 86.003 35.432C85.3417 35.7093 84.755 35.848 84.243 35.848C84.0083 35.8053 83.7737 35.72 83.539 35.592C83.3043 35.464 83.091 35.304 82.899 35.112C82.7283 34.92 82.5897 34.7173 82.483 34.504C82.355 34.2053 82.3123 33.8 82.355 33.288C82.419 32.776 82.547 32.2213 82.739 31.624C82.9523 31.0053 83.2083 30.408 83.507 29.832C83.827 29.2347 84.1897 28.712 84.595 28.264C85.299 27.1973 86.0563 26.5467 86.867 26.312C87.6777 26.0773 88.4777 26.1947 89.267 26.664C89.8217 26.8987 90.163 27.0053 90.291 26.984C90.4403 26.9627 90.5683 26.7173 90.675 26.248C90.7603 25.9067 90.8457 25.5653 90.931 25.224C91.0163 24.8613 91.155 24.3813 91.347 23.784C91.8803 22.1627 92.339 20.8933 92.723 19.976C93.1283 19.0587 93.491 18.2587 93.811 17.576C94.0457 17.0853 94.2377 16.7867 94.387 16.68C94.5577 16.552 94.7283 16.4987 94.899 16.52C95.1337 16.52 95.347 16.6053 95.539 16.776C95.731 16.9467 95.8803 17.1813 95.987 17.48C96.0723 17.672 96.1043 17.8427 96.083 17.992C96.083 18.12 96.019 18.3013 95.891 18.536C95.6137 19.048 95.283 19.7307 94.899 20.584C94.5363 21.416 94.163 22.3333 93.779 23.336C93.4163 24.3387 93.075 25.3307 92.755 26.312C92.435 27.2933 92.1683 28.1573 91.955 28.904C91.827 29.3733 91.7097 29.9707 91.603 30.696C91.5177 31.4213 91.443 32.168 91.379 32.936C91.315 33.6827 91.2723 34.3547 91.251 34.952C91.251 35.528 91.2723 35.9013 91.315 36.072C91.443 36.4987 91.4963 36.8187 91.475 37.032C91.475 37.2453 91.4217 37.384 91.315 37.448C91.2083 37.5333 91.0377 37.5867 90.803 37.608ZM85.395 34.056C85.6937 33.992 85.9817 33.8747 86.259 33.704C86.5577 33.5333 86.867 33.3307 87.187 33.096C87.827 32.6053 88.3817 32.1573 88.851 31.752C89.3203 31.3467 89.6297 30.728 89.779 29.896C89.8217 29.4907 89.779 29.1707 89.651 28.936C89.5443 28.68 89.363 28.4453 89.107 28.232C88.851 28.0613 88.499 27.9973 88.051 28.04C87.6243 28.0613 87.1763 28.2853 86.707 28.712C86.195 29.1813 85.6937 29.8107 85.203 30.6C84.7337 31.3893 84.3817 32.36 84.147 33.512C84.1043 33.7253 84.1683 33.896 84.339 34.024C84.5097 34.152 84.8617 34.1627 85.395 34.056ZM97.2215 36.232C96.3895 35.8907 95.8455 35.4213 95.5895 34.824C95.3548 34.2053 95.3122 33.256 95.4615 31.976C95.5042 31.3147 95.5255 30.8773 95.5255 30.664C95.5255 30.4507 95.4082 30.2373 95.1735 30.024C95.1095 29.9387 94.9922 29.8213 94.8215 29.672C94.6722 29.5227 94.6082 29.3947 94.6295 29.288C94.6082 29.1387 94.6188 28.9787 94.6615 28.808C94.7042 28.616 94.7682 28.52 94.8535 28.52C94.9388 28.52 95.0242 28.4987 95.1095 28.456C95.2162 28.4133 95.3122 28.4133 95.3975 28.456C95.4828 28.456 95.5788 28.4667 95.6855 28.488C95.7922 28.5093 95.8455 28.5627 95.8455 28.648C95.9308 28.7973 96.0695 28.8187 96.2615 28.712C96.4535 28.584 96.6562 28.3067 96.8695 27.88C97.0828 27.5387 97.3602 27.1973 97.7015 26.856C98.0642 26.5147 98.4162 26.2053 98.7575 25.928C99.1202 25.6293 99.4188 25.416 99.6535 25.288C99.7602 25.2453 99.9202 25.192 100.133 25.128C100.347 25.064 100.571 25.0107 100.805 24.968C101.061 24.9253 101.275 24.9147 101.445 24.936C101.829 24.9573 102.149 25.064 102.405 25.256C102.683 25.448 102.939 25.672 103.173 25.928C103.451 26.12 103.621 26.376 103.685 26.696C103.771 27.016 103.792 27.3573 103.749 27.72C103.707 28.0827 103.611 28.4133 103.461 28.712C103.397 28.9253 103.216 29.1813 102.917 29.48C102.619 29.7787 102.277 30.0667 101.893 30.344C101.509 30.6213 101.157 30.824 100.837 30.952C100.56 31.016 100.197 31.0693 99.7495 31.112C99.3228 31.1547 98.9175 31.176 98.5335 31.176C98.1708 31.1547 97.9255 31.112 97.7975 31.048C97.6482 30.9627 97.5308 31.08 97.4455 31.4C97.3602 31.72 97.2962 32.1787 97.2535 32.776C97.2108 33.2453 97.2108 33.5867 97.2535 33.8C97.2962 34.0133 97.3388 34.1627 97.3815 34.248C97.5308 34.3973 97.7335 34.5893 97.9895 34.824C98.2668 35.0373 98.6508 35.0693 99.1415 34.92C99.5468 34.8133 99.9415 34.536 100.325 34.088C100.731 33.64 101.104 33.2773 101.445 33C101.531 32.8507 101.669 32.7653 101.861 32.744C102.075 32.7013 102.299 32.712 102.533 32.776C102.768 32.9253 102.864 33.1067 102.821 33.32C102.8 33.512 102.693 33.8107 102.501 34.216C102.437 34.3653 102.288 34.5573 102.053 34.792C101.84 35.0053 101.595 35.2293 101.317 35.464C101.061 35.6773 100.827 35.848 100.613 35.976C99.9735 36.3173 99.3762 36.4987 98.8215 36.52C98.2668 36.52 97.7335 36.424 97.2215 36.232ZM99.1095 29.736C99.5788 29.6293 99.9522 29.5547 100.229 29.512C100.507 29.4693 100.773 29.352 101.029 29.16C101.285 28.9467 101.605 28.552 101.989 27.976C102.075 27.7413 102.096 27.5067 102.053 27.272C102.032 27.0373 101.979 26.8773 101.893 26.792C101.701 26.5787 101.467 26.5147 101.189 26.6C100.933 26.664 100.688 26.7813 100.453 26.952C100.304 27.016 100.08 27.176 99.7815 27.432C99.5042 27.6667 99.2268 27.944 98.9495 28.264C98.6722 28.5627 98.4482 28.84 98.2775 29.096C98.1068 29.352 98.0642 29.5013 98.1495 29.544C98.1068 29.6293 98.2242 29.6827 98.5015 29.704C98.8002 29.7253 99.0028 29.736 99.1095 29.736ZM105.9 35.496C105.686 35.368 105.526 35.24 105.42 35.112C105.313 34.984 105.26 34.8027 105.26 34.568C105.26 34.248 105.302 33.9173 105.388 33.576C105.473 33.2133 105.558 32.8613 105.644 32.52C105.686 32.136 105.74 31.752 105.804 31.368C105.889 30.9627 106.038 30.5893 106.252 30.248C106.486 29.4373 106.732 28.6373 106.988 27.848C107.244 27.0373 107.468 26.2053 107.66 25.352C107.937 24.5627 108.182 23.8693 108.396 23.272C108.63 22.6533 108.918 21.8747 109.26 20.936C109.452 20.4027 109.612 19.8373 109.74 19.24C109.889 18.6213 110.113 18.0667 110.412 17.576C110.54 17.384 110.636 17.224 110.7 17.096C110.785 16.9467 110.87 16.808 110.956 16.68C110.977 16.5947 111.041 16.5413 111.148 16.52C111.276 16.4987 111.414 16.5093 111.564 16.552C111.713 16.5947 111.83 16.6693 111.916 16.776C111.98 16.7547 112.054 16.8187 112.14 16.968C112.246 17.096 112.342 17.2453 112.428 17.416C112.513 17.5867 112.545 17.736 112.524 17.864C112.524 17.9493 112.502 18.0667 112.46 18.216C112.438 18.3653 112.385 18.504 112.3 18.632C112.214 18.7173 112.129 18.8453 112.044 19.016C111.98 19.1653 111.873 19.3787 111.724 19.656C111.638 19.9333 111.564 20.2213 111.5 20.52C111.436 20.7973 111.35 21.0533 111.244 21.288C111.158 21.544 111.052 21.7893 110.924 22.024C110.817 22.2587 110.742 22.4507 110.7 22.6C110.55 23.0907 110.369 23.5707 110.156 24.04C109.964 24.5093 109.793 25.0107 109.644 25.544C109.494 26.056 109.345 26.5893 109.196 27.144C109.046 27.6773 108.833 28.1893 108.556 28.68C108.406 28.9147 108.3 29.2133 108.236 29.576C108.172 29.9387 108.108 30.3013 108.044 30.664C107.916 31.048 107.798 31.4107 107.692 31.752C107.606 32.072 107.564 32.2747 107.564 32.36C107.436 32.8293 107.34 33.2987 107.276 33.768C107.233 34.216 107.126 34.6107 106.956 34.952C106.934 35.1653 106.892 35.336 106.828 35.464C106.764 35.592 106.657 35.6667 106.508 35.688C106.358 35.688 106.156 35.624 105.9 35.496ZM118.768 35.848C118.683 35.6773 118.576 35.5493 118.448 35.464C118.32 35.3573 118.256 35.2613 118.256 35.176C118.256 35.0907 118.245 35.0053 118.224 34.92C118.224 34.8133 118.181 34.7173 118.096 34.632C117.989 34.504 118 34.216 118.128 33.768C118.256 33.2987 118.469 32.7333 118.768 32.072C119.067 31.3893 119.419 30.6747 119.824 29.928C119.995 29.7573 120.165 29.5333 120.336 29.256C120.507 28.9787 120.635 28.7973 120.72 28.712C120.72 28.6267 120.752 28.552 120.816 28.488C120.88 28.4027 120.955 28.36 121.04 28.36V28.168C121.04 28.0613 121.136 27.88 121.328 27.624C121.541 27.368 121.797 27.0907 122.096 26.792C122.395 26.472 122.704 26.1733 123.024 25.896C123.344 25.5973 123.611 25.384 123.824 25.256C124.272 24.9573 124.731 24.776 125.2 24.712C125.691 24.648 126.107 24.7547 126.448 25.032C126.512 25.096 126.619 25.2027 126.768 25.352C126.917 25.5013 127.088 25.672 127.28 25.864C127.493 26.0347 127.707 26.216 127.92 26.408L129.104 27.464L128.528 29.064C128.251 29.9173 128.176 30.664 128.304 31.304C128.453 31.944 128.667 32.4987 128.944 32.968C129.051 33.2027 129.264 33.4267 129.584 33.64C129.925 33.8533 130.245 33.9813 130.544 34.024C130.715 34.0453 130.875 34.1093 131.024 34.216C131.173 34.3227 131.248 34.4933 131.248 34.728C131.248 34.9413 131.205 35.112 131.12 35.24C131.035 35.368 130.885 35.4533 130.672 35.496C129.968 35.5813 129.307 35.4107 128.688 34.984C128.091 34.5573 127.536 33.8533 127.024 32.872C126.939 32.744 126.821 32.5093 126.672 32.168C126.544 31.8053 126.469 31.5707 126.448 31.464C126.363 31.5707 126.203 31.7733 125.968 32.072C125.733 32.3493 125.552 32.552 125.424 32.68C123.909 34.216 122.597 35.2507 121.488 35.784C120.4 36.296 119.493 36.3173 118.768 35.848ZM119.92 34.056C119.92 34.2053 120.144 34.2053 120.592 34.056C121.061 33.8853 121.563 33.5867 122.096 33.16C122.821 32.5413 123.547 31.8587 124.272 31.112C125.019 30.3653 125.616 29.672 126.064 29.032L126.768 27.88C126.555 27.3893 126.32 27.0587 126.064 26.888C125.829 26.696 125.627 26.6 125.456 26.6C125.179 26.6 124.763 26.856 124.208 27.368C123.675 27.88 123.099 28.5627 122.48 29.416C121.861 30.2693 121.275 31.208 120.72 32.232C120.507 32.6587 120.315 33.0747 120.144 33.48C119.995 33.864 119.92 34.056 119.92 34.056ZM134.337 40.2C134.187 40.1573 134.027 40.072 133.857 39.944C133.686 39.8373 133.601 39.7413 133.601 39.656C133.622 39.5067 133.654 39.368 133.697 39.24C133.739 39.1333 133.771 39.0267 133.793 38.92C133.835 38.7067 133.857 38.4507 133.857 38.152C133.857 37.8747 133.889 37.3413 133.953 36.552C134.017 35.6987 134.07 34.984 134.113 34.408C134.177 33.832 134.241 33.32 134.305 32.872C134.369 32.4027 134.443 31.9333 134.529 31.464C134.635 30.9947 134.763 30.44 134.913 29.8C135.019 29.0747 135.019 28.6267 134.913 28.456C134.827 28.2853 134.667 28.1893 134.433 28.168C134.027 28.1253 133.665 28.0613 133.345 27.976C133.046 27.8693 132.854 27.688 132.769 27.432C132.555 27.2187 132.502 27.048 132.609 26.92C132.715 26.792 132.929 26.696 133.249 26.632C133.59 26.5467 133.953 26.5147 134.337 26.536C134.699 26.5147 134.977 26.4933 135.169 26.472C135.382 26.4293 135.553 26.3227 135.681 26.152C135.809 25.96 135.937 25.64 136.065 25.192C136.107 25 136.182 24.7333 136.289 24.392C136.417 24.0507 136.523 23.7413 136.609 23.464C136.715 23.1867 136.769 23.048 136.769 23.048C136.961 22.8987 137.057 22.7067 137.057 22.472C137.078 22.1733 137.217 21.7787 137.473 21.288C137.75 20.776 138.187 20.0613 138.785 19.144C139.51 18.2053 140.161 17.4693 140.737 16.936C141.334 16.4027 142.027 16.072 142.817 15.944C142.902 15.9013 143.094 15.88 143.393 15.88C143.691 15.88 143.894 15.88 144.001 15.88C144.449 15.9013 144.758 15.9867 144.929 16.136C145.099 16.2853 145.281 16.5413 145.473 16.904C145.643 17.1813 145.665 17.5653 145.537 18.056C145.43 18.5253 145.291 18.888 145.121 19.144C145.014 19.3147 144.854 19.5067 144.641 19.72C144.449 19.9333 144.257 20.1253 144.065 20.296C143.894 20.4453 143.766 20.52 143.681 20.52C143.574 20.52 143.467 20.488 143.361 20.424C143.275 20.3387 143.19 20.2853 143.105 20.264C142.913 20.1787 142.881 20.0293 143.009 19.816C143.137 19.5813 143.275 19.3573 143.425 19.144C143.638 18.824 143.777 18.568 143.841 18.376C143.905 18.184 143.926 18.0133 143.905 17.864C143.883 17.7147 143.841 17.5333 143.777 17.32L144.065 17.608C143.915 17.5227 143.745 17.4907 143.553 17.512C143.361 17.5333 143.147 17.5867 142.913 17.672C142.507 17.8853 142.177 18.12 141.921 18.376C141.665 18.6107 141.451 18.8133 141.281 18.984C140.769 19.432 140.353 19.976 140.033 20.616C139.713 21.256 139.414 21.8533 139.137 22.408C139.051 22.5787 138.902 22.8987 138.689 23.368C138.497 23.816 138.315 24.2427 138.145 24.648C137.995 25.032 137.846 25.3733 137.697 25.672C137.547 25.9493 137.473 26.12 137.473 26.184C137.409 26.3333 137.441 26.408 137.569 26.408C137.718 26.408 138.006 26.3973 138.433 26.376C139.478 26.248 140.257 26.216 140.769 26.28C141.302 26.3227 141.611 26.5147 141.697 26.856C142.059 27.368 142.006 27.688 141.537 27.816C141.089 27.9227 140.257 28.0613 139.041 28.232C138.699 28.2533 138.358 28.2747 138.017 28.296C137.675 28.296 137.451 28.3067 137.345 28.328C137.259 28.3493 137.174 28.3813 137.089 28.424C137.003 28.4667 136.907 28.68 136.801 29.064C136.779 29.2987 136.737 29.5867 136.673 29.928C136.63 30.248 136.598 30.5573 136.577 30.856C136.491 31.112 136.427 31.3787 136.385 31.656C136.363 31.9333 136.299 32.1787 136.193 32.392C136.065 33.5653 135.979 34.6533 135.937 35.656C135.894 36.6373 135.83 37.48 135.745 38.184C135.681 38.888 135.51 39.432 135.233 39.816C135.083 39.9867 134.923 40.1147 134.753 40.2C134.603 40.3067 134.465 40.3067 134.337 40.2ZM152.935 43.112C152.338 43.3467 151.709 43.304 151.047 42.984C150.407 42.6853 149.853 42.2053 149.383 41.544C149.298 41.416 149.191 41.2133 149.063 40.936C148.957 40.68 148.85 40.4133 148.743 40.136C148.658 39.8587 148.605 39.6133 148.583 39.4C148.562 39.1867 148.583 39.0587 148.647 39.016C148.711 38.952 148.818 38.9307 148.967 38.952C149.117 38.9733 149.255 39.0267 149.383 39.112C149.533 39.1973 149.629 39.304 149.671 39.432C149.735 39.5813 149.831 39.7733 149.959 40.008C150.109 40.2427 150.269 40.456 150.439 40.648C150.61 40.84 150.738 40.9467 150.823 40.968C151.229 41.16 151.527 41.2453 151.719 41.224C151.911 41.2027 152.082 41.1387 152.231 41.032C152.594 40.7547 152.893 40.392 153.127 39.944C153.362 39.496 153.629 38.8027 153.927 37.864C154.162 37.0747 154.397 36.2427 154.631 35.368C154.887 34.472 155.111 33.7787 155.303 33.288C155.367 33.032 155.442 32.8187 155.527 32.648C155.634 32.456 155.73 32.3173 155.815 32.232H156.007C155.538 32.5307 155.122 32.872 154.759 33.256C154.397 33.64 153.938 33.9493 153.383 34.184C153.255 34.3333 152.935 34.4293 152.423 34.472C151.933 34.4933 151.453 34.4293 150.983 34.28C150.685 34.1093 150.461 33.9813 150.311 33.896C150.183 33.8107 150.077 33.6933 149.991 33.544C149.927 33.3947 149.831 33.16 149.703 32.84C149.554 32.52 149.533 31.9973 149.639 31.272C149.746 30.5467 149.938 29.8213 150.215 29.096C150.471 28.5627 150.845 27.9867 151.335 27.368C151.826 26.7493 152.349 26.1947 152.903 25.704C153.458 25.192 153.959 24.872 154.407 24.744C154.578 24.6587 154.759 24.6053 154.951 24.584C155.165 24.5413 155.463 24.5733 155.847 24.68C156.21 24.7227 156.487 24.808 156.679 24.936C156.871 25.0427 157.181 25.2773 157.607 25.64C157.885 25.9173 158.109 26.1947 158.279 26.472C158.471 26.7493 158.621 27.0373 158.727 27.336C158.877 27.656 158.93 27.9547 158.887 28.232C158.866 28.488 158.749 28.7547 158.535 29.032C158.343 29.3093 158.141 29.5867 157.927 29.864C157.714 30.1413 157.554 30.5253 157.447 31.016C157.341 31.656 157.17 32.3813 156.935 33.192C156.701 33.9813 156.498 34.7173 156.327 35.4L155.815 37.384C155.282 39.1973 154.77 40.5413 154.279 41.416C153.81 42.312 153.362 42.8773 152.935 43.112ZM151.783 32.872C152.21 32.8507 152.615 32.7653 152.999 32.616C153.383 32.4667 153.757 32.2213 154.119 31.88C154.482 31.5173 154.845 31.0587 155.207 30.504C155.57 29.992 155.826 29.4587 155.975 28.904C156.125 28.328 156.178 27.7733 156.135 27.24C156.114 26.8987 156.061 26.6747 155.975 26.568C155.89 26.4613 155.709 26.4293 155.431 26.472C155.026 26.536 154.578 26.76 154.087 27.144C153.597 27.5067 153.138 27.9653 152.711 28.52C152.391 28.9467 152.125 29.4587 151.911 30.056C151.698 30.696 151.57 31.304 151.527 31.88C151.485 32.456 151.57 32.7867 151.783 32.872ZM162.902 36.008C162.838 36.0293 162.732 36.0187 162.582 35.976C162.433 35.9333 162.284 35.88 162.134 35.816C161.985 35.752 161.889 35.6987 161.846 35.656C161.761 35.5707 161.676 35.4427 161.59 35.272C161.526 35.1013 161.526 34.856 161.59 34.536C161.654 34.1947 161.868 33.7573 162.23 33.224C162.337 33.0107 162.465 32.6907 162.614 32.264C162.764 31.8373 162.913 31.3893 163.062 30.92C163.233 30.4293 163.382 29.992 163.51 29.608C163.66 29.224 163.766 28.9573 163.83 28.808C163.873 28.4453 163.852 28.1893 163.766 28.04C163.702 27.8693 163.521 27.7733 163.222 27.752C163.009 27.752 162.838 27.7307 162.71 27.688C162.604 27.6453 162.55 27.432 162.55 27.048C162.593 26.7493 162.668 26.5467 162.774 26.44C162.902 26.312 163.073 26.1733 163.286 26.024C163.5 25.9173 163.713 25.8427 163.926 25.8C164.161 25.7573 164.385 25.7467 164.598 25.768C164.812 25.7893 164.982 25.864 165.11 25.992C165.26 26.0773 165.356 26.2693 165.398 26.568C165.441 26.8453 165.462 27.1333 165.462 27.432C165.484 27.7307 165.505 27.9547 165.526 28.104C165.74 27.9333 166.028 27.6987 166.39 27.4C166.774 27.08 167.105 26.7813 167.382 26.504C167.724 26.2693 168.129 26.0347 168.598 25.8C169.068 25.544 169.409 25.416 169.622 25.416C169.857 25.416 170.092 25.48 170.326 25.608C170.561 25.7147 170.721 25.8533 170.806 26.024C171.02 26.3867 171.116 26.7067 171.094 26.984C171.094 27.2613 170.977 27.5493 170.742 27.848C170.529 28.1253 170.262 28.3173 169.942 28.424C169.644 28.5307 169.452 28.584 169.366 28.584C169.238 28.584 169.078 28.488 168.886 28.296C168.694 28.104 168.588 27.944 168.566 27.816C168.566 27.752 168.428 27.816 168.15 28.008C167.894 28.1787 167.606 28.4027 167.286 28.68C166.966 28.936 166.7 29.1707 166.486 29.384C166.124 29.832 165.74 30.44 165.334 31.208C164.929 31.976 164.449 32.904 163.894 33.992C163.638 34.5253 163.457 34.984 163.35 35.368C163.244 35.7307 163.094 35.944 162.902 36.008ZM180.001 36.936C179.852 37.0213 179.649 36.9893 179.393 36.84C179.159 36.6907 178.924 36.4667 178.689 36.168C178.54 35.912 178.433 35.6347 178.369 35.336C178.327 35.0373 178.305 34.6213 178.305 34.088C178.327 33.6613 178.305 33.384 178.241 33.256C178.199 33.128 178.081 33.1493 177.889 33.32C177.697 33.4693 177.367 33.7787 176.897 34.248C176.364 34.7813 175.852 35.1973 175.361 35.496C174.892 35.7947 174.508 35.9333 174.209 35.912C174.06 35.912 173.889 35.8373 173.697 35.688C173.527 35.5173 173.367 35.3147 173.217 35.08C173.068 34.824 172.94 34.568 172.833 34.312C172.705 33.8427 172.684 33.2453 172.769 32.52C172.876 31.7733 173.047 30.9947 173.281 30.184C173.516 29.3733 173.783 28.6053 174.081 27.88C174.401 27.1547 174.721 26.568 175.041 26.12C175.383 25.672 175.681 25.448 175.937 25.448C176.108 25.448 176.257 25.5333 176.385 25.704C176.535 25.8747 176.684 26.1413 176.833 26.504C176.919 26.6533 176.951 26.7813 176.929 26.888C176.929 26.9947 176.844 27.1227 176.673 27.272C176.481 27.528 176.257 27.912 176.001 28.424C175.767 28.936 175.532 29.4907 175.297 30.088C175.084 30.6853 174.892 31.2613 174.721 31.816C174.551 32.3707 174.433 32.8293 174.369 33.192C174.305 33.5333 174.316 33.704 174.401 33.704C174.7 33.704 175.052 33.5867 175.457 33.352C175.884 33.096 176.289 32.7867 176.673 32.424C177.121 31.976 177.516 31.4853 177.857 30.952C178.22 30.4187 178.583 29.8533 178.945 29.256C179.223 28.8293 179.511 28.36 179.809 27.848C180.129 27.336 180.332 26.9733 180.417 26.76C180.716 26.2053 180.94 25.832 181.089 25.64C181.239 25.4267 181.42 25.288 181.633 25.224C181.74 25.224 181.836 25.224 181.921 25.224C182.028 25.224 182.081 25.224 182.081 25.224C182.209 25.2453 182.359 25.3413 182.529 25.512C182.7 25.5973 182.796 25.6827 182.817 25.768C182.839 25.832 182.849 25.9173 182.849 26.024C182.764 26.2373 182.625 26.5573 182.433 26.984C182.263 27.3893 182.135 27.688 182.049 27.88C181.644 28.7973 181.239 29.704 180.833 30.6C180.449 31.4747 180.172 32.3707 180.001 33.288C179.959 33.5867 179.948 33.9387 179.969 34.344C180.012 34.728 180.076 35.0053 180.161 35.176C180.225 35.304 180.3 35.4533 180.385 35.624C180.492 35.7733 180.609 35.9013 180.737 36.008C180.929 36.136 180.961 36.2747 180.833 36.424C180.727 36.5733 180.577 36.7013 180.385 36.808C180.193 36.8933 180.065 36.936 180.001 36.936ZM182.917 44.136C182.768 44.072 182.608 43.9653 182.437 43.816C182.267 43.6667 182.128 43.496 182.021 43.304C181.915 43.1333 181.861 42.984 181.861 42.856C181.861 42.728 181.915 42.3867 182.021 41.832C182.128 41.2987 182.267 40.6373 182.437 39.848C182.629 39.08 182.832 38.2907 183.045 37.48C183.28 36.6907 183.515 35.9867 183.749 35.368C183.792 35.2613 183.931 34.9093 184.165 34.312C184.421 33.6933 184.667 32.9467 184.901 32.072C185.072 31.5173 185.296 30.888 185.573 30.184C185.851 29.48 186.139 28.776 186.437 28.072C186.736 27.3467 186.981 26.7067 187.173 26.152C187.365 25.5973 187.525 25.1493 187.653 24.808C187.803 24.4453 187.888 24.2213 187.909 24.136C187.952 24.008 188.016 23.9013 188.101 23.816C188.208 23.7093 188.315 23.624 188.421 23.56C188.528 23.4747 188.613 23.4213 188.677 23.4C189.061 23.2933 189.392 23.4533 189.669 23.88C189.776 24.072 189.797 24.296 189.733 24.552C189.669 24.808 189.552 25.128 189.381 25.512L189.157 26.152L190.309 25.896C190.501 25.896 190.736 25.9067 191.013 25.928C191.312 25.928 191.6 25.928 191.877 25.928C192.155 25.928 192.357 25.9493 192.485 25.992C192.997 26.0133 193.349 26.1093 193.541 26.28C193.755 26.4507 193.936 26.6747 194.085 26.952C194.192 27.0587 194.32 27.208 194.469 27.4C194.619 27.5707 194.704 27.7413 194.725 27.912C194.811 28.2747 194.811 28.6693 194.725 29.096C194.661 29.5013 194.533 29.9067 194.341 30.312C194.171 30.7173 193.936 31.0907 193.637 31.432C193.36 31.752 193.061 32.0187 192.741 32.232C192.528 32.3173 192.336 32.4133 192.165 32.52C191.995 32.6053 191.909 32.648 191.909 32.648C191.888 32.7547 191.653 32.9253 191.205 33.16C190.757 33.3733 190.245 33.576 189.669 33.768C189.093 33.96 188.592 34.088 188.165 34.152C188.016 34.1733 187.803 34.1947 187.525 34.216C187.248 34.2373 187.035 34.2053 186.885 34.12C186.651 34.0773 186.491 34.056 186.405 34.056C186.32 34.056 186.277 34.0987 186.277 34.184C186.256 34.2267 186.107 34.6747 185.829 35.528C185.552 36.3813 185.264 37.3733 184.965 38.504C184.56 39.7413 184.229 40.7227 183.973 41.448C183.717 42.1947 183.515 42.7493 183.365 43.112C183.237 43.4747 183.141 43.72 183.077 43.848C183.013 43.9973 182.96 44.0933 182.917 44.136ZM186.917 32.328C186.981 32.456 187.184 32.4987 187.525 32.456C187.888 32.392 188.315 32.264 188.805 32.072C189.317 31.8587 189.819 31.624 190.309 31.368C190.8 31.0907 191.205 30.8133 191.525 30.536C191.995 30.0027 192.379 29.512 192.677 29.064C192.976 28.5947 193.019 28.2853 192.805 28.136C192.571 27.7947 192.133 27.6347 191.493 27.656C190.853 27.6773 190.064 27.944 189.125 28.456C188.763 28.584 188.485 28.7547 188.293 28.968C188.123 29.16 187.973 29.4053 187.845 29.704C187.717 30.0027 187.557 30.3653 187.365 30.792C187.173 31.2613 187.045 31.6133 186.981 31.848C186.917 32.0827 186.896 32.2427 186.917 32.328ZM195.171 44.168C195.086 44.168 194.979 44.168 194.851 44.168C194.723 44.1893 194.606 44.104 194.499 43.912C194.414 43.8053 194.36 43.6453 194.339 43.432C194.339 43.2187 194.392 42.8347 194.499 42.28C194.606 41.9173 194.691 41.5547 194.755 41.192C194.819 40.8507 194.851 40.5947 194.851 40.424C194.851 40.3387 194.872 40.168 194.915 39.912C194.979 39.6773 195.011 39.5067 195.011 39.4C195.118 39.2293 195.203 38.9947 195.267 38.696C195.331 38.3973 195.363 38.1307 195.363 37.896C195.363 37.64 195.491 37.4053 195.747 37.192C195.747 37.0213 195.779 36.808 195.843 36.552C195.928 36.296 195.971 36.1253 195.971 36.04C196.035 35.7413 196.174 35.2187 196.387 34.472C196.622 33.704 196.899 32.84 197.219 31.88C197.56 30.92 197.891 29.9813 198.211 29.064C198.531 28.1467 198.819 27.368 199.075 26.728C199.331 26.1307 199.502 25.6187 199.587 25.192C199.694 24.744 199.747 24.4133 199.747 24.2C199.747 24.1147 199.768 24.0507 199.811 24.008C199.854 23.944 199.95 23.8267 200.099 23.656C200.312 23.4427 200.494 23.3787 200.643 23.464C200.814 23.5493 201.016 23.6773 201.251 23.848C201.422 24.1253 201.539 24.36 201.603 24.552C201.688 24.744 201.688 25.0747 201.603 25.544C201.603 25.864 201.55 26.1413 201.443 26.376C201.336 26.6107 201.24 26.792 201.155 26.92C201.07 27.0267 201.048 27.0693 201.091 27.048C201.966 26.6427 202.734 26.4293 203.395 26.408C204.078 26.3653 204.643 26.4827 205.091 26.76C205.56 27.016 205.912 27.3787 206.147 27.848C206.382 28.3173 206.499 28.8613 206.499 29.48C206.499 29.736 206.446 30.0453 206.339 30.408C206.232 30.7493 206.094 31.0693 205.923 31.368C205.774 31.6453 205.635 31.848 205.507 31.976C205.422 31.976 205.336 32.0507 205.251 32.2C205.166 32.328 205.08 32.4773 204.995 32.648C204.824 32.8613 204.547 33.1067 204.163 33.384C203.8 33.64 203.438 33.8533 203.075 34.024C202.712 34.1733 202.446 34.216 202.275 34.152C202.275 34.152 202.243 34.1627 202.179 34.184C202.136 34.184 202.115 34.2373 202.115 34.344C202.115 34.3867 201.944 34.4827 201.603 34.632C201.262 34.76 200.867 34.888 200.419 35.016C199.971 35.1227 199.576 35.176 199.235 35.176C198.787 35.176 198.467 35.0907 198.275 34.92C198.232 34.9627 198.179 35.0267 198.115 35.112C198.072 35.1973 198.051 35.272 198.051 35.336C198.051 35.464 197.998 35.7093 197.891 36.072C197.806 36.4133 197.699 36.744 197.571 37.064C197.443 37.384 197.326 37.544 197.219 37.544C197.219 37.544 197.198 37.576 197.155 37.64C197.112 37.704 197.134 37.7893 197.219 37.896C197.219 37.896 197.208 38.0133 197.187 38.248C197.187 38.504 197.134 38.7173 197.027 38.888C197.027 39.0587 196.995 39.3147 196.931 39.656C196.867 39.9973 196.792 40.2533 196.707 40.424C196.707 40.68 196.664 40.9253 196.579 41.16C196.515 41.416 196.44 41.544 196.355 41.544C196.27 41.5653 196.216 41.6933 196.195 41.928C196.174 42.184 196.163 42.3653 196.163 42.472C196.142 43.0053 196.035 43.4213 195.843 43.72C195.651 44.0187 195.427 44.168 195.171 44.168ZM199.043 33.48C199.214 33.48 199.566 33.4053 200.099 33.256C200.632 33.1067 201.176 32.9253 201.731 32.712C202.307 32.4773 202.734 32.2427 203.011 32.008C203.566 31.5173 203.992 30.9627 204.291 30.344C204.611 29.704 204.59 29.096 204.227 28.52C204.056 28.2213 203.747 28.104 203.299 28.168C202.851 28.2107 202.36 28.3813 201.827 28.68C201.294 28.9787 200.792 29.352 200.323 29.8C200.067 30.0773 199.832 30.4187 199.619 30.824C199.406 31.2293 199.224 31.6347 199.075 32.04C198.947 32.4453 198.872 32.7867 198.851 33.064C198.83 33.3413 198.894 33.48 199.043 33.48ZM210.753 36.232C209.921 35.8907 209.377 35.4213 209.121 34.824C208.886 34.2053 208.843 33.256 208.993 31.976C209.035 31.3147 209.057 30.8773 209.057 30.664C209.057 30.4507 208.939 30.2373 208.705 30.024C208.641 29.9387 208.523 29.8213 208.353 29.672C208.203 29.5227 208.139 29.3947 208.161 29.288C208.139 29.1387 208.15 28.9787 208.193 28.808C208.235 28.616 208.299 28.52 208.385 28.52C208.47 28.52 208.555 28.4987 208.641 28.456C208.747 28.4133 208.843 28.4133 208.929 28.456C209.014 28.456 209.11 28.4667 209.217 28.488C209.323 28.5093 209.377 28.5627 209.377 28.648C209.462 28.7973 209.601 28.8187 209.793 28.712C209.985 28.584 210.187 28.3067 210.401 27.88C210.614 27.5387 210.891 27.1973 211.233 26.856C211.595 26.5147 211.947 26.2053 212.289 25.928C212.651 25.6293 212.95 25.416 213.185 25.288C213.291 25.2453 213.451 25.192 213.665 25.128C213.878 25.064 214.102 25.0107 214.337 24.968C214.593 24.9253 214.806 24.9147 214.977 24.936C215.361 24.9573 215.681 25.064 215.937 25.256C216.214 25.448 216.47 25.672 216.705 25.928C216.982 26.12 217.153 26.376 217.217 26.696C217.302 27.016 217.323 27.3573 217.281 27.72C217.238 28.0827 217.142 28.4133 216.993 28.712C216.929 28.9253 216.747 29.1813 216.449 29.48C216.15 29.7787 215.809 30.0667 215.425 30.344C215.041 30.6213 214.689 30.824 214.369 30.952C214.091 31.016 213.729 31.0693 213.281 31.112C212.854 31.1547 212.449 31.176 212.065 31.176C211.702 31.1547 211.457 31.112 211.329 31.048C211.179 30.9627 211.062 31.08 210.977 31.4C210.891 31.72 210.827 32.1787 210.785 32.776C210.742 33.2453 210.742 33.5867 210.785 33.8C210.827 34.0133 210.87 34.1627 210.913 34.248C211.062 34.3973 211.265 34.5893 211.521 34.824C211.798 35.0373 212.182 35.0693 212.673 34.92C213.078 34.8133 213.473 34.536 213.857 34.088C214.262 33.64 214.635 33.2773 214.977 33C215.062 32.8507 215.201 32.7653 215.393 32.744C215.606 32.7013 215.83 32.712 216.065 32.776C216.299 32.9253 216.395 33.1067 216.353 33.32C216.331 33.512 216.225 33.8107 216.033 34.216C215.969 34.3653 215.819 34.5573 215.585 34.792C215.371 35.0053 215.126 35.2293 214.849 35.464C214.593 35.6773 214.358 35.848 214.145 35.976C213.505 36.3173 212.907 36.4987 212.353 36.52C211.798 36.52 211.265 36.424 210.753 36.232ZM212.641 29.736C213.11 29.6293 213.483 29.5547 213.761 29.512C214.038 29.4693 214.305 29.352 214.561 29.16C214.817 28.9467 215.137 28.552 215.521 27.976C215.606 27.7413 215.627 27.5067 215.585 27.272C215.563 27.0373 215.51 26.8773 215.425 26.792C215.233 26.5787 214.998 26.5147 214.721 26.6C214.465 26.664 214.219 26.7813 213.985 26.952C213.835 27.016 213.611 27.176 213.313 27.432C213.035 27.6667 212.758 27.944 212.481 28.264C212.203 28.5627 211.979 28.84 211.809 29.096C211.638 29.352 211.595 29.5013 211.681 29.544C211.638 29.6293 211.755 29.6827 212.033 29.704C212.331 29.7253 212.534 29.736 212.641 29.736ZM228.839 36.616C228.626 36.616 228.402 36.4987 228.167 36.264C227.954 36.0293 227.762 35.7413 227.591 35.4C227.442 35.0373 227.367 34.696 227.367 34.376C227.367 34.056 227.442 33.4587 227.591 32.584C227.762 31.7093 227.964 30.824 228.199 29.928C228.37 29.3733 228.423 29.0533 228.359 28.968C228.295 28.8827 228.007 29 227.495 29.32C227.196 29.4693 226.93 29.6293 226.695 29.8C226.46 29.9493 226.258 30.12 226.087 30.312C225.98 30.3973 225.82 30.536 225.607 30.728C225.394 30.92 225.17 31.1013 224.935 31.272C224.658 31.4853 224.306 31.784 223.879 32.168C223.452 32.552 223.026 32.936 222.599 33.32C222.194 33.704 221.884 34.0027 221.671 34.216C221.628 34.3013 221.564 34.376 221.479 34.44C221.394 34.504 221.298 34.5467 221.191 34.568C221.084 34.568 220.967 34.5467 220.839 34.504C220.604 34.44 220.38 34.3013 220.167 34.088C219.975 33.8747 219.879 33.6293 219.879 33.352C219.879 33.1387 219.964 32.776 220.135 32.264C220.306 31.7307 220.53 31.0907 220.807 30.344C221.106 29.5973 221.447 28.808 221.831 27.976C221.895 27.8693 221.948 27.7413 221.991 27.592C222.034 27.4213 222.066 27.24 222.087 27.048C222.13 26.856 222.151 26.6747 222.151 26.504C222.151 26.3973 222.162 26.2907 222.183 26.184C222.226 26.056 222.268 25.9387 222.311 25.832C222.375 25.704 222.428 25.6187 222.471 25.576C222.556 25.4053 222.706 25.3627 222.919 25.448C223.132 25.512 223.314 25.6613 223.463 25.896C223.783 26.1947 223.943 26.568 223.943 27.016C223.964 27.464 223.858 28.0187 223.623 28.68C223.538 28.8293 223.463 28.9787 223.399 29.128C223.356 29.256 223.314 29.3733 223.271 29.48C223.228 29.5653 223.196 29.64 223.175 29.704C223.154 29.7467 223.143 29.768 223.143 29.768C223.228 29.768 223.42 29.672 223.719 29.48C224.018 29.288 224.37 29.0747 224.775 28.84C225.095 28.6053 225.372 28.392 225.607 28.2C225.863 27.9867 226.076 27.8267 226.247 27.72C226.418 27.592 226.524 27.528 226.567 27.528C226.652 27.528 226.759 27.496 226.887 27.432C227.015 27.368 227.122 27.2933 227.207 27.208C227.292 27.1227 227.356 27.08 227.399 27.08C227.463 27.0587 227.495 27.048 227.495 27.048C227.495 27.048 227.538 27.048 227.623 27.048C227.708 27.0267 227.794 26.9733 227.879 26.888C228.05 26.76 228.274 26.728 228.551 26.792C228.828 26.8347 229.084 26.9413 229.319 27.112C229.554 27.2827 229.671 27.4747 229.671 27.688C229.671 27.7733 229.692 27.848 229.735 27.912C229.799 27.9547 229.831 27.976 229.831 27.976C230.002 27.976 230.108 28.2427 230.151 28.776C230.215 29.3093 230.162 29.8213 229.991 30.312C229.991 30.632 229.927 31.016 229.799 31.464C229.692 31.912 229.596 32.3387 229.511 32.744C229.34 33.2773 229.223 33.7467 229.159 34.152C229.095 34.5573 229.084 34.8987 229.127 35.176C229.17 35.4533 229.244 35.6773 229.351 35.848C229.436 35.9973 229.436 36.168 229.351 36.36C229.266 36.5307 229.095 36.616 228.839 36.616ZM236.429 31.56C235.832 31.6667 235.437 31.3787 235.245 30.696C235.053 30.0133 235.107 29.0747 235.405 27.88C235.533 27.624 235.64 27.3787 235.725 27.144C235.811 26.888 235.853 26.6853 235.853 26.536C235.939 26.2587 236.045 25.9387 236.173 25.576C236.323 25.192 236.472 24.84 236.621 24.52C236.771 24.1787 236.877 23.9547 236.941 23.848C237.027 23.848 237.112 23.7733 237.197 23.624C237.304 23.4747 237.357 23.3253 237.357 23.176C237.357 23.0053 237.389 22.8133 237.453 22.6C237.539 22.3867 237.624 22.2373 237.709 22.152C237.709 22.0453 237.752 21.928 237.837 21.8C237.923 21.672 237.965 21.5653 237.965 21.48C237.965 21.3947 237.987 21.32 238.029 21.256C238.093 21.192 238.125 21.1173 238.125 21.032C238.317 20.6907 238.563 20.1893 238.861 19.528C239.181 18.8453 239.491 18.1307 239.789 17.384C240.109 16.6373 240.376 15.976 240.589 15.4C240.803 14.824 240.909 14.472 240.909 14.344C240.952 14.1733 241.016 14.0453 241.101 13.96C241.187 13.8747 241.315 13.8533 241.485 13.896C241.571 13.832 241.656 13.8 241.741 13.8C241.827 13.7787 241.912 13.768 241.997 13.768C241.997 13.768 242.029 13.8107 242.093 13.896C242.179 13.9813 242.296 14.1093 242.445 14.28C242.616 14.4293 242.712 14.6 242.733 14.792C242.755 14.984 242.765 15.208 242.765 15.464C242.744 15.8693 242.595 16.328 242.317 16.84C242.04 17.352 241.731 17.9173 241.389 18.536C241.176 18.9413 240.963 19.3253 240.749 19.688C240.557 20.0507 240.461 20.2747 240.461 20.36C240.461 20.4453 240.419 20.5733 240.333 20.744C240.248 20.9147 240.152 21.128 240.045 21.384C239.917 21.5973 239.779 21.8533 239.629 22.152C239.48 22.4507 239.341 22.728 239.213 22.984C239.107 23.2187 239.053 23.368 239.053 23.432C239.032 23.5173 239 23.6027 238.957 23.688C238.936 23.7733 238.883 23.8587 238.797 23.944C238.712 23.944 238.659 24.008 238.637 24.136C238.637 24.2427 238.637 24.296 238.637 24.296C238.637 24.3813 238.584 24.584 238.477 24.904C238.392 25.2027 238.243 25.5653 238.029 25.992C237.624 27.1227 237.336 28.0293 237.165 28.712C236.995 29.3733 236.888 29.9387 236.845 30.408C236.803 30.92 236.76 31.2187 236.717 31.304C236.696 31.3893 236.6 31.4747 236.429 31.56ZM234.701 36.68C234.296 36.8293 233.955 36.904 233.677 36.904C233.421 36.8827 233.133 36.7547 232.813 36.52C232.408 36.136 232.269 35.752 232.397 35.368C232.547 34.9627 232.899 34.568 233.453 34.184C233.837 33.9493 234.115 33.8213 234.285 33.8C234.477 33.7787 234.765 33.8533 235.149 34.024C235.789 34.4293 236.067 34.8773 235.981 35.368C235.917 35.8587 235.491 36.296 234.701 36.68Z" fill="#FF1054"/>
</svg>
