<svg width="341" height="58" viewBox="0 0 341 58" fill="none" xmlns="http://www.w3.org/2000/svg">
<path d="M85.88 39.408C85.7093 39.408 85.5173 39.2693 85.304 38.992C85.0907 38.7147 84.9947 38.448 85.016 38.192C85.0373 37.8507 85.1333 37.36 85.304 36.72C85.4747 36.08 85.6667 35.4293 85.88 34.768C86.0933 34.1067 86.2853 33.584 86.456 33.2C86.5413 32.8587 86.616 32.56 86.68 32.304C86.7653 32.0267 86.8187 31.8453 86.84 31.76C86.904 31.6747 87 31.4507 87.128 31.088C87.2773 30.7253 87.3947 30.3733 87.48 30.032C87.5227 29.8613 87.608 29.5413 87.736 29.072C87.8853 28.5813 88.056 28.016 88.248 27.376C88.4613 26.736 88.664 26.1067 88.856 25.488C89.0693 24.8693 89.2507 24.3253 89.4 23.856C89.5493 23.3867 89.6453 23.0773 89.688 22.928C89.8587 22.672 89.9867 22.4267 90.072 22.192C90.1573 21.9573 90.2107 21.7973 90.232 21.712C90.36 21.6267 90.4347 21.52 90.456 21.392C90.4773 21.2427 90.488 21.1253 90.488 21.04C90.488 20.9333 90.52 20.848 90.584 20.784C90.6693 20.72 90.712 20.6453 90.712 20.56C90.7973 20.496 90.8507 20.4 90.872 20.272C90.8933 20.1227 90.9573 19.9947 91.064 19.888L91.224 19.344L93.112 19.312C93.0693 19.568 93.0053 19.888 92.92 20.272C92.8347 20.6347 92.632 21.1253 92.312 21.744C92.2053 22.1707 92.0773 22.5547 91.928 22.896C91.8 23.2373 91.7467 23.4613 91.768 23.568C91.7253 23.6107 91.6293 23.824 91.48 24.208C91.352 24.592 91.192 25.0613 91 25.616C90.8293 26.1707 90.648 26.7253 90.456 27.28C90.2853 27.8347 90.1253 28.3253 89.976 28.752C89.848 29.1573 89.7627 29.4133 89.72 29.52C89.5493 29.8613 89.3573 30.3627 89.144 31.024C88.9307 31.6853 88.6107 32.5813 88.184 33.712C88.0133 34.0533 87.8 34.5653 87.544 35.248C87.3093 35.9307 87.1173 36.5493 86.968 37.104C86.7333 37.936 86.5627 38.512 86.456 38.832C86.3707 39.1733 86.296 39.3547 86.232 39.376C86.168 39.4187 86.0507 39.4293 85.88 39.408ZM86.136 20.336C85.5387 20.3573 85.0907 20.3253 84.792 20.24C84.5147 20.1547 84.4187 19.9413 84.504 19.6C84.568 19.344 84.7067 19.152 84.92 19.024C85.1333 18.896 85.4427 18.8 85.848 18.736C86.0827 18.6933 86.3813 18.64 86.744 18.576C87.128 18.512 87.4907 18.448 87.832 18.384C88.536 18.2987 89.112 18.224 89.56 18.16C90.0293 18.096 90.5093 18.0427 91 18C91.4907 17.9573 92.1093 17.9147 92.856 17.872C93.4747 17.8293 93.9973 17.7973 94.424 17.776C94.872 17.7333 95.096 17.712 95.096 17.712C95.16 17.712 95.384 17.7333 95.768 17.776C96.152 17.8187 96.568 17.872 97.016 17.936C97.464 18 97.7947 18.0747 98.008 18.16C98.4987 18.2667 98.8507 18.416 99.064 18.608C99.2987 18.8 99.4587 19.0773 99.544 19.44C99.608 19.696 99.608 19.856 99.544 19.92C99.48 19.9627 99.3627 20.0267 99.192 20.112C98.7013 20.2613 98.3387 20.336 98.104 20.336C97.8693 20.336 97.6027 20.2827 97.304 20.176C97.1973 20.0693 97.0693 19.9733 96.92 19.888C96.792 19.8027 96.5573 19.7387 96.216 19.696C95.896 19.632 95.384 19.5787 94.68 19.536C94.0827 19.6 93.56 19.632 93.112 19.632C92.664 19.632 92.44 19.6853 92.44 19.792L90.552 19.888L88.984 20.048C88.7707 20.0693 88.472 20.1013 88.088 20.144C87.704 20.1653 87.3307 20.1973 86.968 20.24C86.6053 20.2613 86.328 20.2933 86.136 20.336ZM94.2053 36.848C94.1199 36.6773 94.0133 36.5493 93.8853 36.464C93.7573 36.3573 93.6933 36.2613 93.6933 36.176C93.6933 36.0907 93.6826 36.0053 93.6613 35.92C93.6613 35.8133 93.6186 35.7173 93.5333 35.632C93.4266 35.504 93.4373 35.216 93.5653 34.768C93.6933 34.2987 93.9066 33.7333 94.2053 33.072C94.5039 32.3893 94.8559 31.6747 95.2613 30.928C95.4319 30.7573 95.6026 30.5333 95.7733 30.256C95.9439 29.9787 96.0719 29.7973 96.1573 29.712C96.1573 29.6267 96.1893 29.552 96.2533 29.488C96.3173 29.4027 96.3919 29.36 96.4773 29.36V29.168C96.4773 29.0613 96.5733 28.88 96.7653 28.624C96.9786 28.368 97.2346 28.0907 97.5333 27.792C97.8319 27.472 98.1413 27.1733 98.4613 26.896C98.7813 26.5973 99.0479 26.384 99.2613 26.256C99.7093 25.9573 100.168 25.776 100.637 25.712C101.128 25.648 101.544 25.7547 101.885 26.032C101.949 26.096 102.056 26.2027 102.205 26.352C102.355 26.5013 102.525 26.672 102.717 26.864C102.931 27.0347 103.144 27.216 103.357 27.408L104.541 28.464L103.965 30.064C103.688 30.9173 103.613 31.664 103.741 32.304C103.891 32.944 104.104 33.4987 104.381 33.968C104.488 34.2027 104.701 34.4267 105.021 34.64C105.363 34.8533 105.683 34.9813 105.981 35.024C106.152 35.0453 106.312 35.1093 106.461 35.216C106.611 35.3227 106.685 35.4933 106.685 35.728C106.685 35.9413 106.643 36.112 106.557 36.24C106.472 36.368 106.323 36.4533 106.109 36.496C105.405 36.5813 104.744 36.4107 104.125 35.984C103.528 35.5573 102.973 34.8533 102.461 33.872C102.376 33.744 102.259 33.5093 102.109 33.168C101.981 32.8053 101.907 32.5707 101.885 32.464C101.8 32.5707 101.64 32.7733 101.405 33.072C101.171 33.3493 100.989 33.552 100.861 33.68C99.3466 35.216 98.0346 36.2507 96.9253 36.784C95.8373 37.296 94.9306 37.3173 94.2053 36.848ZM95.3573 35.056C95.3573 35.2053 95.5813 35.2053 96.0293 35.056C96.4986 34.8853 96.9999 34.5867 97.5333 34.16C98.2586 33.5413 98.9839 32.8587 99.7093 32.112C100.456 31.3653 101.053 30.672 101.501 30.032L102.205 28.88C101.992 28.3893 101.757 28.0587 101.501 27.888C101.267 27.696 101.064 27.6 100.893 27.6C100.616 27.6 100.2 27.856 99.6453 28.368C99.1119 28.88 98.5359 29.5627 97.9173 30.416C97.2986 31.2693 96.7119 32.208 96.1573 33.232C95.9439 33.6587 95.7519 34.0747 95.5813 34.48C95.4319 34.864 95.3573 35.056 95.3573 35.056ZM111.31 44.112C110.713 44.3467 110.083 44.304 109.422 43.984C108.782 43.6853 108.227 43.2053 107.758 42.544C107.673 42.416 107.566 42.2133 107.438 41.936C107.331 41.68 107.225 41.4133 107.118 41.136C107.033 40.8587 106.979 40.6133 106.958 40.4C106.937 40.1867 106.958 40.0587 107.022 40.016C107.086 39.952 107.193 39.9307 107.342 39.952C107.491 39.9733 107.63 40.0267 107.758 40.112C107.907 40.1973 108.003 40.304 108.046 40.432C108.11 40.5813 108.206 40.7733 108.334 41.008C108.483 41.2427 108.643 41.456 108.814 41.648C108.985 41.84 109.113 41.9467 109.198 41.968C109.603 42.16 109.902 42.2453 110.094 42.224C110.286 42.2027 110.457 42.1387 110.606 42.032C110.969 41.7547 111.267 41.392 111.502 40.944C111.737 40.496 112.003 39.8027 112.302 38.864C112.537 38.0747 112.771 37.2427 113.006 36.368C113.262 35.472 113.486 34.7787 113.678 34.288C113.742 34.032 113.817 33.8187 113.902 33.648C114.009 33.456 114.105 33.3173 114.19 33.232H114.382C113.913 33.5307 113.497 33.872 113.134 34.256C112.771 34.64 112.313 34.9493 111.758 35.184C111.63 35.3333 111.31 35.4293 110.798 35.472C110.307 35.4933 109.827 35.4293 109.358 35.28C109.059 35.1093 108.835 34.9813 108.686 34.896C108.558 34.8107 108.451 34.6933 108.366 34.544C108.302 34.3947 108.206 34.16 108.078 33.84C107.929 33.52 107.907 32.9973 108.014 32.272C108.121 31.5467 108.313 30.8213 108.59 30.096C108.846 29.5627 109.219 28.9867 109.71 28.368C110.201 27.7493 110.723 27.1947 111.278 26.704C111.833 26.192 112.334 25.872 112.782 25.744C112.953 25.6587 113.134 25.6053 113.326 25.584C113.539 25.5413 113.838 25.5733 114.222 25.68C114.585 25.7227 114.862 25.808 115.054 25.936C115.246 26.0427 115.555 26.2773 115.982 26.64C116.259 26.9173 116.483 27.1947 116.654 27.472C116.846 27.7493 116.995 28.0373 117.102 28.336C117.251 28.656 117.305 28.9547 117.262 29.232C117.241 29.488 117.123 29.7547 116.91 30.032C116.718 30.3093 116.515 30.5867 116.302 30.864C116.089 31.1413 115.929 31.5253 115.822 32.016C115.715 32.656 115.545 33.3813 115.31 34.192C115.075 34.9813 114.873 35.7173 114.702 36.4L114.19 38.384C113.657 40.1973 113.145 41.5413 112.654 42.416C112.185 43.312 111.737 43.8773 111.31 44.112ZM110.158 33.872C110.585 33.8507 110.99 33.7653 111.374 33.616C111.758 33.4667 112.131 33.2213 112.494 32.88C112.857 32.5173 113.219 32.0587 113.582 31.504C113.945 30.992 114.201 30.4587 114.35 29.904C114.499 29.328 114.553 28.7733 114.51 28.24C114.489 27.8987 114.435 27.6747 114.35 27.568C114.265 27.4613 114.083 27.4293 113.806 27.472C113.401 27.536 112.953 27.76 112.462 28.144C111.971 28.5067 111.513 28.9653 111.086 29.52C110.766 29.9467 110.499 30.4587 110.286 31.056C110.073 31.696 109.945 32.304 109.902 32.88C109.859 33.456 109.945 33.7867 110.158 33.872ZM130.147 38.096C129.208 38.096 128.44 37.744 127.843 37.04C127.246 36.3147 126.958 35.4187 126.979 34.352C127.022 33.584 127.171 32.7627 127.427 31.888C127.704 30.992 128.067 30.1387 128.515 29.328C128.963 28.496 129.454 27.7707 129.987 27.152C130.52 26.5333 131.075 26.096 131.651 25.84C131.864 25.7333 132.088 25.648 132.323 25.584C132.579 25.52 132.835 25.488 133.091 25.488C133.326 25.488 133.571 25.5307 133.827 25.616C134.083 25.68 134.296 25.7547 134.467 25.84C134.83 25.9893 135.107 26.1707 135.299 26.384C135.491 26.5973 135.662 26.928 135.811 27.376C135.875 27.7813 135.907 28.0693 135.907 28.24C135.907 28.4107 135.854 28.6667 135.747 29.008C135.491 29.776 135.16 30.4373 134.755 30.992C134.35 31.5467 133.806 32.016 133.123 32.4C132.952 32.5067 132.75 32.592 132.515 32.656C132.302 32.6987 132.078 32.72 131.843 32.72C131.416 32.72 131 32.6453 130.595 32.496C130.211 32.3253 129.902 32.08 129.667 31.76L129.443 31.504L129.347 31.76C129.134 32.336 128.963 32.8693 128.835 33.36C128.728 33.8507 128.675 34.2987 128.675 34.704C128.675 34.96 128.696 35.2053 128.739 35.44C128.803 35.6747 128.888 35.8773 128.995 36.048C129.08 36.176 129.219 36.272 129.411 36.336C129.624 36.3787 129.848 36.4 130.083 36.4C130.232 36.4 130.382 36.4 130.531 36.4C130.702 36.3787 130.862 36.336 131.011 36.272C131.374 36.144 131.662 36.0053 131.875 35.856C132.11 35.7067 132.344 35.5467 132.579 35.376L132.707 35.312H132.675C132.931 35.184 133.155 35.056 133.347 34.928C133.56 34.8 133.667 34.736 133.667 34.736C133.752 34.736 133.838 34.6827 133.923 34.576C134.094 34.4907 134.307 34.5227 134.563 34.672C134.84 34.8213 134.979 35.0133 134.979 35.248C134.958 35.3547 134.862 35.5253 134.691 35.76C134.52 35.9733 134.328 36.176 134.115 36.368C133.923 36.56 133.763 36.6667 133.635 36.688C133.614 36.7093 133.539 36.752 133.411 36.816C133.283 36.8587 133.198 36.9013 133.155 36.944H133.187C132.995 37.2 132.803 37.328 132.611 37.328H132.355C132.27 37.4773 131.992 37.648 131.523 37.84C131.054 38.0107 130.595 38.096 130.147 38.096ZM131.587 31.056C131.971 31.056 132.302 30.9493 132.579 30.736C132.878 30.5013 133.134 30.2453 133.347 29.968C133.774 29.392 134.019 28.8373 134.083 28.304C134.168 27.7493 134.104 27.3653 133.891 27.152C133.763 27.088 133.646 27.056 133.539 27.056C133.454 27.0347 133.272 27.0667 132.995 27.152C132.803 27.1947 132.536 27.3547 132.195 27.632C131.854 27.9093 131.512 28.2187 131.171 28.56C130.851 28.9013 130.606 29.1893 130.435 29.424L130.019 30.096C130.19 30.032 130.35 30 130.499 30C130.67 29.9787 130.766 29.9893 130.787 30.032C130.787 30.224 130.819 30.4053 130.883 30.576C130.968 30.7253 131.064 30.8427 131.171 30.928C131.299 31.0133 131.438 31.056 131.587 31.056ZM147.401 37.616C147.188 37.616 146.964 37.4987 146.729 37.264C146.516 37.0293 146.324 36.7413 146.153 36.4C146.004 36.0373 145.929 35.696 145.929 35.376C145.929 35.056 146.004 34.4587 146.153 33.584C146.324 32.7093 146.527 31.824 146.761 30.928C146.932 30.3733 146.985 30.0533 146.921 29.968C146.857 29.8827 146.569 30 146.057 30.32C145.759 30.4693 145.492 30.6293 145.257 30.8C145.023 30.9493 144.82 31.12 144.649 31.312C144.543 31.3973 144.383 31.536 144.169 31.728C143.956 31.92 143.732 32.1013 143.497 32.272C143.22 32.4853 142.868 32.784 142.441 33.168C142.015 33.552 141.588 33.936 141.161 34.32C140.756 34.704 140.447 35.0027 140.233 35.216C140.191 35.3013 140.127 35.376 140.041 35.44C139.956 35.504 139.86 35.5467 139.753 35.568C139.647 35.568 139.529 35.5467 139.401 35.504C139.167 35.44 138.943 35.3013 138.729 35.088C138.537 34.8747 138.441 34.6293 138.441 34.352C138.441 34.1387 138.527 33.776 138.697 33.264C138.868 32.7307 139.092 32.0907 139.369 31.344C139.668 30.5973 140.009 29.808 140.393 28.976C140.457 28.8693 140.511 28.7413 140.553 28.592C140.596 28.4213 140.628 28.24 140.649 28.048C140.692 27.856 140.713 27.6747 140.713 27.504C140.713 27.3973 140.724 27.2907 140.745 27.184C140.788 27.056 140.831 26.9387 140.873 26.832C140.937 26.704 140.991 26.6187 141.033 26.576C141.119 26.4053 141.268 26.3627 141.481 26.448C141.695 26.512 141.876 26.6613 142.025 26.896C142.345 27.1947 142.505 27.568 142.505 28.016C142.527 28.464 142.42 29.0187 142.185 29.68C142.1 29.8293 142.025 29.9787 141.961 30.128C141.919 30.256 141.876 30.3733 141.833 30.48C141.791 30.5653 141.759 30.64 141.737 30.704C141.716 30.7467 141.705 30.768 141.705 30.768C141.791 30.768 141.983 30.672 142.281 30.48C142.58 30.288 142.932 30.0747 143.337 29.84C143.657 29.6053 143.935 29.392 144.169 29.2C144.425 28.9867 144.639 28.8267 144.809 28.72C144.98 28.592 145.087 28.528 145.129 28.528C145.215 28.528 145.321 28.496 145.449 28.432C145.577 28.368 145.684 28.2933 145.769 28.208C145.855 28.1227 145.919 28.08 145.961 28.08C146.025 28.0587 146.057 28.048 146.057 28.048C146.057 28.048 146.1 28.048 146.185 28.048C146.271 28.0267 146.356 27.9733 146.441 27.888C146.612 27.76 146.836 27.728 147.113 27.792C147.391 27.8347 147.647 27.9413 147.881 28.112C148.116 28.2827 148.233 28.4747 148.233 28.688C148.233 28.7733 148.255 28.848 148.297 28.912C148.361 28.9547 148.393 28.976 148.393 28.976C148.564 28.976 148.671 29.2427 148.713 29.776C148.777 30.3093 148.724 30.8213 148.553 31.312C148.553 31.632 148.489 32.016 148.361 32.464C148.255 32.912 148.159 33.3387 148.073 33.744C147.903 34.2773 147.785 34.7467 147.721 35.152C147.657 35.5573 147.647 35.8987 147.689 36.176C147.732 36.4533 147.807 36.6773 147.913 36.848C147.999 36.9973 147.999 37.168 147.913 37.36C147.828 37.5307 147.657 37.616 147.401 37.616ZM162.966 36.976C162.795 36.9973 162.55 36.9013 162.23 36.688C161.931 36.4747 161.654 36.2293 161.398 35.952C161.248 35.7173 161.11 35.3653 160.982 34.896C160.854 34.4267 160.758 33.904 160.694 33.328C160.63 32.752 160.598 32.1973 160.598 31.664C160.619 31.1307 160.672 30.544 160.758 29.904C160.864 29.2427 160.96 28.6347 161.046 28.08C161.152 27.5253 161.227 27.152 161.27 26.96C161.462 26.7467 161.643 26.5973 161.814 26.512C162.006 26.4267 162.176 26.4053 162.326 26.448C162.475 26.4907 162.614 26.608 162.742 26.8C163.04 26.9493 163.179 27.184 163.158 27.504C163.158 27.824 163.062 28.1973 162.87 28.624C162.87 28.7307 162.848 28.88 162.806 29.072C162.763 29.2427 162.72 29.4027 162.678 29.552C162.507 29.8507 162.411 30.1173 162.39 30.352C162.39 30.5653 162.422 30.8107 162.486 31.088C162.55 31.3653 162.496 31.6213 162.326 31.856V31.824C162.304 31.9733 162.294 32.2293 162.294 32.592C162.315 32.9547 162.347 33.3173 162.39 33.68C162.454 34.0213 162.539 34.2667 162.646 34.416C162.667 34.608 162.774 34.704 162.966 34.704C163.179 34.6827 163.446 34.5333 163.766 34.256C164.022 34 164.31 33.68 164.63 33.296C164.971 32.912 165.28 32.5173 165.558 32.112C165.856 31.7067 166.091 31.3547 166.262 31.056C166.454 30.7573 166.528 30.5653 166.486 30.48C166.4 30.3093 166.443 30.1707 166.614 30.064C166.806 29.936 166.966 29.8187 167.094 29.712C167.2 29.584 167.264 29.456 167.286 29.328C167.307 29.1787 167.36 29.0293 167.446 28.88C167.552 28.7733 167.638 28.624 167.702 28.432C167.638 28.2827 167.68 28.1547 167.83 28.048C168 27.92 168.107 27.792 168.15 27.664C168.192 27.4507 168.267 27.3013 168.374 27.216C168.502 27.1307 168.64 27.1093 168.79 27.152C168.939 27.1733 169.067 27.248 169.174 27.376C169.302 27.4827 169.376 27.6427 169.398 27.856C169.398 28.112 169.302 28.4853 169.11 28.976C168.939 29.4667 168.715 29.9893 168.438 30.544C168.16 31.0987 167.862 31.6 167.542 32.048C167.435 32.2187 167.339 32.3893 167.254 32.56C167.168 32.7307 167.03 32.9547 166.838 33.232C166.667 33.5093 166.368 33.9147 165.942 34.448C165.771 34.6187 165.6 34.8 165.43 34.992C165.259 35.1627 165.088 35.3227 164.918 35.472C164.512 35.9413 164.16 36.304 163.862 36.56C163.563 36.816 163.264 36.9547 162.966 36.976ZM172.471 37.232C171.639 36.8907 171.095 36.4213 170.839 35.824C170.605 35.2053 170.562 34.256 170.711 32.976C170.754 32.3147 170.775 31.8773 170.775 31.664C170.775 31.4507 170.658 31.2373 170.423 31.024C170.359 30.9387 170.242 30.8213 170.071 30.672C169.922 30.5227 169.858 30.3947 169.879 30.288C169.858 30.1387 169.869 29.9787 169.911 29.808C169.954 29.616 170.018 29.52 170.103 29.52C170.189 29.52 170.274 29.4987 170.359 29.456C170.466 29.4133 170.562 29.4133 170.647 29.456C170.733 29.456 170.829 29.4667 170.935 29.488C171.042 29.5093 171.095 29.5627 171.095 29.648C171.181 29.7973 171.319 29.8187 171.511 29.712C171.703 29.584 171.906 29.3067 172.119 28.88C172.333 28.5387 172.61 28.1973 172.951 27.856C173.314 27.5147 173.666 27.2053 174.007 26.928C174.37 26.6293 174.669 26.416 174.903 26.288C175.01 26.2453 175.17 26.192 175.383 26.128C175.597 26.064 175.821 26.0107 176.055 25.968C176.311 25.9253 176.525 25.9147 176.695 25.936C177.079 25.9573 177.399 26.064 177.655 26.256C177.933 26.448 178.189 26.672 178.423 26.928C178.701 27.12 178.871 27.376 178.935 27.696C179.021 28.016 179.042 28.3573 178.999 28.72C178.957 29.0827 178.861 29.4133 178.711 29.712C178.647 29.9253 178.466 30.1813 178.167 30.48C177.869 30.7787 177.527 31.0667 177.143 31.344C176.759 31.6213 176.407 31.824 176.087 31.952C175.81 32.016 175.447 32.0693 174.999 32.112C174.573 32.1547 174.167 32.176 173.783 32.176C173.421 32.1547 173.175 32.112 173.047 32.048C172.898 31.9627 172.781 32.08 172.695 32.4C172.61 32.72 172.546 33.1787 172.503 33.776C172.461 34.2453 172.461 34.5867 172.503 34.8C172.546 35.0133 172.589 35.1627 172.631 35.248C172.781 35.3973 172.983 35.5893 173.239 35.824C173.517 36.0373 173.901 36.0693 174.391 35.92C174.797 35.8133 175.191 35.536 175.575 35.088C175.981 34.64 176.354 34.2773 176.695 34C176.781 33.8507 176.919 33.7653 177.111 33.744C177.325 33.7013 177.549 33.712 177.783 33.776C178.018 33.9253 178.114 34.1067 178.071 34.32C178.05 34.512 177.943 34.8107 177.751 35.216C177.687 35.3653 177.538 35.5573 177.303 35.792C177.09 36.0053 176.845 36.2293 176.567 36.464C176.311 36.6773 176.077 36.848 175.863 36.976C175.223 37.3173 174.626 37.4987 174.071 37.52C173.517 37.52 172.983 37.424 172.471 37.232ZM174.359 30.736C174.829 30.6293 175.202 30.5547 175.479 30.512C175.757 30.4693 176.023 30.352 176.279 30.16C176.535 29.9467 176.855 29.552 177.239 28.976C177.325 28.7413 177.346 28.5067 177.303 28.272C177.282 28.0373 177.229 27.8773 177.143 27.792C176.951 27.5787 176.717 27.5147 176.439 27.6C176.183 27.664 175.938 27.7813 175.703 27.952C175.554 28.016 175.33 28.176 175.031 28.432C174.754 28.6667 174.477 28.944 174.199 29.264C173.922 29.5627 173.698 29.84 173.527 30.096C173.357 30.352 173.314 30.5013 173.399 30.544C173.357 30.6293 173.474 30.6827 173.751 30.704C174.05 30.7253 174.253 30.736 174.359 30.736ZM191.966 36.528C191.539 36.528 191.187 36.4427 190.91 36.272C190.632 36.08 190.398 35.7707 190.206 35.344C190.12 35.0453 190.046 34.7147 189.982 34.352C189.939 33.968 189.918 33.616 189.918 33.296C189.918 32.9547 189.95 32.7307 190.014 32.624C190.099 32.5387 190.131 32.3893 190.11 32.176C190.11 31.9413 190.11 31.696 190.11 31.44C190.088 31.0133 189.982 30.7787 189.79 30.736C189.619 30.672 189.363 30.736 189.022 30.928C188.638 31.1627 188.136 31.4827 187.518 31.888C186.899 32.272 186.248 32.6987 185.566 33.168C184.904 33.6373 184.275 34.128 183.678 34.64C183.208 35.152 182.92 35.5467 182.814 35.824C182.728 36.08 182.6 36.208 182.43 36.208C182.259 36.2933 182.11 36.304 181.982 36.24C181.875 36.1547 181.715 36.0267 181.502 35.856C181.352 35.6853 181.203 35.5253 181.054 35.376C180.904 35.2053 180.808 35.0773 180.766 34.992C180.766 34.8853 180.798 34.6613 180.862 34.32C180.926 33.9787 181 33.6373 181.086 33.296C181.192 32.9547 181.267 32.7307 181.31 32.624C181.416 32.624 181.502 32.5173 181.566 32.304C181.651 32.0907 181.779 31.856 181.95 31.6C181.992 31.344 182.099 31.0027 182.27 30.576C182.462 30.128 182.632 29.7333 182.782 29.392C183.08 28.88 183.283 28.4533 183.39 28.112C183.518 27.7707 183.603 27.344 183.646 26.832C183.624 26.7467 183.646 26.672 183.71 26.608C183.774 26.5227 183.848 26.48 183.934 26.48C184.104 26.3093 184.307 26.2667 184.542 26.352C184.776 26.416 184.99 26.576 185.182 26.832C185.566 27.344 185.715 27.8773 185.63 28.432C185.566 28.9653 185.224 29.7333 184.606 30.736C184.456 31.0773 184.339 31.344 184.254 31.536C184.19 31.7067 184.158 31.8453 184.158 31.952C184.158 31.952 184.264 31.8773 184.478 31.728C184.712 31.5787 184.968 31.408 185.246 31.216C185.544 31.0027 185.779 30.8427 185.95 30.736C186.056 30.6293 186.302 30.4373 186.686 30.16C187.07 29.8827 187.475 29.616 187.902 29.36C188.35 29.0827 188.68 28.9227 188.894 28.88C189.064 28.7947 189.246 28.72 189.438 28.656C189.63 28.5707 189.768 28.528 189.854 28.528C190.024 28.528 190.238 28.624 190.494 28.816C190.771 28.9867 191.027 29.2 191.262 29.456C191.496 29.6907 191.635 29.8933 191.678 30.064C191.678 30.1493 191.678 30.2347 191.678 30.32C191.699 30.4053 191.72 30.4907 191.742 30.576C191.827 30.8533 191.87 31.2267 191.87 31.696C191.891 32.1653 191.88 32.592 191.838 32.976C191.795 33.36 191.72 33.584 191.614 33.648C191.614 33.648 191.614 33.68 191.614 33.744C191.635 33.7867 191.688 33.808 191.774 33.808C191.774 33.8933 191.774 33.9467 191.774 33.968C191.667 33.968 191.624 34.064 191.646 34.256C191.667 34.4267 191.731 34.6187 191.838 34.832C191.966 35.0453 192.094 35.216 192.222 35.344C192.478 35.6 192.584 35.8453 192.542 36.08C192.499 36.2933 192.307 36.4427 191.966 36.528ZM203.69 36.816C203.626 36.7307 203.562 36.624 203.498 36.496C203.455 36.368 203.434 36.2613 203.434 36.176C203.434 36.1333 203.423 36.08 203.402 36.016C203.402 35.952 203.359 35.92 203.274 35.92C203.21 35.856 203.252 35.6107 203.402 35.184C203.572 34.736 203.786 34.224 204.042 33.648C204.319 33.072 204.596 32.5173 204.874 31.984C205.172 31.4293 205.418 30.992 205.61 30.672C205.716 30.608 205.78 30.5227 205.802 30.416C205.844 30.288 205.844 30.224 205.802 30.224C205.802 30.224 205.855 30.128 205.962 29.936C206.09 29.7227 206.186 29.584 206.25 29.52C206.42 29.2213 206.548 28.9227 206.634 28.624C206.719 28.304 206.74 28.0373 206.698 27.824C206.612 27.7173 206.516 27.6853 206.41 27.728C206.303 27.7707 206.25 27.792 206.25 27.792C206.164 27.8133 206.036 27.856 205.866 27.92C205.716 27.9627 205.578 28.0267 205.45 28.112C204.959 28.4533 204.628 28.6133 204.458 28.592C204.287 28.5493 204.095 28.272 203.882 27.76C203.796 27.5253 203.764 27.3547 203.786 27.248C203.807 27.1413 203.892 27.024 204.042 26.896C204.212 26.7467 204.372 26.6507 204.522 26.608C204.671 26.544 204.788 26.48 204.874 26.416C205.108 26.2667 205.3 26.16 205.45 26.096C205.62 26.032 205.748 25.9893 205.834 25.968C206.388 25.7973 206.858 25.7653 207.242 25.872C207.626 25.9787 207.914 26.256 208.106 26.704C208.404 27.0667 208.554 27.4827 208.554 27.952C208.554 28.4 208.404 28.9227 208.106 29.52L207.786 30C207.679 30.2133 207.658 30.32 207.722 30.32C207.807 30.32 207.903 30.2453 208.01 30.096C208.074 30.0107 208.202 29.8827 208.394 29.712C208.586 29.5413 208.714 29.456 208.778 29.456C208.778 29.456 208.799 29.4453 208.842 29.424C208.906 29.4027 208.938 29.3173 208.938 29.168C209.002 29.104 209.066 29.04 209.13 28.976C209.215 28.912 209.258 28.88 209.258 28.88C209.343 28.88 209.503 28.784 209.738 28.592C209.994 28.3787 210.292 28.1333 210.634 27.856C210.868 27.6853 211.082 27.6 211.274 27.6C211.764 27.4507 212.159 27.6107 212.458 28.08C212.778 28.5493 212.938 29.1573 212.938 29.904L212.266 31.632L213.418 30.224C213.546 30.0533 213.674 29.904 213.802 29.776C213.951 29.648 214.079 29.5413 214.186 29.456C214.228 29.3067 214.292 29.2213 214.378 29.2C214.463 29.1787 214.506 29.168 214.506 29.168C214.506 29.168 214.527 29.168 214.57 29.168C214.612 29.1467 214.634 29.104 214.634 29.04C214.74 28.9547 214.858 28.88 214.986 28.816C215.114 28.7307 215.199 28.6453 215.242 28.56C215.604 28.4107 215.935 28.3893 216.234 28.496C216.532 28.5813 216.788 28.848 217.002 29.296C217.151 29.552 217.236 29.776 217.258 29.968C217.279 30.16 217.29 30.448 217.29 30.832C217.247 31.152 217.204 31.408 217.162 31.6C217.14 31.7707 217.119 31.952 217.098 32.144C217.076 32.336 217.044 32.6027 217.002 32.944C216.916 33.1147 216.863 33.296 216.842 33.488C216.842 33.68 216.842 33.8613 216.842 34.032C216.842 34.3093 216.852 34.5013 216.874 34.608C216.895 34.6933 216.98 34.736 217.13 34.736C217.428 34.672 217.834 34.5227 218.346 34.288C218.879 34.032 219.274 33.7867 219.53 33.552C219.85 33.2533 220.127 33.104 220.362 33.104C220.618 33.0827 220.778 33.2 220.842 33.456C220.884 33.5413 220.81 33.7333 220.618 34.032C220.447 34.3307 220.244 34.6187 220.01 34.896C219.796 35.1733 219.636 35.312 219.53 35.312C219.466 35.312 219.391 35.376 219.306 35.504C219.22 35.6107 219.124 35.696 219.018 35.76C218.868 35.9093 218.719 36.048 218.57 36.176C218.442 36.304 218.292 36.368 218.122 36.368C218.036 36.368 217.93 36.4 217.802 36.464C217.695 36.5067 217.567 36.528 217.418 36.528C217.204 36.592 216.874 36.56 216.426 36.432C215.999 36.304 215.722 36.0053 215.594 35.536C215.508 35.3013 215.434 34.928 215.37 34.416C215.306 33.8827 215.316 33.3493 215.402 32.816C215.487 32.432 215.54 32.08 215.562 31.76C215.583 31.44 215.626 31.216 215.69 31.088C215.69 31.024 215.69 30.8747 215.69 30.64C215.69 30.384 215.658 30.256 215.594 30.256C215.508 30.256 215.306 30.416 214.986 30.736C214.687 31.0347 214.324 31.4187 213.898 31.888C213.492 32.3573 213.087 32.848 212.682 33.36C212.276 33.872 211.946 34.3307 211.69 34.736C211.498 34.9707 211.327 35.2587 211.178 35.6C211.028 35.9413 210.922 36.1333 210.858 36.176C210.708 36.3467 210.527 36.368 210.314 36.24C210.122 36.112 209.94 35.9093 209.77 35.632C209.706 35.504 209.663 35.3973 209.642 35.312C209.62 35.2053 209.62 35.0667 209.642 34.896C209.684 34.704 209.759 34.4267 209.866 34.064C209.994 33.7013 210.164 33.1893 210.378 32.528C210.612 31.8027 210.815 31.152 210.986 30.576C211.178 29.9787 211.274 29.68 211.274 29.68C211.274 29.5947 211.114 29.68 210.794 29.936C210.474 30.1707 210.1 30.4693 209.674 30.832C209.482 31.0667 209.162 31.4187 208.714 31.888C208.266 32.3573 207.775 32.8907 207.242 33.488C206.708 34.0853 206.196 34.7147 205.706 35.376C205.087 36.2507 204.65 36.784 204.394 36.976C204.159 37.168 203.924 37.1147 203.69 36.816ZM228.02 36.88C227.572 37.264 227.049 37.488 226.452 37.552C225.876 37.616 225.31 37.5307 224.756 37.296C224.201 37.04 223.742 36.656 223.38 36.144C223.017 35.6747 222.782 35.1413 222.676 34.544C222.569 33.9253 222.558 33.1253 222.644 32.144C222.708 31.312 222.974 30.48 223.444 29.648C223.913 28.7947 224.478 28.0373 225.14 27.376C225.822 26.7147 226.494 26.256 227.156 26C227.476 25.7867 227.742 25.6907 227.956 25.712C228.19 25.712 228.542 25.7333 229.012 25.776C229.502 25.84 229.865 25.936 230.1 26.064C230.356 26.192 230.558 26.3627 230.708 26.576C231.028 26.896 231.241 27.216 231.348 27.536C231.454 27.8347 231.508 28.1333 231.508 28.432C231.422 28.9013 231.102 29.4773 230.548 30.16C230.014 30.8213 229.31 31.3653 228.436 31.792C227.966 31.9413 227.454 32.0053 226.9 31.984C226.345 31.9627 225.886 31.824 225.524 31.568C225.118 31.3973 224.852 31.4293 224.724 31.664C224.596 31.8773 224.478 32.4107 224.372 33.264C224.286 34.0747 224.35 34.672 224.564 35.056C224.777 35.4187 225.065 35.632 225.428 35.696C225.854 35.7813 226.185 35.8453 226.42 35.888C226.676 35.9093 226.985 35.8133 227.348 35.6C227.689 35.3867 227.902 35.2693 227.988 35.248C228.073 35.2053 228.137 35.1627 228.18 35.12C228.244 35.056 228.382 34.9173 228.595 34.704C228.745 34.5547 228.862 34.448 228.948 34.384C229.033 34.2987 229.129 34.256 229.236 34.256C229.342 34.256 229.438 34.3093 229.524 34.416C229.609 34.5013 229.694 34.5653 229.78 34.608C229.993 34.608 230.036 34.736 229.908 34.992C229.801 35.248 229.577 35.5573 229.236 35.92C228.894 36.2613 228.489 36.5813 228.02 36.88ZM227.988 30.096C228.222 29.9893 228.468 29.84 228.724 29.648C228.98 29.4347 229.193 29.2107 229.364 28.976C229.556 28.72 229.652 28.5067 229.652 28.336C229.652 28.0373 229.513 27.792 229.236 27.6C228.958 27.3867 228.542 27.3547 227.988 27.504C227.753 27.568 227.486 27.728 227.188 27.984C226.889 28.2187 226.601 28.4853 226.324 28.784C226.068 29.0827 225.854 29.3493 225.684 29.584C225.534 29.8187 225.481 29.9573 225.524 30C225.588 30.1067 225.769 30.192 226.068 30.256C226.366 30.2987 226.697 30.3093 227.06 30.288C227.444 30.2667 227.753 30.2027 227.988 30.096ZM239.93 37.904C239.695 37.9893 239.524 38.0213 239.418 38C239.332 37.9573 239.108 37.7973 238.746 37.52C238.596 37.264 238.5 37.04 238.458 36.848C238.436 36.6347 238.426 36.2613 238.426 35.728C238.468 35.408 238.554 34.9493 238.682 34.352C238.831 33.7547 239.002 33.1253 239.194 32.464C239.386 31.8027 239.556 31.2053 239.706 30.672C239.876 30.1387 240.004 29.776 240.09 29.584C240.239 29.072 240.271 28.7627 240.186 28.656C240.1 28.528 239.844 28.4427 239.418 28.4C238.564 28.2933 237.796 28.5707 237.114 29.232C236.431 29.8933 235.748 30.7573 235.066 31.824C234.554 32.6133 234.244 33.296 234.138 33.872C234.052 34.4267 234.042 34.8107 234.106 35.024C234.17 35.1947 234.319 35.2907 234.554 35.312C234.788 35.312 235.044 35.2587 235.322 35.152C235.62 35.0453 235.876 34.9387 236.09 34.832C236.239 34.7467 236.42 34.6613 236.634 34.576C236.868 34.4693 237.092 34.3733 237.306 34.288C237.434 34.288 237.519 34.3307 237.562 34.416C237.626 34.48 237.658 34.6187 237.658 34.832C237.658 34.9173 237.69 34.992 237.754 35.056C237.818 35.12 237.892 35.1733 237.978 35.216C238.063 35.3013 237.935 35.4933 237.594 35.792C237.274 36.0907 236.772 36.432 236.09 36.816C235.45 36.9653 234.927 37.04 234.522 37.04C234.138 37.04 233.764 36.9013 233.402 36.624C232.804 36.2613 232.463 35.6747 232.378 34.864C232.314 34.032 232.484 33.0187 232.89 31.824C233.295 30.864 233.743 30.0853 234.234 29.488C234.724 28.8693 235.247 28.272 235.802 27.696C235.887 27.6107 236.079 27.4827 236.378 27.312C236.698 27.12 237.092 26.9493 237.562 26.8C238.095 26.6293 238.596 26.5227 239.066 26.48C239.535 26.4373 239.94 26.5333 240.282 26.768C240.666 26.8533 240.911 26.8427 241.018 26.736C241.124 26.608 241.306 26.224 241.562 25.584C241.988 24.5173 242.404 23.44 242.81 22.352C243.215 21.2427 243.652 20.1227 244.122 18.992C244.335 18.5867 244.463 18.2773 244.506 18.064C244.57 17.8293 244.644 17.6693 244.73 17.584H245.338C245.423 17.584 245.572 17.6587 245.786 17.808C245.999 17.9573 246.148 18.16 246.234 18.416C246.234 18.608 246.148 19.0347 245.978 19.696C245.807 20.336 245.53 21.104 245.146 22C244.804 22.7893 244.463 23.5893 244.122 24.4C243.802 25.1893 243.492 26.032 243.194 26.928C242.959 27.5893 242.746 28.1227 242.554 28.528C242.362 28.9333 242.234 29.2853 242.17 29.584C242.042 30.1387 241.882 30.64 241.69 31.088C241.519 31.5147 241.402 31.8133 241.338 31.984C241.06 32.7947 240.836 33.456 240.666 33.968C240.495 34.4587 240.367 34.8747 240.282 35.216C240.196 35.536 240.143 35.8667 240.122 36.208C240.122 36.528 240.154 36.912 240.218 37.36C240.218 37.4453 240.207 37.5307 240.186 37.616C240.164 37.7013 240.079 37.7973 239.93 37.904ZM248.46 32.56C247.863 32.6667 247.468 32.3787 247.276 31.696C247.084 31.0133 247.138 30.0747 247.436 28.88C247.564 28.624 247.671 28.3787 247.756 28.144C247.842 27.888 247.884 27.6853 247.884 27.536C247.97 27.2587 248.076 26.9387 248.204 26.576C248.354 26.192 248.503 25.84 248.652 25.52C248.802 25.1787 248.908 24.9547 248.972 24.848C249.058 24.848 249.143 24.7733 249.228 24.624C249.335 24.4747 249.388 24.3253 249.388 24.176C249.388 24.0053 249.42 23.8133 249.484 23.6C249.57 23.3867 249.655 23.2373 249.74 23.152C249.74 23.0453 249.783 22.928 249.868 22.8C249.954 22.672 249.996 22.5653 249.996 22.48C249.996 22.3947 250.018 22.32 250.06 22.256C250.124 22.192 250.156 22.1173 250.156 22.032C250.348 21.6907 250.594 21.1893 250.892 20.528C251.212 19.8453 251.522 19.1307 251.82 18.384C252.14 17.6373 252.407 16.976 252.62 16.4C252.834 15.824 252.94 15.472 252.94 15.344C252.983 15.1733 253.047 15.0453 253.132 14.96C253.218 14.8747 253.346 14.8533 253.516 14.896C253.602 14.832 253.687 14.8 253.772 14.8C253.858 14.7787 253.943 14.768 254.028 14.768C254.028 14.768 254.06 14.8107 254.124 14.896C254.21 14.9813 254.327 15.1093 254.476 15.28C254.647 15.4293 254.743 15.6 254.764 15.792C254.786 15.984 254.796 16.208 254.796 16.464C254.775 16.8693 254.626 17.328 254.348 17.84C254.071 18.352 253.762 18.9173 253.42 19.536C253.207 19.9413 252.994 20.3253 252.78 20.688C252.588 21.0507 252.492 21.2747 252.492 21.36C252.492 21.4453 252.45 21.5733 252.364 21.744C252.279 21.9147 252.183 22.128 252.076 22.384C251.948 22.5973 251.81 22.8533 251.66 23.152C251.511 23.4507 251.372 23.728 251.244 23.984C251.138 24.2187 251.084 24.368 251.084 24.432C251.063 24.5173 251.031 24.6027 250.988 24.688C250.967 24.7733 250.914 24.8587 250.828 24.944C250.743 24.944 250.69 25.008 250.668 25.136C250.668 25.2427 250.668 25.296 250.668 25.296C250.668 25.3813 250.615 25.584 250.508 25.904C250.423 26.2027 250.274 26.5653 250.06 26.992C249.655 28.1227 249.367 29.0293 249.196 29.712C249.026 30.3733 248.919 30.9387 248.876 31.408C248.834 31.92 248.791 32.2187 248.748 32.304C248.727 32.3893 248.631 32.4747 248.46 32.56ZM246.732 37.68C246.327 37.8293 245.986 37.904 245.708 37.904C245.452 37.8827 245.164 37.7547 244.844 37.52C244.439 37.136 244.3 36.752 244.428 36.368C244.578 35.9627 244.93 35.568 245.484 35.184C245.868 34.9493 246.146 34.8213 246.316 34.8C246.508 34.7787 246.796 34.8533 247.18 35.024C247.82 35.4293 248.098 35.8773 248.012 36.368C247.948 36.8587 247.522 37.296 246.732 37.68Z" fill="#70727E"/>
<path d="M5.1553 1.5C5.1553 1.5 8 16.5 27.1111 25.5249C46.2223 34.5497 71.5 31 71.5 31" stroke="#007C79"/>
<path d="M1 8L5 1L11.5 7" stroke="#007C79"/>
</svg>
