<?xml version="1.0" encoding="UTF-8"?><svg id="Layer_4" xmlns="http://www.w3.org/2000/svg" width="1383.01" height="986.25" viewBox="0 0 1383.01 986.25"><defs><style>.cls-1{fill:none;stroke:#ff1054;stroke-miterlimit:10;stroke-width:7px;}</style></defs><path class="cls-1" d="M344.32,354.84c2.34-19.4,9.09-49.94,31.8-75.82,11.81-13.47,23.08-20.13,83.16-50.14,50.3-25.12,75.45-37.69,85.61-41.58,19.07-7.31,44.68-15.65,116.18-28.13,79.71-13.91,142.03-19.99,163.87-22.01,37.43-3.47,93.8-8.58,167.54-9.78,112.62-1.83,220.28-3.59,228.69,28.13,2.11,7.97-2.96,14.58-50.14,66.04-48.45,52.85-72.68,79.27-79.49,85.61-18.04,16.76-68.53,61.9-144.31,103.95-57.09,31.68-100.02,45.58-185.89,73.38-116.2,37.62-175.48,56.25-233.58,47.69-30.87-4.55-102.6-15.11-147.98-75.82-28.51-38.14-34.2-79.46-35.47-101.5Z"/><path class="cls-1" d="M351.6,322.16c4.23-24.06,2.48-72.36,26.96-105.51,73.15-99.08,124.23-164.49,138.19-156.54,10.32,5.88,2.09,34.81,1.11,37.24-12.93,32.17-19.11,36.35-36.58,58.15-12.65,15.79-27.25,40.6-34.23,79.5"/><path class="cls-1" d="M398.67,477.57c-19.11,4.38-50.53,14.32-80.86,38.86-39.66,32.09-55.19,71.12-66.86,101.53-13.05,34.01-33.29,86.77-19.81,153.53,0,0,13.17,65.21,122.58,164.67,6.69,6.08,18.14,15.75,27.24,12.38,7-2.59,10.4-12.07,12.38-24.76,5.05-32.38-2.97-61.03-11.14-85.43-19.7-58.86-29.81-61.95-28.48-87.91.7-13.56,3.44-12.29,11.14-53.24,5.51-29.25,4.32-31.01,8.67-54.48,8.76-47.26,15.34-80.74,34.67-86.67,9.09-2.78,17.62,1.55,22.29,3.71,43.3,20.05,100.68,13.26,170.86,4.95,15.09-1.79,68.99-8.8,134.96-33.43,54.49-20.35,93.41-43.83,110.19-54.48,26.48-16.8,47.65-33.26,63.32-46.5"/><path class="cls-1" d="M344.32,354.84c5.69-6.26,13.89-13.38,21.79-11.75,8.06,1.66,11.58,11.56,16.1,21.05,7.28,15.3,19.3,29.19,43.33,56.95,18.08,20.88,27.11,31.33,38.38,37.14,15.73,8.12,26.44,6.81,70.57,8.67,50.13,2.11,42.43,4.05,61.91,3.71,43.91-.77,77.35-10.56,104-18.57,27.71-8.33,26.53-10.39,85.43-33.43,74.02-28.95,77.72-26.41,112.67-43.33,14.5-7.02,38.14-21.6,85.43-50.76,43.55-26.86,57.2-36.76,66.86-55.72,7.37-14.47,5.84-21.29,16.1-34.67,17.22-22.47,35.16-20.98,44.57-35.91,6.64-10.53,9.78-30.39-12.44-71.44"/><path class="cls-1" d="M1064.79,237.02c-54.37-20.73-80.28-41.4-93.78-57.45-3.62-4.3-13.53-16.8-28.09-17.87-4.18-.31-12.48.05-30.64,13.62-19.71,14.73-44.16,32.99-42.56,55.32.41,5.68,2.11,6.24,16.17,29.79,18.39,30.79,17.42,33.08,25.53,44.26,7.71,10.62,20.58,25.06,42.16,38.51"/><path class="cls-1" d="M542.9,463c1.02-42.13-3.01-75.43-6.81-97.88-6.69-39.5-14.15-53.9-6.81-78.3,9.75-32.4,36.48-52.13,44.26-57.88,13.31-9.82,24.21-17.87,40-18.72,9.55-.51,26.64,8.44,60.43,26.38,18.83,10,25.75,14.14,30.64,22.98,6,10.84,4.15,20.07,4.26,31.49.23,25.51,11.22,45.66,33.19,85.96,6.65,12.19,16.45,28.6,30.18,46.95"/><path class="cls-1" d="M453.97,231.53c-4.91,6.91-9.73,16.31-7.25,25.5,1.68,6.23,5.53,7.97,5.96,12.77,1,11.15-18.1,20.87-25.53,25.53-14.71,9.23-32.07,28.97-41.16,75.93"/><path class="cls-1" d="M452.39,273.12c25.63,4.57,51.26,9.13,76.89,13.7"/><path class="cls-1" d="M590.53,217.35c-15.22-10.02-30.44-20.03-45.65-30.05"/><path class="cls-1" d="M616.56,207.59h0c2.69-6.47,7-14.73,13.98-23.03,13.82-16.43,30.31-23.74,39.04-26.87"/><path class="cls-1" d="M708.52,151.44c21.59.16,31.64,6.59,36.76,12.97,6.32,7.88,5.09,15.61,12.75,20.15,7.59,4.49,19.21,3.06,26.73-2.47,9.61-7.06,6.86-16.65,16.86-29.61,6.02-7.81,13.19-12.33,17.97-14.83"/><path class="cls-1" d="M701.63,255.1c4.8-11.69,13.03-27.83,27.1-44.1,10.24-11.84,20.7-20.41,29.3-26.44"/><path class="cls-1" d="M786.76,180.42c9.49,3.15,19.8,7.18,30.61,12.38,21.79,10.5,39.15,22.69,52.36,33.62"/><path class="cls-1" d="M938.87,158.17c-.98-8.81-1.96-17.61-2.94-26.42"/><path class="cls-1" d="M422.09,417.11c-4.07,4.95-11.42,15.27-14.22,30.31-3.95,21.17,3.68,37.84,6.48,43.31"/><path class="cls-1" d="M463.92,458.24c-1.87.9-15.15,7.57-19.23,23.43-4.1,15.95,4.44,28.25,5.64,29.92"/><path class="cls-1" d="M529.52,466.7c-3.68,5.72-8.57,14.84-11.18,26.96-3.52,16.3-1.17,29.86.66,37.18"/><path class="cls-1" d="M601.36,470.49c-.13,6.37-.13,12.96.03,19.75.33,13.91,1.31,27.01,2.7,39.22"/><path class="cls-1" d="M696.95,453.08c2.88,4.52,6.99,12.22,8.92,22.6,2.18,11.72.55,21.39-.77,26.81"/><path class="cls-1" d="M800.62,412.89c3.95,3.19,8.91,8,13.15,14.83,9.34,15.05,9.23,30.26,8.8,36.67"/><path class="cls-1" d="M898.5,375.28c5.46,2.97,13.72,8.31,21.45,17.33,8.31,9.68,12.4,19.38,14.42,25.44"/><path class="cls-1" d="M983.93,324.52c6.69,2.91,13.64,6.18,20.8,9.86,11.79,6.07,22.42,12.37,31.92,18.58"/><path class="cls-1" d="M1050.79,268.8c7.02,2.17,14.55,4.86,22.44,8.21,12.17,5.16,22.73,10.83,31.68,16.32"/><path class="cls-1" d="M1111.46,198.23c8.22,2.88,16.93,6.27,26,10.27,11.48,5.07,21.87,10.39,31.17,15.65"/><path class="cls-1" d="M349.97,327.28c-9.57-7.15-25.27-17.4-46.58-24.58-20.7-6.97-31.27-5.85-62.51-11.99-41.28-8.12-36.67-12.8-57.37-14.56-27.13-2.3-76.61,2.22-92.48,33.4-7.44,14.61-5.37,30.87-4.28,39.39.75,5.85,3.33,24.28,17.13,41.1,8.32,10.14,17.63,15.96,29.97,22.26,40.72,20.81,78.47,28.59,89.91,30.83,41.45,8.1,44.12,3.32,71.08,10.28,33.05,8.53,57.77,23.13,73.1,33.74"/><path class="cls-1" d="M138.98,338.66c-3.54-4.47-1.05-12.17,0-15.41.79-2.43,3.17-9.44,10.28-13.7,10.14-6.08,21.09-1.27,23.98,0,3.59,1.58,7.39,3.25,8.56,6.85,2.24,6.89-7.04,14.94-8.56,16.27-10.5,9.11-28.68,13.03-34.25,5.99Z"/><path class="cls-1" d="M1057.18,336.92c30.91,10.2,54.39,21.31,69.55,29.18,82.31,42.7,106.66,58.43,106.66,58.43,8.82,5.7,23.76,15.62,42.66,13.91,4.99-.45,22.24-2,31.54-16.69,4.8-7.6,6.34-17.93,1.85-35.24-14.62-56.4-69.4-94.47-72.34-96.46-35.71-24.19-72.06-32.21-96.88-34.93"/></svg>