<?xml version="1.0" encoding="UTF-8"?><svg id="Layer_3" xmlns="http://www.w3.org/2000/svg" width="1654.65" height="1757.76" viewBox="0 0 1654.65 1757.76"><defs><style>.cls-1{fill:none;stroke:#ff1054;stroke-miterlimit:10;stroke-width:7px;}</style></defs><path class="cls-1" d="M642.11,360.14c35.19-34.59,52.79-51.89,69.23-59.34,44.67-20.24,91.11-6.37,150.82,12.36,28.67,8.99,63.17,22.26,131.04,59.34,93.83,51.27,140.75,76.9,170.6,108.79,44.76,47.82,58.68,97.81,86.54,197.8,27.93,100.26,51.14,183.57,39.56,296.7-6.3,61.55-15.94,155.8-79.12,244.77-65.52,92.28-115.21,75.51-165.66,173.07-19.68,38.05-37.62,89.93-86.54,108.79-7.77,3-28.32,10.62-51.92,4.94-37.51-9.02-47.37-43.11-79.12-74.17-35.8-35.02-67.29-34.75-116.21-54.39-86.98-34.93-140.54-97.3-178.02-140.93-87.01-101.3-113.38-208.44-123.62-252.19-14.07-60.11-50.51-215.77,22.25-360.98,26.88-53.65,65.79-100.13,143.4-192.85,4.05-4.84,29.48-35.06,66.76-71.7Z"/><path class="cls-1" d="M599.52,404.34c35.85-2.51,61.95,5.9,76.22,11.88,16.39,6.87,33.84,14.18,40.52,30.98,3.53,8.88,1.9,15.02-5.96,46.48-14.71,58.86-17.36,70.82-29.79,78.65-12.01,7.57-25.14,6.25-29.79,5.96-29.65-1.83-93.22,15.21-237.68,90.81"/><path class="cls-1" d="M935.86,342.84c-15.62,9.81-32.69,23.47-47.99,42.39-14.93,18.46-26.18,32.38-25.03,50.05.85,13.04,7.7,16.56,30.98,47.67,30.33,40.52,28,46.99,40.52,52.43,21.41,9.32,34.3-6.94,72.69-9.53,30.71-2.08,44.1,6.87,77.46,14.3,27.86,6.2,68.41,11.07,121.51,3.54"/><path class="cls-1" d="M1265.9,736.1c-50.67,2.94-91.57,1.7-118.83.13-80.46-4.62-161.7-18.96-173.34,6.88-1.82,4.04-.63,6.17-4.13,16.51-6.17,18.26-15.77,29.05-22.01,37.14-6.5,8.44-27.18,35.26-30.27,66.03-1.98,19.76,3.92,34.9,9.63,49.53,5.57,14.27,21.57,55.28,50.9,60.53,14.03,2.51,24.12-4.4,35.77-9.63,30.19-13.56,62.77-8.12,127.94,2.75,36.92,6.16,87.06,17.33,145.18,38.93"/><path class="cls-1" d="M388.1,816.07c15.55-6.63,41.12-16.4,73.87-23.42,64.03-13.74,70.83,1.18,144.45-11.01,16.06-2.66,46.4-8.44,86.67-4.13,4.72.5,11.57-.47,19.26,2.75,15.59,6.52,21.11,21.57,33.02,48.15,23.61,52.7,26.08,47.52,27.51,60.53,1.88,16.98-3.79,33.79-15.13,67.41-9.27,27.49-14.1,41.4-23.39,49.53-16.61,14.52-36.44,12.41-64.66,13.76-16.07.77-46.02,6.93-105.93,19.26-30.65,6.31-73.84,17.84-125.31,40.78"/><path class="cls-1" d="M657.6,1351.63c8.95-70.71,34.35-105.24,57.41-123.69,20.49-16.39,42.68-22.93,59.65-52.01,14.59-24.99,9.12-38.88,26-55.06,11.45-10.97,28.03-14.45,61.18-21.41,36.3-7.62,54.78-11.27,70.36-3.06,14.77,7.78,14.42,17.46,30.59,33.65,23.28,23.31,50.14,29.44,62.71,33.65,28.92,9.69,69.79,38.57,122.27,122.71"/><path class="cls-1" d="M926.1,1093.82l51.76-120.96"/><path class="cls-1" d="M917.61,880.63c-48.19,6.57-96.38,13.13-144.57,19.7"/><path class="cls-1" d="M734.36,1005.88c11.62,8.16,32.41,25.1,47.96,53.81,13.39,24.72,17.16,47.59,18.35,61.18"/><path class="cls-1" d="M680.51,572.33c13.14,10.48,34.6,30.44,49.8,62.13,6.44,13.43,15.51,32.34,15.3,56.59-.42,46.69-34.96,78.76-44.16,86.8"/><path class="cls-1" d="M934.35,535.39c-5.41,15.97-13.97,40.85-25.07,71.54-9.57,26.48-11.61,31.19-12.24,38.24-1.46,16.35,4.18,50.17,76.7,97.95"/><path class="cls-1" d="M713.05,440.99c11.03-7.37,34.7-21,67.74-23.73,40.36-3.33,70.58,11.59,82.05,18.02"/><path class="cls-1" d="M740.28,658.16l156.76-12.99"/><path class="cls-1" d="M668.53,328.59c-13.1-89.41-11.06-126.98-6.44-144.54,1.99-7.57,6.73-20.11,6.44-38.67-.3-19.38-5.79-25.26-.92-34.06,5.77-10.44,16.87-8.34,34.98-21.17,8.86-6.28,9.31-12.09,19.33-18.41,7.38-4.65,12.76-8.05,19.33-7.37,11.86,1.24,12.44,14.18,28.54,21.17,11.03,4.79,13.34-.16,21.17,4.6,3.43,2.08,9.94,7.26,18.41,39.59,3.05,11.65,4.24,18.74,5.52,24.86,5.66,26.98,15.04,44.12,19.33,54.32,7.71,18.31,13.16,47.78,2.3,96.37"/><path class="cls-1" d="M958.08,353.88c7.23-19.75,21.84-49.91,51.88-71.57,20.23-14.58,40.26-20.14,103.86-27.2,89.01-9.88,133.51-14.83,182.99-8.65,47.33,5.9,80.19,16.66,119.93,29.67,93.87,30.74,132.45,61.55,153.32,81.6,15.85,15.24,43.27,42.2,35.86,64.29-5.19,15.46-25.12,21.68-30.91,23.49-34.04,10.63-61.4-7.05-95.2-18.55-25.55-8.69-17.48-1.17-147.13-8.65-85.98-4.96-108.96-9.39-138.48,7.42-22.04,12.55-35.79,30.14-43.8,42.63"/><path class="cls-1" d="M580.88,425.34c-10.94-6.32-27.03-16.08-45.7-29.29-25.52-18.05-30.02-24.26-39.57-29.67-37.11-21.07-89.95,4.13-114.99,16.07-53.13,25.34-82.81,59.63-128.59,112.51-45.65,52.74-75.03,100.36-92.73,132.3-11.5,20.75-22.09,44.74-43.27,92.73-35.95,81.42-44.98,113.6-30.91,138.48,2.74,4.85,7.27,12.6,16.07,16.07,4.91,1.94,27.92,9.14,87.79-53.17,42.71-44.45,33.1-50.3,74.19-96.44,44.6-50.09,45.76-31.78,110.04-96.44,12.42-12.5,24.86-25.74,33.38-22.26,12.35,5.05,8.7,42.06,4.82,67.56"/><path class="cls-1" d="M652.71,1348.56c-1.35,13.75-4.37,34.35-12.01,58.22-12.35,38.58-25.3,49.84-39.76,81.78-23.12,51.06-23.87,96.98-24.01,119.29-.26,41.79-.5,81.96,27.01,102.04,22.7,16.57,52.81,11.07,60.02,9.75,24.96-4.56,40.94-18.63,61.52-36.76,15.32-13.49,24.44-25.03,42.01-47.27,20-25.3,29.99-37.95,36.01-51.77,10.76-24.73,10.52-45.86,9.75-79.53-.51-22.42-3.15-54.35-12.96-92.14"/><path class="cls-1" d="M1031.2,1421.97c1.4,13.72,4.66,33.61,13.14,56.08,8.19,21.71,14.14,26.97,46.52,76.53,32.81,50.21,37.63,61.53,56.27,71.28,12.17,6.36,9.73,1.33,42.01,12,40.49,13.38,49.28,22.93,71.27,21.76,9.02-.48,26.4-1.41,38.26-13.5,13.74-14.01,11.85-39.04,7.5-88.53-2.31-26.34-3.47-39.52-6.75-51.02-9.31-32.64-22.67-40.31-47.27-80.28-30.05-48.83-23.4-58.98-48.02-90.78-20.38-26.33-43.1-42.83-58.42-52.39"/></svg>