<svg width="106" height="105" viewBox="0 0 106 105" fill="none" xmlns="http://www.w3.org/2000/svg">
<path d="M105.449 76.2762C103.48 70.89 91.5487 70.1371 85.9887 57.8008C85.6412 56.8742 85.6991 56.2371 86.6258 55.6579C90.9116 52.82 93.9233 51.2562 95.6608 47.955C96.9349 45.5804 97.1087 42.8004 96.1241 40.2521C94.792 36.7192 91.4329 34.4604 87.3208 34.4604C85.8729 34.4604 84.7145 34.75 84.1354 34.8658C84.1933 32.4333 84.1354 29.885 83.9037 27.3367C83.1508 18.4754 80.0233 13.7842 76.78 10.0775C74.8687 7.93458 67.2816 0 52.9183 0C38.5549 0 30.9679 7.93458 29.0566 10.0775C25.8133 13.7842 22.6858 18.4754 21.9329 27.3367C21.7591 29.885 21.7012 32.4333 21.7012 34.8658C21.0641 34.6921 19.9637 34.4604 18.5158 34.4604C14.4616 34.4604 11.0445 36.6612 9.71245 40.2521C8.72786 42.7425 8.90161 45.5804 10.1758 47.955C11.9712 51.3142 14.9249 52.82 19.2108 55.6579C20.1374 56.295 20.1954 56.8742 19.8479 57.8008C14.2299 70.1371 2.35703 70.89 0.387865 76.2762C-0.480885 78.5929 0.0982814 81.1992 2.2412 83.4C5.54245 86.8171 11.6816 87.8596 12.8979 88.6704C13.8824 89.4812 13.7666 91.9137 16.5466 93.8829C18.7474 95.3887 21.1799 95.5046 23.7862 95.5625C31.3733 95.8521 33.0529 97.1262 35.9487 98.9217C39.5974 101.18 44.5783 104.25 52.9183 104.25C61.2583 104.25 66.2391 101.18 69.8879 98.9217C72.7837 97.1262 74.4633 95.8521 82.0504 95.5625C84.6566 95.4467 87.0891 95.3887 89.29 93.8829C92.1279 91.9137 92.012 89.4812 92.9387 88.6704C94.1549 87.8596 100.294 86.8171 103.595 83.4C105.738 81.1992 106.317 78.5929 105.449 76.2762ZM99.4833 79.3458C97.3404 81.6046 92.1858 82.2417 89.4637 84.095C86.6837 86.5275 87.147 88.3808 86.0466 89.1337C85.2937 89.655 83.9616 89.7129 81.8766 89.8287C73.7683 90.1183 70.8145 91.6242 67.2816 93.825C58.9995 98.9217 54.3662 98.4583 52.9183 98.4583C51.4704 98.4583 46.837 98.9217 38.6129 93.7671C35.0799 91.5663 32.1841 90.1183 24.0179 89.7708C21.9329 89.7129 20.6008 89.5971 19.8479 89.0758C18.7474 88.3229 19.1529 86.4696 16.4308 84.0371C13.6508 82.1837 8.55411 81.5467 6.4112 79.2879C6.0637 78.9404 5.77411 78.4771 5.7162 78.4192C6.12161 77.84 8.09078 76.6817 9.5387 75.8708C14.0562 73.2067 21.0062 69.2683 25.2341 59.9438C26.7399 55.8896 25.4079 52.6462 22.4541 50.735C15.7937 46.5071 15.9095 46.3333 15.2724 45.175C15.0437 44.7309 14.91 44.244 14.8801 43.7454C14.8502 43.2468 14.9246 42.7474 15.0987 42.2792C15.7937 40.4258 17.7049 40.2521 18.4579 40.2521C19.5583 40.2521 19.5004 40.31 27.5508 42.395C27.4349 34.2867 27.3191 31.6804 27.6666 27.8579C28.3037 20.2708 30.9679 16.68 33.3424 13.9579C34.9641 12.2204 41.277 5.67583 52.9183 5.79167C64.5595 5.67583 70.8724 12.2204 72.4362 13.9579C74.8108 16.68 77.4749 20.2708 78.112 27.8579C78.4595 31.6804 78.3437 34.2867 78.2279 42.395C86.3362 40.31 86.2204 40.2521 87.3208 40.2521C88.1316 40.2521 89.9849 40.4258 90.6799 42.2792C91.0854 43.2637 91.0274 44.3062 90.5062 45.175C89.8691 46.3333 89.9849 46.4492 83.3824 50.7929C80.4287 52.7042 79.0966 55.9475 80.6025 60.0017C84.8304 69.3262 91.7804 73.2646 96.2979 75.9288C97.7458 76.7975 99.7149 77.8979 100.12 78.4771C100.12 78.535 99.7729 78.9983 99.4833 79.3458Z" fill="#E5E6E8"/>
</svg>
